<?xml version="1.0" encoding="UTF-8"?>
<svg width="800" height="600" version="1.1" viewBox="0 0 211.67 158.75" xmlns="http://www.w3.org/2000/svg">
  <g transform="translate(0 -138.25)">
    <rect id="background-color" fill="#000" y="138.25" width="211.67" height="158.75"/>
    <g transform="matrix(.05239 0 0 .05239 63.446 238.53)" stroke-width="5.387">
      <g transform="translate(-132.58 958.04)">
        <g id="small-nixos-logo">
          <path d="m309.4-710.25 122.2 211.68-56.157 0.5268-32.624-56.869-32.856 56.565-27.902-0.011-14.291-24.69 46.81-80.49-33.229-57.826z"/>
          <g fill="#7ebae4">
            <path d="m353.51-797.44-122.22 211.66-28.535-48.37 32.938-56.688-65.415-0.1719-13.941-24.17 14.236-24.721 93.112 0.2939 33.464-57.69z"/>
            <path d="m362.89-628.24 244.41 0.012-27.622 48.897-65.562-0.1817 32.559 56.737-13.961 24.158-28.527 0.032-46.301-80.784-66.693-0.1353z"/>
            <path d="m505.14-720.99-122.2-211.68 56.157-0.5268 32.624 56.869 32.856-56.565 27.902 0.011 14.291 24.69-46.81 80.49 33.229 57.826z"/>
          </g>
          <g fill="#5277c3">
            <path d="m309.4-710.25 122.2 211.68-56.157 0.5268-32.624-56.869-32.856 56.565-27.902-0.011-14.291-24.69 46.81-80.49-33.229-57.826z"/>
            <path d="m451.34-803.53-244.41-0.012 27.622-48.897 65.562 0.18175-32.559-56.737 13.961-24.159 28.527-0.0315 46.301 80.784 66.693 0.13524z"/>
            <path d="m460.87-633.84 122.22-211.66 28.535 48.37-32.938 56.688 65.415 0.1718 13.941 24.17-14.236 24.721-93.112-0.294-33.464 57.69z"/>
          </g>
        </g>
      </g>
    </g>
    <g id="big-transparent-nixos-logo" opacity="0.05">
      <g transform="matrix(.42187 0 0 .42187 -2.8505e-7 125.87)">
        <g transform="translate(-156.34 933.19)">
          <g fill="#7ebae4">
            <path d="m353.51-797.44-122.22 211.66-28.535-48.37 32.938-56.688-65.415-0.1719-13.941-24.17 14.236-24.721 93.112 0.2939 33.464-57.69z"/>
            <path d="m362.89-628.24 244.41 0.012-27.622 48.897-65.562-0.1817 32.559 56.737-13.961 24.158-28.527 0.032-46.301-80.784-66.693-0.1353z"/>
            <path d="m505.14-720.99-122.2-211.68 56.157-0.5268 32.624 56.869 32.856-56.565 27.902 0.011 14.291 24.69-46.81 80.49 33.229 57.826z"/>
          </g>
          <g fill="#5277c3">
            <path d="m309.4-710.25 122.2 211.68-56.157 0.5268-32.624-56.869-32.856 56.565-27.902-0.011-14.291-24.69 46.81-80.49-33.229-57.826z"/>
            <path d="m451.34-803.53-244.41-0.012 27.622-48.897 65.562 0.18175-32.559-56.737 13.961-24.159 28.527-0.0315 46.301 80.784 66.693 0.13524z"/>
            <path d="m460.87-633.84 122.22-211.66 28.535 48.37-32.938 56.688 65.415 0.1718 13.941 24.17-14.236 24.721-93.112-0.294-33.464 57.69z"/>
          </g>
        </g>
      </g>
    </g>
  </g>
  <g transform="matrix(.052391 0 0 .052391 63.446 100.28)">
    <g transform="translate(-132.58 958.04)">
      <g id="nixos-text" fill="#fff">
        <g aria-label="Nix">
          <path d="m969.15-847.12h-30.818v139.86c0 19.755 0.79019 50.967 1.9755 85.736h-1.1853c-15.409-28.842-32.793-56.499-45.041-75.463l-96.799-150.14h-42.275v267.88h30.818v-139.86c0-19.755-0.79019-56.894-1.9755-91.267h1.1853c22.916 39.905 36.349 62.03 48.992 80.995l96.799 150.14h38.324z"/>
          <path d="m1027.8-579.24h33.188v-191.23h-33.188zm16.594-219.28c11.458 0 20.545-9.0872 20.545-20.545s-9.0873-20.545-20.545-20.545-20.545 9.0872-20.545 20.545 9.0872 20.545 20.545 20.545z"/>
          <path d="m1267.8-770.47h-37.929l-46.621 70.327h-1.1853l-45.041-70.327h-41.09l68.352 93.243v1.1853l-70.722 96.799h37.929l49.782-75.859h1.1853l49.782 75.859h41.09l-72.303-98.379v-1.1853z"/>
        </g>
        <g transform="scale(.95067 1.0519)" aria-label="O">
          <path d="m1468.6-800.8c-66.148 0-120.54 48.141-120.54 128.25s54.388 128.25 120.54 128.25 120.54-48.141 120.54-128.25-54.388-128.25-120.54-128.25zm0 24.989c49.243 0 86.727 36.749 86.727 103.26s-37.484 103.26-86.727 103.26-86.727-36.749-86.727-103.26 37.484-103.26 86.727-103.26z" fill="#fff"/>
        </g>
        <g aria-label="S">
          <path d="m1523.8-773.89c0 37.109 19.328 57.21 64.168 75.378 34.403 13.916 48.319 26.286 48.319 51.798 0 30.924-25.126 46.387-58.37 46.387-17.395 0-37.109-2.7059-58.756-10.05l-3.479 26.672c18.941 6.958 39.815 9.6639 60.689 9.6639 51.798 0 95.092-26.286 95.092-79.244 0-36.723-22.42-54.504-67.647-72.672-30.151-11.983-44.84-24.74-44.84-51.412 0-25.899 22.42-40.202 50.639-40.202 16.622 0 34.79 4.2521 47.546 9.2773l3.479-26.286c-14.689-6.1849-32.857-9.2773-52.958-9.2773-47.546 0-83.882 27.445-83.882 69.966z" fill="#fff"/>
        </g>
      </g>
    </g>
  </g>
</svg>
