<svg width="320" height="320" viewBox="0 0 320 320" fill="none" xmlns="http://www.w3.org/2000/svg">
<g clip-path="url(#clip0_10_2)">
<path d="M145.5 244L144 241.5V238L145.5 191H209L208 219.5V238L209 279L208 280.5L212.5 285L214.5 291.5V295.5L218 298.5L220 303H154L154.5 297.5L151.5 293L160.5 275.5L143 244H145.5Z" fill="#22241D"/>
<path d="M145.5 244L144 241.5V238L144.59 219.5H208V238L209 279L208 280.5L212.5 285L214.5 291.5V295.5L218 298.5L230.5 320H163L154.5 297.5L151.5 293L160.5 275.5L143 244H145.5Z" fill="#3F3D28"/>
<path d="M145.5 244L144 241.5V238L151.5 241.5L164 230.5L193 217L189 230.5V244L184.5 248L178 249.5L171.5 251.5L168 248L164 249.5V252.5L168 255L171.5 264L176.5 271.5L181.5 278.5L190.5 285H193L195.5 295.5L200 298.5L203 303L202 305.5L204 307.5L208 312.5V320.5H160.5L158.5 318.5L155.5 316L156.5 311.5L154.5 307.5L154 303L154.5 297.5L151.5 293L160.5 275.5L143 244H145.5Z" fill="#22241D"/>
<path d="M198.5 265L201 267L204 269L205 271L207 273.5H208.5L211 272L212 276.5L213.5 279.5L214.5 283L216 286L218.5 288.5L220 291.5L220.8 293.5L222.5 297L224.5 300L226 304.5L227.5 306.5L229.5 309.5V311.5L230 313.5L231 318L232.5 320H206L206.5 317L207.5 315.5L208.5 315L207.5 313.5V311.5L208.5 309.5L210 306.5L209.5 303L207.5 300L206.5 299L205 296L207 294.5L205 290L208.5 291.5L206 286L204 284.5L201 283V281.5L203 278L199.5 276.5L196 274.5L194.5 272L196 268L198.5 265Z" fill="#959859"/>
<path fill-rule="evenodd" clip-rule="evenodd" d="M126.83 109.427L51.3125 241.07L33.6825 210.987L54.0325 175.73L13.615 175.625L5 160.592L13.7975 145.218L71.33 145.4L92.005 109.52L126.83 109.427ZM132.625 214.662L283.647 214.67L266.58 245.08L226.068 244.967L246.185 280.255L237.56 295.28L219.935 295.3L191.322 245.058L150.115 244.972L132.625 214.662ZM220.525 156.978L145.02 25.3275L179.72 25L199.877 60.37L220.177 25.19L237.42 25.195L246.25 40.5525L217.325 90.6125L237.857 126.578L220.525 156.978Z" fill="#7EBAE4"/>
<path d="M197 196H203L207.5 197.5L211.5 204L210 210.5L211.5 215H209H203L194.5 215.5L186.5 214.5L188 211.5L188.5 208L197 213L193.5 208.5V203.5L197 196Z" fill="#D9D9D9"/>
<path d="M190.5 245L193.5 250.5L190.5 248.5L188 249.5L183.5 248.5H179L172.5 249.5L168 246.5L164.5 245H190.5Z" fill="#D9D9D9"/>
<path fill-rule="evenodd" clip-rule="evenodd" d="M99.5774 163.658L175.082 295.308L140.382 295.635L120.225 260.265L99.9249 295.445L82.6824 295.44L73.8524 280.083L102.777 230.023L82.2449 194.058L99.5774 163.658ZM187.277 105.64L36.2549 105.633L53.3249 75.225L93.8349 75.3375L73.7174 40.05L82.3424 25.025L99.9699 25L128.58 75.2425L169.79 75.3275L187.277 105.64ZM193.17 211.18L268.687 79.535L286.317 109.62L265.965 144.875L306.385 144.983L315 160.015L306.202 175.39L248.67 175.208L227.995 211.088L193.17 211.18Z" fill="#5277C3"/>
<path d="M95 18L96 15.5L94 0H154.5L156.5 3.5L159.5 13L162.5 15.5L164.5 21.5L174.5 30.5L179 46V54L182.5 57.5L180.5 59V63.5L183.5 75L182.5 77.5L186.5 83.5L184.5 88L185.5 94.5L186.5 98L188 94.5L193.5 92.5L194 94L195 94.5L194.5 98V101.5L193.5 105L194.5 107.5V110L198.5 113V117L203 125L207 133.5L223 160L203 195.5H148.7V191.5V129L118 81V77L119 71.5L116.5 65.5L116 62L113.5 59.5L112 56.5L111.5 53L108.5 52L107 50L108 48H109.5L108 46L105 42L102 36L101 31L98.5 27L95 18Z" fill="#3F3D28"/>
<path d="M95 18L96 15.5L94 0L129.5 4.5L136.5 15.5V18L142.5 20L144 25L146.5 28L148.7 34.5L148.033 36.5L149 41.5V45.5L148.033 46.5L149.5 49.5L148.033 53L148.7 56.5L153 77L160 92.5L166 101.5L160 117L148.7 129L118 81V77L119 71.5L116.5 65.5L116 62L113.5 59.5L112 56.5L111.5 53L108.5 52L107 50L108 48H109.5L108 46L105 42L102 36L101 31L98.5 27L95 18Z" fill="#22241D"/>
<path d="M185.5 104L186 102.5L185 99.5L186.5 98L188 94.5L193.5 92.5L194 94L195 94.5L194.5 98V101.5L193.5 105L194.5 107.5V110L198.5 113V117L203 125L207 133.5L213.5 141.5L188 136.5L183.5 121.5L186.5 118L185.5 115.5L186 113L183.5 109L185 108L186 106.5L185.5 104Z" fill="#706E48"/>
<path d="M147.841 55.8686L151.023 52.6548L155.867 53.1593L157.909 55.1446L162.007 55.8245L166.274 60.5738L167.922 67.5826L167.908 70.8731L163.614 72.7049L160.628 73.4069L157.277 72.5515L157.08 75.0632L160.981 78.255L162.643 81.9733L161.883 85.4393L166.53 88.4556L169.305 93.5558L172.826 98.4806L172.432 103.504L175.783 104.36L176.15 105.917L175.023 107.826L174 110.359L171.475 109.482L167.743 110.359L163.265 111.413L162.35 107.519L159.181 107.442L156.97 101.387L154.928 99.4022L155.322 94.3787L158.307 93.6767L157.391 89.7829L156.842 87.4466L153.674 87.3699L150.139 85.7356L148.843 83.5749L149.786 80.8876L151.476 78.0248L152.236 74.5588L150.011 71.7948L144.984 70.5115L145.377 65.488L147.25 63.4039L147.841 55.8686Z" fill="#989E7D"/>
<path d="M63.5 82L67.5 78.5L71.5 75.5L78 72.5L83 72L88.5 71H92.5L95.5 70V72.5L101.5 73L105 74.5L112.5 77.5L122 83.5L129 88L137.5 93.5L169 106.5L181.5 118.5L223.5 146L234 155L244.5 162.5L254.5 170.5L267.5 173L278 174.5L286.5 175.5L290.5 176L289 178L289.5 179V180.5H292V184L289.5 185.5L287 186L284 187.5L285.5 188.5L286 189.5L285 191L284 192L284.5 192.5V193.5L284 194L282.5 195L278 195.5L274 196.5L265 195.5L251.5 192L238.5 188.5L222 192L199.5 196L193.5 200L188 202L185 206L182.5 210.5L177.5 211.5L176 217L166.5 219L157 217L150.5 215.5L154.5 218.5L156.5 221L148 219V221L144 223L137.5 221L131 217.5L122 211.5L130.5 219L131.5 221L126.5 218L119.5 213H118L115 210.5L109.5 206.5L112.5 210.5L112 211.5L107 206.5L102.5 204.5L99.5 202L95 200V201L91 199L83.5 191L76 181L72.5 175L67.5 168.5L65 166.5L63.5 161.5L61.5 152.5L60.5 145L58 135.5V126.5L56.5 124.5L57.5 118L56 109.5L56.5 100L44.5 92.5L29 83.5L28 82.5H36L51 84.5L57.5 85L59.5 84L63.5 82Z" fill="#B69832"/>
<path d="M95.5 70L92.5 71H88.5L83 72L78 72.5L71.5 75.5L67.5 78.5L63.5 82L59.5 84L57.5 85L51 84.5L36 82.5H28L29 83.5L44.5 92.5L56.5 100L56 109.5L57.5 118L56.5 124.5L58 126.5V135.5L60.5 145L61.5 152.5L63 160L63.5 160.5L65 153L67.5 146L71 143L78 138.5L129 124.5L181.5 118.5L169 106.5L137.5 93.5L129 88L122 83.5L112.5 77.5L105 74.5L101.5 73L95.5 72.5V70Z" fill="#F9DB4D"/>
<path d="M67.5 104L72 111.5L78.5 117L81 125L83.25 134.5L78.5 139L72 140.5L70.5 144L68 146L66.5 150L65.5 156.5L64 163L61 152.5L60 145.5L58 136V127L56.5 124L57.5 117L55.5 109.5L56.5 106V100H62L65.5 102.5L67.5 104Z" fill="#EDC234"/>
<path d="M67.5 104L72 111.5L78.5 117L81 125L83.25 134.5L78.5 139L72 140.5L112.5 131L124 114L110 107.5L97.5 102.5L89.5 92.5L81 90L63 92.5L60 95L56.5 100H62L65.5 102.5L67.5 104Z" fill="#F2CD55"/>
<path d="M76.5 89.5L83 88L89.5 89.5L94.5 92L89.5 93L83 91H76.5L70 93L66 95L63 93L65 92L68.5 89.5H76.5Z" fill="#EDA634"/>
<path d="M94 156L91.5 160H85.5L83 163L78.5 158.5V153.5L76.5 150L74.5 146L73 137.5L77 134.5L84 131L91.5 128L99 125L108.5 121.5L116 117L123 111.5L126 108L129.5 103.5L134 101L137.5 94L147.5 97L160 102L170 107L178.5 114.5L180 117L182.5 119.5H178.5L170.5 118.5L175 121.5L182.5 128L172 125.5L163.5 122.5L160 127L156 131H149.5L150.5 134H147.5L148.5 138.5L142.5 141H137.5L139 136H135.5L131 140L129.5 143.5L126 146H119.5H116V150H111L107 149L108.5 151.5L104 153H100V157L94 156Z" fill="#E2B746"/>
<path d="M114 170.583L176.75 179.25H217L240.5 188.5L235 190.5L228 191L220 192.5L214.5 194.5L207.5 196L201 196.5L193 197.5L183 196.5L177.5 197.5L169.5 196.5L160 197.5L153 196L147 193L141 191.5L136 188.5L130.5 186.5L128 183.5L123 180.583L114 170.583Z" fill="#656133"/>
<path d="M87.5 99.5C87.5 101.985 85.5 104 81 104C77.6863 104 76 102 76 98C76 95.5147 78.5 94 82 94C86 95 87.5 97.0147 87.5 99.5Z" fill="#090504"/>
<path d="M83.5 96.825C83.5 97.1978 83.2391 97.5 82.6522 97.5C82.22 97.5 82 97.2 82 96.6C82 96.2272 82.3261 96 82.7826 96C83.3043 96.15 83.5 96.4522 83.5 96.825Z" fill="#E7E3E3"/>
<path d="M27.799 82.3869L36.9908 82.3869L46.1417 83.7472L54.5 84.5L59 85L63.5 85.8869L62.0758 91.2444L61.4532 93.1687L62.4321 95.6479L65.1151 96.2485L68.8181 98.3548L71.9803 100.438L73.0002 101.944L72.9593 102.918L71.8779 102.872L70.3172 101.344L66.5868 99.8904L64.9647 99.8222L64.8488 102.576L62.2273 100.515L59.5 100.438L56 99.8222L49.5 95.6479L41.5 91L32 85.8869L27.799 82.3869Z" fill="#0C0802"/>
<path d="M44.4999 85.8869L36.9907 82.3868L46.1416 83.7472L54.4999 84.5L58.9999 85L61.4999 85.8869L55.9999 85.8869L56.4999 87.5L52.9999 87L44.4999 85.8869Z" fill="#D9D7D0"/>
<path d="M246.5 179.5L252 177.5L255.5 175.5L256.5 173.5L254.5 170.5L291 175L290.5 176.5L289 178L290 179L289.5 180.5H292.5L292 184.5L289.5 185.5L287 186L286 187L284 187.5L285.5 188.5L286 189.5L284.333 192L285 193L284 194L282.5 195L279 195.5L276.5 196L273.5 196.5L264.5 196L254.5 193L245 190.5L233 186.5L227 184L235.5 181.5L246.5 179.5Z" fill="#21261E"/>
<path d="M248.5 180L254 178L257.5 176L258.5 174L256.5 171L280 173L282.5 176L280 178H274.5L266.5 175.5L270 177L276 182.5L274.5 185.5L270 187L264 187.5L254 191H247L235 187L228.5 184.5L237.5 182L248.5 180Z" fill="#585849"/>
<path d="M248.5 180L254 178L257.5 176V174L255.5 170.5L270 172.149L273 174L271.5 175.5H264V178H258.5L261.5 180L261 183L252 181.5L250.5 184.5L248.5 187H242.5H235L228.5 184.5L237.5 182L248.5 180Z" fill="#70716A"/>
<path d="M139.327 227.467L141.502 226.884L156.068 246.459L172.245 269.87L183.945 283.097L188.5 292.5L198 301L206 314.537L209.5 320L170 320L168 316L173 316L173.5 312L170 304L151.885 289.553L145.265 273.542L137.181 260.768L139.218 250.973L139.791 244.417L141.965 243.834L138.19 238.443L136.412 231.805L139.298 233.878L139.327 227.467Z" fill="#685C35"/>
<path d="M139.328 227.467L141.502 226.884L156.068 246.459L172.245 269.87L183.945 283.097L188.5 292L197 299.463L201.5 306.5L205.5 313.5L211 320.5L189 320.5L191 317L191 313.5L188 306.5L180.5 302.5L174 291L165.5 286L163 275.5L156.068 272.5L147.5 262.5L151.886 262.5L145.265 253.5L141.965 249.5L139.791 244.417L141.965 243.834L138.191 238.443L136.412 231.805L139.298 233.878L139.328 227.467Z" fill="#796D46"/>
<path d="M90 0H154.698L158 6L159.329 12.22L163 15.5L164 20.5L167.665 24.44L175 30.5L175.5 33.84L173.484 36.2612L170.967 37.9133L169.517 33.84L165.812 31.96L163 31L159.329 26.32L156.5 21.62L152.5 18.8L148.5 17.86L145.5 16.5L143 14.5L138.954 12.22L137.5 14L133.5 15.98L130.618 16.92L131 14.5L132 12.22L132.471 11L134 10L132.471 7.52L130.618 7L127.84 7.52L126.5 9L123.209 11.28L122.283 14.5L120.431 15.98L118.5 17L116.726 18.8V20L117 21V23.5L116.5 26L118.472 24.7334L120 23L121.5 19.5L122.5 17.0667L125.062 18.8V21.62L127.5 20L128.766 17.86L130.618 20.2861L131.235 22L132.471 23.5L131.235 25.25L130 27L128.766 29.14L126.5 31L124.5 31.5L122.5 32L120 33.5L117 34V37L116.5 39.5V42.5L115.5 45L113.948 47L112 48H109.5L108.391 47L106.539 44.5L106 43L105.612 41.36L107.5 38.5L109.5 35.5L110 32.5L111 30.5L111.169 28.2V25.38L110.243 23L108.391 21.62L107.698 23.32L107.663 26.32L107.465 28.2L106.5 31.5L106 33.84L104.5 33.5L102.834 32.9L101.5 33.5L101 31.5L98.5 28L98.0277 25.38L96 23.5L95 18.8L96 15.5L94 6L90 0Z" fill="#878C6F"/>
<path d="M147 130.5L150.5 129.5L156 128L159.5 124.5L162 124L163.5 122.5L165 123L167.5 124L173 125.5L178.5 127H180.5L177.5 124.5L171.5 120.5L170.5 118.5L175 119H179L181.5 118.5L184.5 120.5L188 122L193 125L199 128.5L205 132.5L210.5 135L219 141.5L223.5 145.5L225 147L229.5 150L240 158.5L254 169L257.5 173L255.5 176L251 179L244 180L231.5 183L228 185.5L219.5 184L218 184.5L210 183L203 182.5L195.5 183L188.5 183.5H182H171L165.5 182.5L151 182H144.5L133.5 180.5L130 180L112 177.5L101.5 175L96.5 175.5L90.5 174.5L85 173L80.5 170.5L76.5 168L73.5 164L71.5 158.5L70 151V145L71.5 141V139.5L73.5 137L74 141L75 145.5L77.5 152L79 154V156L79.5 159.5L83 162L85 160L88 159.5L91.5 160L92 158.5L94 156L97 156.5H99.5V153.5L100.5 153H104L107 152L108 151L107 149H111.5L114 148.5L115.5 145L122 145.5L125.5 145L129 143.5V140L130 137.5H132L133.5 136L137 135.5L139 136L138.5 137.5L139 140L142 139L146.5 137.5V134L147 130.5Z" fill="#21261E"/>
<path d="M147 130.5L150.5 129.5L156 128L159.5 124.5L162 124L163.5 122.5L165 123L167.5 124L173 125.5L178.5 127H180.5L177.5 124.5L171.5 120.5L170.5 118.5L175 119H179L181.5 118.5L184.5 120.5L188 122L193 125L199 128.5L205 132.5L210.5 135L219 141.5L223.5 145.5L225 147L229.5 150L223.5 153.5L219 160L199 168L171.5 164L147 168H129H111.5L101.5 175L96.5 175.5L90.5 174.5L85 173L80.5 170.5L76.5 168L73.5 164L71.5 158.5L70 151V145L71.5 141V139.5L73.5 137L74 141L75 145.5L77.5 152L79 154V156L79.5 159.5L83 162L85 160L88 159.5L91.5 160L92 158.5L94 156L97 156.5H99.5V153.5L100.5 153H104L107 152L108 151L107 149H111.5L114 148.5L115.5 145L122 145.5L125.5 145L129 143.5V140L130 137.5H132L133.5 136L137 135.5L139 136L138.5 137.5L139 140L142 139L146.5 137.5V134L147 130.5Z" fill="#5B6057"/>
<path d="M147 130.5L150.5 129.5L156 128L159.5 124.5L162 124L163.5 122.5L165 123L167.5 124L173 125.5L178.5 127H180.5L177.5 124.5L171.5 120.5L170.5 118.5L175 119H179L181.5 118.5L184.5 120.5L188 122L193 125L199 128.5L205 132.5L210.5 135L219 141.5L223.5 145.5L225 147L229.5 150L228 151.5L223.5 153.5L222 157.5L219 160L214 161L209.5 165L201.5 167H191.5L190.5 168L183.5 167L171.5 164L163.5 165L157 169.5L146.5 170.5L134.5 172.5L125.5 173L115.5 174.5L108 177L101.5 175L96.5 175.5L90.5 174.5L85 173L80.5 170.5L76.5 168L73.5 164L71.5 158.5L70 151V145L71.5 141V139.5L73.5 137L74 141L75 145.5L77.5 152L79 154V156L79.5 159.5L83 162L85 160L88 159.5L91.5 160L92 158.5L94 156L97 156.5H99.5V153.5L100.5 153H104L107 152L108 151L107 149H111.5L114 148.5L115.5 145L122 145.5L125.5 145L129 143.5V140L130 137.5H132L133.5 136L137 135.5L139 136L138.5 137.5L139 140L142 139L146.5 137.5V134L147 130.5Z" fill="#5B6057"/>
<path d="M147 130.5L150.5 129.5L156 128L159.5 124.5L162 124L163.5 122.5L165 123L167.5 124L173 125.5L178.5 127H180.5L177.5 124.5L171.5 120.5L170.5 118.5L175 119H179L181.5 118.5L184.5 120.5L188 122L193 125L199 128.5L205 132.5L202 135.5H199L194.5 137.5L195.5 140.5L197 145.5L194.5 148.5H188L183 147L176.5 146L173 145H168L163.5 145.5L160 150L153.5 153.5L148 159L142 161L125.5 163L108 168L102 170.5L98.5 170L95 169L91.5 168L87 166.5L81.5 168L77.5 166.5L75 164L74 158.5L71.5 155L70 151V145L71.5 141V139.5L73.5 137L74 141L75 145.5L77.5 152L79 154V156L79.5 159.5L83 162L85 160L88 159.5L91.5 160L92 158.5L94 156L97 156.5H99.5V153.5L100.5 153H104L107 152L108 151L107 149H111.5L114 148.5L115.5 145L122 145.5L125.5 145L129 143.5V140L130 137.5H132L133.5 136L137 135.5L139 136L138.5 137.5L139 140L142 139L146.5 137.5V134L147 130.5Z" fill="#A1A07B"/>
<path d="M199 135.5H202L205 132.5L199 128.5L193 125L188 122L184.5 120.5L181.5 118.5L179 119H175L170.5 118.5L171.5 120.5L177.5 124.5L180.5 127H178.5L173 125.5L167.5 124L165 123L163.5 122.5L162 124L159.5 124.5L156 128L150.5 129.5L147 130.5L146.5 134V137.5L142 139L139 140L143.5 141.5L148.5 143L155 145.5L159.5 146L163.5 145.5L168 145H173L176.5 146L183 147L188 148.5H194.5L197 145.5L195.5 140.5L194.5 137.5L199 135.5Z" fill="#B7B5AC"/>
<path d="M224 163.5L228 165.5L232.5 167.824L236.5 168.5L240 170.5L242 174L247.5 179L244.5 177L241.25 175.25L238 173.5L234 171.5L230 170.5L226.5 167.5L224 163.5Z" fill="#70716A"/>
</g>
<defs>
<clipPath id="clip0_10_2">
<rect width="320" height="320" fill="white"/>
</clipPath>
</defs>
</svg>
