#define nix-snowflake_width 14
#define nix-snowflake_height 16
static char nix-snowflake_bits[] = {
  0x40, 0x00, 0xC8, 0x04, 0xF8, 0x06, 0xB1, 0x26, 0xF7, 0x3F, 0xFE, 0x1F, 
  0x1E, 0x0E, 0x1F, 0x36, 0x1B, 0x3E, 0x14, 0x16, 0xFE, 0x1F, 0xFF, 0x3B, 
  0xD9, 0x23, 0xD8, 0x07, 0xC8, 0x04, 0xC0, 0x00, };
