<!-- Created with Inkscape (http://www.inkscape.org/) -->
<svg xmlns:rdf="http://www.w3.org/1999/02/22-rdf-syntax-ns#" xmlns="http://www.w3.org/2000/svg" height="256.39" width="224.31" version="1.1" xmlns:cc="http://creativecommons.org/ns#" xmlns:dc="http://purl.org/dc/elements/1.1/">
 <metadata>
  <rdf:RDF>
   <cc:Work rdf:about="">
    <dc:format>image/svg+xml</dc:format>
    <dc:type rdf:resource="http://purl.org/dc/dcmitype/StillImage"/>
    <dc:title/>
   </cc:Work>
  </rdf:RDF>
 </metadata>
 <g transform="translate(-177.13272,-249.8806)">
  <g transform="translate(-70.714312,-125.71429)">
   <path style="baseline-shift:baseline;block-progression:tb;fill:#8080ff;color:#000000;direction:ltr;text-indent:0;text-align:start;enable-background:accumulate;text-transform:none;" d="m314.33,477.47-2.0312,1.1875a6.8468,6.8468,0,0,1,-2.5312,1.4688l-9.125,5.2812v44.781l-49.094,28.375a6.8468,6.8468,0,1,0,6.8438,11.844l42.25-24.375v48.781a6.8468,6.8468,0,0,0,0,0.65625,6.8468,6.8468,0,0,0,0,0.0312,6.8468,6.8468,0,0,0,13.656,0.375,6.8468,6.8468,0,0,0,0.0312,-0.46875,6.8468,6.8468,0,0,0,0,-0.0625,6.8468,6.8468,0,0,0,0,-0.53125v-59.594a6.8468,6.8468,0,0,0,0,-2.1875v-55.562z"/>
   <path style="baseline-shift:baseline;block-progression:tb;fill:#4040c0;color:#000000;direction:ltr;text-indent:0;text-align:start;enable-background:accumulate;text-transform:none;" d="m254.42,436.31a6.8468,6.8468,0,0,0,-2.875,12.812l22.562,13.031,19.688,11.375-42.25,24.375a6.853,6.853,0,1,0,6.8438,11.875l51.375-29.656a6.8468,6.8468,0,0,0,2.5312,-1.4688l47.688-27.562-13.656-7.875-38.844,22.406-26.5-15.344-22.594-13a6.8468,6.8468,0,0,0,-3.9688,-0.96875z"/>
   <path style="baseline-shift:baseline;block-progression:tb;fill:#8080ff;color:#000000;direction:ltr;text-indent:0;text-align:start;enable-background:accumulate;text-transform:none;" d="m359.89,375.6a6.8468,6.8468,0,0,0,-6.75,6.9687v32.375,16.375l-42.219-24.375a6.8468,6.8468,0,0,0,-3.9375,-0.9375,6.8468,6.8468,0,0,0,-2.9375,12.812l101.62,58.656v-2.3125a6.8468,6.8468,0,0,1,0,-3v-10.5l-38.812-22.406v-24.312-32.375a6.8468,6.8468,0,0,0,-6.9688,-6.9688z"/>
   <path style="baseline-shift:baseline;block-progression:tb;fill:#4040c0;color:#000000;direction:ltr;text-indent:0;text-align:start;enable-background:accumulate;text-transform:none;" d="m412.39,405.91a6.8468,6.8468,0,0,0,-6.7188,6.9687v59.281a6.8468,6.8468,0,0,0,0,3v55.031l2.5-1.4375a6.8468,6.8468,0,0,1,0.0625,-0.0312,6.8468,6.8468,0,0,1,1.6875,-0.96875l0.0937-0.0312,9.3438-5.4062v-44.844l49.094-28.344a6.8468,6.8468,0,0,0,-3.7812,-12.812,6.8468,6.8468,0,0,0,-3.0625,0.96875l-42.25,24.375v-48.781a6.8468,6.8468,0,0,0,-6.9688,-6.9688z"/>
   <path style="baseline-shift:baseline;block-progression:tb;fill:#8080ff;color:#000000;direction:ltr;text-indent:0;text-align:start;enable-background:accumulate;text-transform:none;" d="m464.64,496.94a6.8468,6.8468,0,0,0,-3.0312,0.96875l-51.594,29.812-0.0937,0.0312a6.8468,6.8468,0,0,0,-1.6875,0.96875,6.8468,6.8468,0,0,0,-0.0625,0.0312l-48.156,27.813,2.5312,1.4688a6.8468,6.8468,0,0,1,1.5625,0.90625l9.5938,5.5312,38.812-22.406,49.094,28.344a6.8468,6.8468,0,1,0,6.8438,-11.844l-42.219-24.406,42.219-24.375a6.8468,6.8468,0,0,0,-3.125,-12.844,6.8468,6.8468,0,0,0,-0.6875,0z"/>
   <path style="baseline-shift:baseline;block-progression:tb;fill:#4040c0;color:#000000;direction:ltr;text-indent:0;text-align:start;enable-background:accumulate;text-transform:none;" d="m314.33,530.19,0,2.8437a6.8468,6.8468,0,0,1,0,2.1875v10.812l38.812,22.406v56.688a6.8594,6.8594,0,0,0,13.719,0v-48.781l42.219,24.375a6.8473,6.8473,0,1,0,6.875,-11.844l-51.844-29.938a6.8468,6.8468,0,0,0,-1.5625,-0.90625l-48.219-27.844z"/>
  </g>
 </g>
</svg>
