<svg xmlns="http://www.w3.org/2000/svg" width="535" height="535" viewBox="0 0 501.56 501.56">
  <path fill="#5bcefa" d="m206.44 337.94 244.41.01-27.62 48.9-65.56-.19 32.55 56.74-13.96 24.16-28.52.03-46.3-80.78-66.7-.14Z"/>
  <path fill="#fff" d="m153.12 255.92 122.2 211.67-56.16.53-32.63-56.87-32.85 56.57-27.9-.01-14.3-24.7 46.81-80.48-33.23-57.83Z"/>
  <path fill="#f5a9b8" d="M197.22 168.73 75 380.39l-28.53-48.37 32.94-56.69-65.42-.17L.05 251l14.24-24.72 93.1.3 33.47-57.7Z"/>
  <path fill="#fff" d="M348.86 245.18 226.66 33.51l56.16-.53 32.62 56.87 32.86-56.57 27.9.02 14.29 24.68-46.81 80.5 33.23 57.82Z"/>
  <path fill="#5bcefa" d="m294.87 162.69-244.42-.01 27.63-48.9 65.56.18-32.56-56.74 13.96-24.16 28.53-.03 46.3 80.79 66.7.13Z"/>
  <path fill="#f5a9b8" d="M304.47 332.34 426.7 120.68l28.54 48.37-32.94 56.68 65.41.18 13.94 24.17-14.23 24.72-93.11-.3-33.47 57.7Z"/>
</svg>
