/* XPM */
static char *nix_snowflake[] = {
/* columns rows colors chars-per-pixel */
"14 16 13 1 ",
"  c #4040BF",
". c #3F3FC0",
"X c #4040C0",
"o c #4141C0",
"O c #4040C1",
"+ c #4444C3",
"@ c #4545C5",
"# c #5A5AD9",
"$ c #6666E6",
"% c #7272F2",
"& c #7A7AFA",
"* c #8080FF",
"= c None",
/* pixels */
"==============",
"==============",
"====*=====X===",
"=====**===X===",
"XX====$*==X=X.",
"==X XX==*%XX==",
"==X@======X===",
"XX=*======X===",
"===*======X=*=",
"===*======&*==",
"==**+X==****==",
"**=*==X#====**",
"===*===XX=====",
"===*=====X.===",
"==============",
"=============="
};
