<?xml version="1.0" encoding="UTF-8" standalone="no"?>
<!-- Created with Inkscape (http://www.inkscape.org/) -->

<svg
   width="210mm"
   height="297mm"
   viewBox="0 0 210 297"
   version="1.1"
   id="svg5898"
   xml:space="preserve"
   inkscape:version="1.2.1 (9c6d41e410, 2022-07-14, custom)"
   sodipodi:docname="front_design.svg"
   inkscape:export-filename="front_pixel.png"
   inkscape:export-xdpi="200"
   inkscape:export-ydpi="200"
   xmlns:inkscape="http://www.inkscape.org/namespaces/inkscape"
   xmlns:sodipodi="http://sodipodi.sourceforge.net/DTD/sodipodi-0.dtd"
   xmlns:xlink="http://www.w3.org/1999/xlink"
   xmlns="http://www.w3.org/2000/svg"
   xmlns:svg="http://www.w3.org/2000/svg"><sodipodi:namedview
     id="namedview5900"
     pagecolor="#505050"
     bordercolor="#eeeeee"
     borderopacity="1"
     inkscape:showpageshadow="0"
     inkscape:pageopacity="0"
     inkscape:pagecheckerboard="0"
     inkscape:deskcolor="#505050"
     inkscape:document-units="mm"
     showgrid="false"
     inkscape:zoom="0.41890167"
     inkscape:cx="469.08383"
     inkscape:cy="885.64937"
     inkscape:window-width="1920"
     inkscape:window-height="988"
     inkscape:window-x="0"
     inkscape:window-y="25"
     inkscape:window-maximized="1"
     inkscape:current-layer="layer1" /><defs
     id="defs5895"><linearGradient
       inkscape:collect="always"
       id="linearGradient9358"><stop
         style="stop-color:#4fff99;stop-opacity:1;"
         offset="0"
         id="stop9354" /><stop
         style="stop-color:#05b4e6;stop-opacity:1;"
         offset="0.5"
         id="stop9360" /><stop
         style="stop-color:#570cb1;stop-opacity:1;"
         offset="1"
         id="stop9356" /></linearGradient><linearGradient
       inkscape:collect="always"
       xlink:href="#linearGradient9358"
       id="linearGradient6975"
       x1="47.569996"
       y1="75.280991"
       x2="146.17406"
       y2="132.89725"
       gradientUnits="userSpaceOnUse"
       gradientTransform="translate(-0.31450277,0.3020144)" /></defs><g
     inkscape:label="Layer 1"
     inkscape:groupmode="layer"
     id="layer1"><rect
       style="fill:#000000;stroke:none;stroke-width:1.88724;stroke-linecap:round;stroke-linejoin:bevel;stroke-opacity:1"
       id="rect9030"
       width="210"
       height="297"
       x="0"
       y="0" /><path
       id="path4861"
       style="color:#000000;clip-rule:nonzero;display:inline;overflow:visible;visibility:visible;isolation:auto;mix-blend-mode:normal;color-interpolation:sRGB;color-interpolation-filters:linearRGB;solid-color:#000000;solid-opacity:1;fill:url(#linearGradient6975);fill-opacity:1;fill-rule:evenodd;stroke:none;stroke-width:2;stroke-linecap:butt;stroke-linejoin:round;stroke-miterlimit:4;stroke-dasharray:none;stroke-dashoffset:0;stroke-opacity:1;color-rendering:auto;image-rendering:auto;shape-rendering:auto;text-rendering:auto;enable-background:accumulate"
       d="m 146.728,14.713584 -1.71655,0.002 -0.84019,1.45364 1.95959,3.41425 -3.94566,-0.0107 -1.66203,2.94243 14.70811,5.1e-4 -1.70331,-2.93276 -4.01343,-0.008 z m 7.76701,0 -3.37909,0.0316 7.35329,12.73782 1.68802,-2.94142 -1.99933,-3.47997 2.81659,-4.84343 -0.85955,-1.48574 -1.67935,-10e-4 -1.97741,3.40406 z m 24.67265,0 -1.96316,3.42189 -1.97741,-3.40406 -1.67885,0.001 -0.86005,1.48574 2.8171,4.84343 -1.99984,3.47997 1.68802,2.94142 7.35379,-12.73782 z m 7.767,0 -2.786,4.86126 -4.01343,0.008 -1.70382,2.93276 14.70862,-5.1e-4 -1.66254,-2.94244 -3.94515,0.0107 1.95957,-3.41424 -0.84018,-1.45364 z m -23.77486,5.27651 -7.35483,12.73731 3.39182,-0.009 2.01361,-3.47182 5.6031,0.0178 0.0179,-0.0311 0.0179,0.0311 5.60309,-0.0178 2.01411,3.47182 3.39133,0.009 -7.35483,-12.73731 -1.71705,2.91085 1.982,3.41119 -3.9365,0.0102 -3.93648,-0.0102 1.98199,-3.41119 z m -13.81545,2.89251 -3.39183,0.009 -2.01359,3.47182 -5.60312,-0.0178 -0.85699,1.48777 0.83917,1.45415 3.93649,0.0107 -1.982,3.41119 1.71705,2.91085 z m 34.97449,0 7.35481,12.73731 1.71705,-2.91085 -1.982,-3.41119 3.9365,-0.0107 0.83866,-1.45415 -0.85649,-1.48777 -5.60362,0.0178 -2.0136,-3.47182 z m -37.62854,5.24696 -1.68853,2.94142 1.99984,3.47997 -2.8171,4.84343 7.3538,12.73833 1.68802,-2.94142 -1.99984,-3.47997 2.8171,-4.84394 z m 40.28258,0 -7.35379,12.73782 3.3796,0.0316 1.96315,-3.42189 1.97741,3.40405 1.67885,-9.9e-4 0.86006,-1.48574 -2.8171,-4.84343 1.99985,-3.47997 z m -37.0645,4.93514 1.7033,2.93225 4.01394,0.008 2.78602,4.86177 1.71654,-0.002 0.84019,-1.45364 -1.95907,-3.41425 3.94516,0.0107 1.66253,-2.94243 z m 33.84592,0 -14.70811,5.1e-4 1.66203,2.94244 3.94567,-0.0107 -1.95959,3.41424 0.84018,1.45364 1.71655,0.002 2.78653,-4.86177 4.01344,-0.008 z m -35.05346,4.41238 1.94277,3.38622 -1.11634,1.92188 -1.94227,-3.38622 z m -33.45563,1.88571 -1.96315,3.42239 -1.97742,-3.40405 -1.67884,5.1e-4 -0.86006,1.48574 2.81659,4.84394 -1.99933,3.47997 1.68802,2.94142 7.35379,-12.73833 z m 7.767,0 -2.78651,4.86177 -4.01343,0.008 -1.7033,2.93275 14.70861,-0.001 -1.66254,-2.94243 -3.94515,0.0112 1.95907,-3.41476 -0.84019,-1.45364 z m 16.78489,0 -1.71655,0.002 -0.84018,1.45364 1.95907,3.41475 -3.94516,-0.0112 -1.66253,2.94244 14.70861,0.001 -1.7033,-2.93276 -4.01343,-0.008 z m -33.21666,5.27651 -1.71706,2.91085 1.982,3.4117 -3.9365,0.0102 -0.83916,1.45465 0.85701,1.48727 5.6031,-0.0173 2.01359,3.47131 3.39183,0.009 z m 49.64845,0 -7.35482,12.73782 3.39131,-0.009 2.01411,-3.47131 5.60312,0.0173 0.85699,-1.48727 -0.83916,-1.45466 -3.9365,-0.0102 1.982,-3.41169 z m -35.83301,2.89251 7.35481,12.7373 1.71706,-2.91084 -1.982,-3.41119 3.90134,-0.0102 3.93648,0.0102 -1.9825,3.41119 1.71756,2.91084 7.35482,-12.7373 -3.39182,0.009 -2.0136,3.47181 -5.60363,-0.0178 -5.6031,0.0178 -2.0136,-3.47181 z m 2.65455,5.24696 -7.35379,12.73833 3.3796,0.0316 1.96315,-3.4224 1.97691,3.40405 1.67935,-5.1e-4 0.86006,-1.48574 -2.8171,-4.84393 1.99984,-3.47997 z m 16.70845,0 -1.68802,2.94142 1.99984,3.47997 -2.8171,4.84393 7.35381,12.73782 1.68801,-2.94141 -1.99984,-3.47998 2.8171,-4.84342 z m -19.92703,4.93514 -14.70861,5.1e-4 -2.78603,4.86177 -4.01343,0.008 -1.7033,2.93275 14.70811,-10e-4 2.78652,-4.86126 4.01344,-0.008 z m 23.14562,0 1.70331,2.93275 4.01343,0.008 2.78653,4.86126 1.71655,-0.001 0.84018,-1.45415 -1.95907,-3.41424 3.94516,0.0107 1.66202,-2.94244 z m -78.060915,5.1e-4 -1.716548,0.002 -0.840186,1.45364 1.959585,3.41475 -3.945667,-0.0112 -1.66203,2.94244 14.708104,0.001 -1.703301,-2.93276 -4.013431,-0.008 z m 7.767014,0 -3.379089,0.0316 7.353287,12.73832 1.688525,-2.94141 -1.999838,-3.47997 2.817097,-4.84394 -0.860058,-1.48574 -1.679353,-5.1e-4 -1.97691,3.40405 z m 24.672651,0 -1.96316,3.42239 -1.976913,-3.40405 -1.67935,5.1e-4 -0.86006,1.48574 2.8171,4.84394 -1.99984,3.47997 1.68853,2.94141 7.353283,-12.73832 z m 13.37471,2.93173 -1.10616,1.92749 -3.90388,0.0112 1.10666,-1.928 z m 31.039,1.48014 1.94227,3.38622 -1.11583,1.92188 -1.94278,-3.38673 z m -60.421588,0.86464 -7.354817,12.73782 3.391827,-0.009 2.013593,-3.47131 5.603622,0.0173 0.0178,-0.0306 0.0173,0.0306 5.60362,-0.0173 2.0136,3.47131 3.391313,0.009 -7.354813,-12.73782 -1.71706,2.91085 1.98251,3.41169 -3.937,0.0102 -3.9365,-0.0102 1.98251,-3.41169 z m 83.921848,1.02106 -1.96316,3.4224 -1.97741,-3.40405 -1.67885,0.001 -0.86006,1.48574 2.8171,4.84342 -1.99984,3.47998 1.68802,2.94141 7.3538,-12.73782 z m -32.40399,5.1e-4 -1.71706,0.002 -0.84018,1.45365 1.95958,3.41424 -3.94567,-0.0107 -1.66203,2.94243 14.70811,5.1e-4 -1.7033,-2.93275 -4.01344,-0.008 z m 40.17101,0 -2.78653,4.86126 -4.01344,0.008 -1.70329,2.93276 14.70861,-5.1e-4 -1.66254,-2.94244 -3.94516,0.0107 1.95907,-3.41424 -0.84017,-1.45364 z m -105.504306,1.87093 -3.391317,0.009 -2.014104,3.47182 -5.603112,-0.0178 -0.857001,1.48778 0.839168,1.45466 3.936496,0.0102 -1.982005,3.41119 1.717058,2.91085 z m 34.974486,0 7.35481,12.73731 1.71707,-2.91084 -1.98201,-3.41119 3.9365,-0.0102 0.83865,-1.45466 -0.85649,-1.48778 -5.60311,0.0178 -2.0141,-3.47182 z m 46.7906,3.40559 -7.35483,12.73731 3.39132,-0.009 2.0136,-3.47182 5.60362,0.0178 5.60312,-0.0178 2.01359,3.47182 3.39182,0.009 -7.35482,-12.73731 -1.71705,2.91084 1.982,3.41119 -3.90082,0.0102 -3.9365,-0.0102 1.98201,-3.41119 z m -84.419138,1.84138 -1.688016,2.94141 1.999328,3.47998 -2.817096,4.84393 7.353797,12.73782 1.688016,-2.94142 -1.999329,-3.47997 2.816587,-4.84343 z m 40.282588,0 -7.35329,12.73832 3.3791,0.0316 1.96315,-3.42239 1.97741,3.40405 1.67936,-5.1e-4 0.85955,-1.48574 -2.81659,-4.84393 1.99934,-3.47998 z m 30.32059,1.05061 -3.39131,0.009 -2.01411,3.47131 -5.60311,-0.0173 -0.85649,1.48727 0.83866,1.45466 3.9365,0.0102 -1.982,3.4117 1.71705,2.91084 z m 34.93882,0 7.35482,12.73782 1.71757,-2.91085 -1.98251,-3.41169 3.93649,-0.0102 0.83916,-1.45466 -0.85699,-1.48727 -5.60311,0.0173 -2.0136,-3.47131 z m -102.323916,3.88453 1.70381,2.93275 4.013433,0.008 2.786016,4.86126 1.717057,-0.002 0.840187,-1.45364 -1.959587,-3.41424 3.945158,0.0107 1.662539,-2.94244 z m 33.845926,0 -14.708113,5.1e-4 1.66203,2.94243 3.94566,-0.0107 -1.95958,3.41425 0.84018,1.45364 1.71706,0.002 2.786023,-4.86126 4.01343,-0.008 z m 30.88513,1.36244 -1.68802,2.94192 1.99933,3.47946 -2.81658,4.84394 0.86005,1.48574 1.67885,5.1e-4 1.97742,-3.40355 1.96314,3.42189 3.37909,-0.0316 z m 40.24743,0 -7.3538,12.73832 3.3796,0.0316 1.96315,-3.42189 1.97741,3.40355 1.67885,-5.1e-4 0.86007,-1.48574 -2.8171,-4.84394 1.99984,-3.47946 z m -106.185522,3.04994 1.942263,3.38622 -1.116343,1.92188 -1.942262,-3.38622 z m 69.156682,1.88519 1.7033,2.93276 4.01343,0.008 2.78601,4.86177 1.71707,-0.002 0.84018,-1.45364 -1.95958,-3.41475 3.94566,0.0112 1.66203,-2.94244 z m 33.81025,0 -14.70862,0.001 1.66254,2.94244 3.94515,-0.0112 -1.95907,3.41475 0.84019,1.45365 1.71655,0.002 2.78652,-4.86178 4.01343,-0.008 z m -136.423067,5.1e-4 -1.963152,3.4224 -1.97742,-3.40405 -1.678843,0.001 -0.860058,1.48573 2.817096,4.84343 -1.999838,3.47997 1.688016,2.94142 7.353796,-12.73782 z m 7.767013,5.1e-4 -2.786526,4.86127 -4.013432,0.008 -1.7033,2.93275 14.708614,-5.1e-4 -1.66254,-2.94244 -3.945158,0.0107 1.959076,-3.41424 -0.840186,-1.45364 z m 16.784877,0 -1.716548,0.002 -0.840186,1.45364 1.959077,3.41425 -3.945158,-0.0107 -1.662541,2.94244 14.708615,5e-4 -1.703301,-2.93275 -4.013432,-0.008 z m -33.216663,5.27652 -1.717058,2.91084 1.982004,3.41119 -3.936495,0.0102 -0.839168,1.45466 0.857001,1.48778 5.603112,-0.0178 2.014103,3.471806 3.391317,0.009 z m 49.64845,0 -7.354816,12.737306 3.391826,-0.009 2.013593,-3.471806 5.603112,0.0178 0.857001,-1.48778 -0.839168,-1.45466 -3.936495,-0.0102 1.982004,-3.41118 z m -35.833013,2.89199 7.354816,12.737816 1.717569,-2.91085 -1.982515,-3.411686 3.901339,-0.0102 3.936496,0.0102 -1.982005,3.411686 1.717059,2.91085 7.354816,-12.737816 -3.391827,0.009 -2.013594,3.47131 -5.603112,-0.0173 -5.603621,0.0173 -2.013594,-3.47131 z m 2.654562,5.24696 -7.353797,12.738336 3.379598,0.0316 1.963152,-3.42189 1.977419,3.40356 1.678845,-5.1e-4 0.860057,-1.48574 -2.817095,-4.84343 1.999837,-3.479975 z m 16.708451,0 -1.688015,2.941931 1.999837,3.479975 -2.817095,4.84343 7.353796,12.73832 1.688016,-2.94193 -1.999838,-3.47945 2.817096,-4.84394 z m -19.927043,4.935156 -14.708105,9.9e-4 1.662032,2.94244 3.945157,-0.0112 -1.959077,3.41476 0.840186,1.45364 1.716548,0.002 2.786526,-4.86178 4.013432,-0.008 z m 23.145636,0 1.7033,2.93326 4.013432,0.008 2.786526,4.86178 1.716548,-0.002 0.840186,-1.45364 -1.959077,-3.41476 3.945159,0.0112 1.662539,-2.94244 z m -1.207545,4.41287 1.942771,3.38623 -1.116343,1.92138 -1.942771,-3.38623 z m -8.903736,1.88572 -1.717058,0.002 -0.839677,1.45364 1.959076,3.41425 -3.945157,-0.0107 -1.662541,2.94243 14.708615,10e-4 -1.70381,-2.93327 -4.013432,-0.008 z m 32.439655,0 -1.96315,3.42189 -1.977419,-3.40355 -1.678846,5.1e-4 -0.860056,1.48574 2.816585,4.84394 -1.999327,3.47945 1.688015,2.94193 7.353288,-12.73832 z m 7.76701,0 -2.78652,4.86126 -4.01343,0.008 -1.7033,2.93327 14.708103,-0.001 -1.66203,-2.94243 -3.945163,0.0107 1.95908,-3.41425 -0.84019,-1.45364 z m -23.77488,5.27651 -7.354816,12.73731 3.391318,-0.009 2.014103,-3.47182 5.603111,0.0179 0.01783,-0.0311 0.01784,0.0311 5.603111,-0.0179 2.013596,3.47182 3.391827,0.009 -7.354818,-12.73731 -1.717057,2.91084 1.982003,3.4112 -3.936495,0.0107 -3.936495,-0.0107 1.982004,-3.4112 z m -13.815946,2.89251 -3.391318,0.009 -2.013594,3.47182 -5.603621,-0.0178 -0.856492,1.48778 0.838659,1.45415 3.937005,0.0107 -1.982514,3.41119 1.717057,2.91084 z m 34.974486,0 7.354813,12.7373 1.71706,-2.91084 -1.982,-3.41119 3.93649,-0.0107 0.83917,-1.45415 -0.85701,-1.48778 -5.603103,0.0178 -2.0136,-3.47183 z m -37.628539,5.24695 -1.688015,2.94142 1.999836,3.47998 -2.817094,4.84393 0.860057,1.48574 1.678844,5.2e-4 1.977419,-3.40407 1.963152,3.4224 3.379598,-0.0321 z m 40.282589,0 -7.35329,12.73783 3.3796,0.0321 1.96315,-3.4224 1.97691,3.40407 1.67935,-5.2e-4 0.86006,-1.48573 -2.81709,-4.84394 1.99983,-3.47998 z m -37.063996,4.93515 1.7033,2.93275 4.013432,0.008 2.786526,4.86127 1.716548,-0.002 0.840186,-1.45364 -1.959585,-3.41423 3.945666,0.0107 1.662031,-2.94244 z m 33.845916,0 -14.708618,5e-4 1.66254,2.94244 3.945158,-0.0107 -1.959077,3.41423 0.840187,1.45364 1.716548,0.002 2.786522,-4.86127 4.01343,-0.008 z"
       inkscape:export-filename="front_flake.png"
       inkscape:export-xdpi="200"
       inkscape:export-ydpi="200" /><text
       xml:space="preserve"
       style="font-style:normal;font-weight:normal;font-size:18.506px;line-height:1.25;font-family:sans-serif;letter-spacing:2.06671px;word-spacing:0px;fill:#4fff99;fill-opacity:1;stroke:none;stroke-width:1;stroke-opacity:1;stroke-dasharray:none"
       x="110.84618"
       y="116.82208"
       id="text9034"><tspan
         sodipodi:role="line"
         id="tspan9032"
         style="font-style:normal;font-variant:normal;font-weight:bold;font-stretch:normal;font-family:Vegur;-inkscape-font-specification:'Vegur Bold';fill:#4fff99;fill-opacity:1;stroke-width:1;stroke:none;stroke-opacity:1;stroke-dasharray:none"
         x="110.84618"
         y="116.82208"
         dx="0"
         rotate="0 0 0 0 0 0">NixOS</tspan></text><text
       xml:space="preserve"
       style="font-style:normal;font-variant:normal;font-weight:bold;font-stretch:normal;font-size:10.5833px;line-height:1.25;font-family:Oxanium;-inkscape-font-specification:'Oxanium Bold';letter-spacing:0px;word-spacing:0px;fill:#4fff99;fill-opacity:1;stroke:none;stroke-width:1;stroke-dasharray:none;stroke-opacity:1"
       x="9.8901873"
       y="285.86816"
       id="text1701"><tspan
         sodipodi:role="line"
         id="tspan1699"
         style="font-style:normal;font-variant:normal;font-weight:bold;font-stretch:normal;font-family:Oxanium;-inkscape-font-specification:'Oxanium Bold';fill:#4fff99;fill-opacity:1;stroke:none;stroke-width:1;stroke-dasharray:none;stroke-opacity:1"
         x="9.8901873"
         y="285.86816">betalars@DS22:~$</tspan></text><rect
       style="fill:none;fill-opacity:1;stroke:none;stroke-width:0.1;stroke-linecap:round;stroke-linejoin:bevel;stroke-dasharray:none;stroke-opacity:1"
       id="rect2260"
       width="100.11749"
       height="10.434346"
       x="9.0543165"
       y="277.26434" /><rect
       style="fill:#000000;fill-opacity:0;stroke:none;stroke-width:0.0891374;stroke-linecap:round;stroke-linejoin:bevel;stroke-dasharray:none;stroke-opacity:1"
       id="rect2264"
       width="98.3078"
       height="11.139343"
       x="9.0543165"
       y="277.70023" /></g><g
     inkscape:groupmode="layer"
     id="layer2"
     inkscape:label="schnitt"
     style="display:none"><path
       id="path1298"
       style="color:#000000;clip-rule:nonzero;display:inline;overflow:visible;visibility:visible;isolation:auto;mix-blend-mode:normal;color-interpolation:sRGB;color-interpolation-filters:linearRGB;solid-color:#000000;solid-opacity:1;fill:none;fill-opacity:1;fill-rule:evenodd;stroke:#ff0000;stroke-width:0.180533;stroke-linecap:butt;stroke-linejoin:round;stroke-miterlimit:4;stroke-dasharray:none;stroke-dashoffset:0;stroke-opacity:1;color-rendering:auto;image-rendering:auto;shape-rendering:auto;text-rendering:auto;enable-background:accumulate"
       d="m 146.728,14.713584 -1.71655,0.002 -0.84019,1.45364 1.95959,3.41425 -3.94566,-0.0107 -1.66203,2.94243 14.70811,5.1e-4 -1.70331,-2.93276 -4.01343,-0.008 z m 7.76701,0 -3.37909,0.0316 7.35329,12.73782 1.68802,-2.94142 -1.99933,-3.47997 2.81659,-4.84343 -0.85955,-1.48574 -1.67935,-10e-4 -1.97741,3.40406 z m 24.67265,0 -1.96316,3.42189 -1.97741,-3.40406 -1.67885,0.001 -0.86005,1.48574 2.8171,4.84343 -1.99984,3.47997 1.68802,2.94142 7.35379,-12.73782 z m 7.767,0 -2.786,4.86126 -4.01343,0.008 -1.70382,2.93276 14.70862,-5.1e-4 -1.66254,-2.94244 -3.94515,0.0107 1.95957,-3.41424 -0.84018,-1.45364 z m -23.77486,5.27651 -7.35483,12.73731 3.39182,-0.009 2.01361,-3.47182 5.6031,0.0178 0.0179,-0.0311 0.0179,0.0311 5.60309,-0.0178 2.01411,3.47182 3.39133,0.009 -7.35483,-12.73731 -1.71705,2.91085 1.982,3.41119 -3.9365,0.0102 -3.93648,-0.0102 1.98199,-3.41119 z m -13.81545,2.89251 -3.39183,0.009 -2.01359,3.47182 -5.60312,-0.0178 -0.85699,1.48777 0.83917,1.45415 3.93649,0.0107 -1.982,3.41119 1.71705,2.91085 z m 34.97449,0 7.35481,12.73731 1.71705,-2.91085 -1.982,-3.41119 3.9365,-0.0107 0.83866,-1.45415 -0.85649,-1.48777 -5.60362,0.0178 -2.0136,-3.47182 z m -37.62854,5.24696 -1.68853,2.94142 1.99984,3.47997 -2.8171,4.84343 7.3538,12.73833 1.68802,-2.94142 -1.99984,-3.47997 2.8171,-4.84394 z m 40.28258,0 -7.35379,12.73782 3.3796,0.0316 1.96315,-3.42189 1.97741,3.40405 1.67885,-9.9e-4 0.86006,-1.48574 -2.8171,-4.84343 1.99985,-3.47997 z m -37.0645,4.93514 1.7033,2.93225 4.01394,0.008 2.78602,4.86177 1.71654,-0.002 0.84019,-1.45364 -1.95907,-3.41425 3.94516,0.0107 1.66253,-2.94243 z m 33.84592,0 -14.70811,5.1e-4 1.66203,2.94244 3.94567,-0.0107 -1.95959,3.41424 0.84018,1.45364 1.71655,0.002 2.78653,-4.86177 4.01344,-0.008 z m -35.05346,4.41238 1.94277,3.38622 -1.11634,1.92188 -1.94227,-3.38622 z m -33.45563,1.88571 -1.96315,3.42239 -1.97742,-3.40405 -1.67884,5.1e-4 -0.86006,1.48574 2.81659,4.84394 -1.99933,3.47997 1.68802,2.94142 7.35379,-12.73833 z m 7.767,0 -2.78651,4.86177 -4.01343,0.008 -1.7033,2.93275 14.70861,-0.001 -1.66254,-2.94243 -3.94515,0.0112 1.95907,-3.41476 -0.84019,-1.45364 z m 16.78489,0 -1.71655,0.002 -0.84018,1.45364 1.95907,3.41475 -3.94516,-0.0112 -1.66253,2.94244 14.70861,0.001 -1.7033,-2.93276 -4.01343,-0.008 z m -33.21666,5.27651 -1.71706,2.91085 1.982,3.4117 -3.9365,0.0102 -0.83916,1.45465 0.85701,1.48727 5.6031,-0.0173 2.01359,3.47131 3.39183,0.009 z m 49.64845,0 -7.35482,12.73782 3.39131,-0.009 2.01411,-3.47131 5.60312,0.0173 0.85699,-1.48727 -0.83916,-1.45466 -3.9365,-0.0102 1.982,-3.41169 z m -35.83301,2.89251 7.35481,12.7373 1.71706,-2.91084 -1.982,-3.41119 3.90134,-0.0102 3.93648,0.0102 -1.9825,3.41119 1.71756,2.91084 7.35482,-12.7373 -3.39182,0.009 -2.0136,3.47181 -5.60363,-0.0178 -5.6031,0.0178 -2.0136,-3.47181 z m 2.65455,5.24696 -7.35379,12.73833 3.3796,0.0316 1.96315,-3.4224 1.97691,3.40405 1.67935,-5.1e-4 0.86006,-1.48574 -2.8171,-4.84393 1.99984,-3.47997 z m 16.70845,0 -1.68802,2.94142 1.99984,3.47997 -2.8171,4.84393 7.35381,12.73782 1.68801,-2.94141 -1.99984,-3.47998 2.8171,-4.84342 z m -19.92703,4.93514 -14.70861,5.1e-4 -2.78603,4.86177 -4.01343,0.008 -1.7033,2.93275 14.70811,-10e-4 2.78652,-4.86126 4.01344,-0.008 z m 23.14562,0 1.70331,2.93275 4.01343,0.008 2.78653,4.86126 1.71655,-0.001 0.84018,-1.45415 -1.95907,-3.41424 3.94516,0.0107 1.66202,-2.94244 z m -78.060915,5.1e-4 -1.716548,0.002 -0.840186,1.45364 1.959585,3.41475 -3.945667,-0.0112 -1.66203,2.94244 14.708104,0.001 -1.703301,-2.93276 -4.013431,-0.008 z m 7.767014,0 -3.379089,0.0316 7.353287,12.73832 1.688525,-2.94141 -1.999838,-3.47997 2.817097,-4.84394 -0.860058,-1.48574 -1.679353,-5.1e-4 -1.97691,3.40405 z m 24.672651,0 -1.96316,3.42239 -1.976913,-3.40405 -1.67935,5.1e-4 -0.86006,1.48574 2.8171,4.84394 -1.99984,3.47997 1.68853,2.94141 7.353283,-12.73832 z m 13.37471,2.93173 -1.10616,1.92749 -3.90388,0.0112 1.10666,-1.928 z m 31.039,1.48014 1.94227,3.38622 -1.11583,1.92188 -1.94278,-3.38673 z m -60.421588,0.86464 -7.354817,12.73782 3.391827,-0.009 2.013593,-3.47131 5.603622,0.0173 0.0178,-0.0306 0.0173,0.0306 5.60362,-0.0173 2.0136,3.47131 3.391313,0.009 -7.354813,-12.73782 -1.71706,2.91085 1.98251,3.41169 -3.937,0.0102 -3.9365,-0.0102 1.98251,-3.41169 z m 83.921848,1.02106 -1.96316,3.4224 -1.97741,-3.40405 -1.67885,0.001 -0.86006,1.48574 2.8171,4.84342 -1.99984,3.47998 1.68802,2.94141 7.3538,-12.73782 z m -32.40399,5.1e-4 -1.71706,0.002 -0.84018,1.45365 1.95958,3.41424 -3.94567,-0.0107 -1.66203,2.94243 14.70811,5.1e-4 -1.7033,-2.93275 -4.01344,-0.008 z m 40.17101,0 -2.78653,4.86126 -4.01344,0.008 -1.70329,2.93276 14.70861,-5.1e-4 -1.66254,-2.94244 -3.94516,0.0107 1.95907,-3.41424 -0.84017,-1.45364 z m -105.504306,1.87093 -3.391317,0.009 -2.014104,3.47182 -5.603112,-0.0178 -0.857001,1.48778 0.839168,1.45466 3.936496,0.0102 -1.982005,3.41119 1.717058,2.91085 z m 34.974486,0 7.35481,12.73731 1.71707,-2.91084 -1.98201,-3.41119 3.9365,-0.0102 0.83865,-1.45466 -0.85649,-1.48778 -5.60311,0.0178 -2.0141,-3.47182 z m 46.7906,3.40559 -7.35483,12.73731 3.39132,-0.009 2.0136,-3.47182 5.60362,0.0178 5.60312,-0.0178 2.01359,3.47182 3.39182,0.009 -7.35482,-12.73731 -1.71705,2.91084 1.982,3.41119 -3.90082,0.0102 -3.9365,-0.0102 1.98201,-3.41119 z m -84.419138,1.84138 -1.688016,2.94141 1.999328,3.47998 -2.817096,4.84393 7.353797,12.73782 1.688016,-2.94142 -1.999329,-3.47997 2.816587,-4.84343 z m 40.282588,0 -7.35329,12.73832 3.3791,0.0316 1.96315,-3.42239 1.97741,3.40405 1.67936,-5.1e-4 0.85955,-1.48574 -2.81659,-4.84393 1.99934,-3.47998 z m 30.32059,1.05061 -3.39131,0.009 -2.01411,3.47131 -5.60311,-0.0173 -0.85649,1.48727 0.83866,1.45466 3.9365,0.0102 -1.982,3.4117 1.71705,2.91084 z m 34.93882,0 7.35482,12.73782 1.71757,-2.91085 -1.98251,-3.41169 3.93649,-0.0102 0.83916,-1.45466 -0.85699,-1.48727 -5.60311,0.0173 -2.0136,-3.47131 z m -102.323916,3.88453 1.70381,2.93275 4.013433,0.008 2.786016,4.86126 1.717057,-0.002 0.840187,-1.45364 -1.959587,-3.41424 3.945158,0.0107 1.662539,-2.94244 z m 33.845926,0 -14.708113,5.1e-4 1.66203,2.94243 3.94566,-0.0107 -1.95958,3.41425 0.84018,1.45364 1.71706,0.002 2.786023,-4.86126 4.01343,-0.008 z m 30.88513,1.36244 -1.68802,2.94192 1.99933,3.47946 -2.81658,4.84394 0.86005,1.48574 1.67885,5.1e-4 1.97742,-3.40355 1.96314,3.42189 3.37909,-0.0316 z m 40.24743,0 -7.3538,12.73832 3.3796,0.0316 1.96315,-3.42189 1.97741,3.40355 1.67885,-5.1e-4 0.86007,-1.48574 -2.8171,-4.84394 1.99984,-3.47946 z m -106.185522,3.04994 1.942263,3.38622 -1.116343,1.92188 -1.942262,-3.38622 z m 69.156682,1.88519 1.7033,2.93276 4.01343,0.008 2.78601,4.86177 1.71707,-0.002 0.84018,-1.45364 -1.95958,-3.41475 3.94566,0.0112 1.66203,-2.94244 z m 33.81025,0 -14.70862,0.001 1.66254,2.94244 3.94515,-0.0112 -1.95907,3.41475 0.84019,1.45365 1.71655,0.002 2.78652,-4.86178 4.01343,-0.008 z m -136.423067,5.1e-4 -1.963152,3.4224 -1.97742,-3.40405 -1.678843,0.001 -0.860058,1.48573 2.817096,4.84343 -1.999838,3.47997 1.688016,2.94142 7.353796,-12.73782 z m 7.767013,5.1e-4 -2.786526,4.86127 -4.013432,0.008 -1.7033,2.93275 14.708614,-5.1e-4 -1.66254,-2.94244 -3.945158,0.0107 1.959076,-3.41424 -0.840186,-1.45364 z m 16.784877,0 -1.716548,0.002 -0.840186,1.45364 1.959077,3.41425 -3.945158,-0.0107 -1.662541,2.94244 14.708615,5e-4 -1.703301,-2.93275 -4.013432,-0.008 z m -33.216663,5.27652 -1.717058,2.91084 1.982004,3.41119 -3.936495,0.0102 -0.839168,1.45466 0.857001,1.48778 5.603112,-0.0178 2.014103,3.471806 3.391317,0.009 z m 49.64845,0 -7.354816,12.737306 3.391826,-0.009 2.013593,-3.471806 5.603112,0.0178 0.857001,-1.48778 -0.839168,-1.45466 -3.936495,-0.0102 1.982004,-3.41118 z m -35.833013,2.89199 7.354816,12.737816 1.717569,-2.91085 -1.982515,-3.411686 3.901339,-0.0102 3.936496,0.0102 -1.982005,3.411686 1.717059,2.91085 7.354816,-12.737816 -3.391827,0.009 -2.013594,3.47131 -5.603112,-0.0173 -5.603621,0.0173 -2.013594,-3.47131 z m 2.654562,5.24696 -7.353797,12.738336 3.379598,0.0316 1.963152,-3.42189 1.977419,3.40356 1.678845,-5.1e-4 0.860057,-1.48574 -2.817095,-4.84343 1.999837,-3.479975 z m 16.708451,0 -1.688015,2.941931 1.999837,3.479975 -2.817095,4.84343 7.353796,12.73832 1.688016,-2.94193 -1.999838,-3.47945 2.817096,-4.84394 z m -19.927043,4.935156 -14.708105,9.9e-4 1.662032,2.94244 3.945157,-0.0112 -1.959077,3.41476 0.840186,1.45364 1.716548,0.002 2.786526,-4.86178 4.013432,-0.008 z m 23.145636,0 1.7033,2.93326 4.013432,0.008 2.786526,4.86178 1.716548,-0.002 0.840186,-1.45364 -1.959077,-3.41476 3.945159,0.0112 1.662539,-2.94244 z m -1.207545,4.41287 1.942771,3.38623 -1.116343,1.92138 -1.942771,-3.38623 z m -8.903736,1.88572 -1.717058,0.002 -0.839677,1.45364 1.959076,3.41425 -3.945157,-0.0107 -1.662541,2.94243 14.708615,10e-4 -1.70381,-2.93327 -4.013432,-0.008 z m 32.439655,0 -1.96315,3.42189 -1.977419,-3.40355 -1.678846,5.1e-4 -0.860056,1.48574 2.816585,4.84394 -1.999327,3.47945 1.688015,2.94193 7.353288,-12.73832 z m 7.76701,0 -2.78652,4.86126 -4.01343,0.008 -1.7033,2.93327 14.708103,-0.001 -1.66203,-2.94243 -3.945163,0.0107 1.95908,-3.41425 -0.84019,-1.45364 z m -23.77488,5.27651 -7.354816,12.73731 3.391318,-0.009 2.014103,-3.47182 5.603111,0.0179 0.01783,-0.0311 0.01784,0.0311 5.603111,-0.0179 2.013596,3.47182 3.391827,0.009 -7.354818,-12.73731 -1.717057,2.91084 1.982003,3.4112 -3.936495,0.0107 -3.936495,-0.0107 1.982004,-3.4112 z m -13.815946,2.89251 -3.391318,0.009 -2.013594,3.47182 -5.603621,-0.0178 -0.856492,1.48778 0.838659,1.45415 3.937005,0.0107 -1.982514,3.41119 1.717057,2.91084 z m 34.974486,0 7.354813,12.7373 1.71706,-2.91084 -1.982,-3.41119 3.936493,-0.0107 0.839167,-1.45415 -0.857007,-1.48778 -5.603106,0.0178 -2.0136,-3.47183 z m -37.628539,5.24695 -1.688015,2.94142 1.999836,3.47998 -2.817094,4.84393 0.860057,1.48574 1.678844,5.2e-4 1.977419,-3.40407 1.963152,3.4224 3.379598,-0.0321 z m 40.282589,0 -7.35329,12.73783 3.3796,0.0321 1.96315,-3.4224 1.97691,3.40407 1.67935,-5.2e-4 0.86006,-1.48573 -2.81709,-4.84394 1.99983,-3.47998 z m -37.063996,4.93515 1.7033,2.93275 4.013432,0.008 2.786526,4.86127 1.716548,-0.002 0.840186,-1.45364 -1.959585,-3.41423 3.945666,0.0107 1.662031,-2.94244 z m 33.845916,0 -14.708618,5e-4 1.66254,2.94244 3.945158,-0.0107 -1.959077,3.41423 0.840187,1.45364 1.716548,0.002 2.786522,-4.86127 4.01343,-0.008 z" /><text
       xml:space="preserve"
       style="font-style:normal;font-weight:normal;font-size:18.506px;line-height:1.25;font-family:sans-serif;letter-spacing:2.06671px;word-spacing:0px;fill:none;fill-opacity:1;stroke:#f90000;stroke-width:0.1;stroke-dasharray:none;stroke-opacity:1"
       x="110.84618"
       y="116.82208"
       id="text2127"><tspan
         sodipodi:role="line"
         id="tspan2125"
         style="font-style:normal;font-variant:normal;font-weight:bold;font-stretch:normal;font-family:Vegur;-inkscape-font-specification:'Vegur Bold';fill:none;fill-opacity:1;stroke:#f90000;stroke-width:0.1;stroke-dasharray:none;stroke-opacity:1"
         x="110.84618"
         y="116.82208"
         dx="0"
         rotate="0 0 0 0 0 0">NixOS</tspan></text><text
       xml:space="preserve"
       style="font-style:normal;font-variant:normal;font-weight:bold;font-stretch:normal;font-size:10.5833px;line-height:1.25;font-family:Oxanium;-inkscape-font-specification:'Oxanium Bold';letter-spacing:0px;word-spacing:0px;fill:none;fill-opacity:1;stroke:#f90000;stroke-width:0.1;stroke-dasharray:none;stroke-opacity:1"
       x="9.8901882"
       y="286.51971"
       id="text2131"><tspan
         sodipodi:role="line"
         id="tspan2129"
         style="font-style:normal;font-variant:normal;font-weight:bold;font-stretch:normal;font-family:Oxanium;-inkscape-font-specification:'Oxanium Bold';fill:none;fill-opacity:1;stroke:#f90000;stroke-width:0.1;stroke-dasharray:none;stroke-opacity:1"
         x="9.8901882"
         y="286.51971">astro@DS22:~$</tspan></text></g></svg>
