<?xml version="1.0" encoding="UTF-8" standalone="no"?>
<svg
   width="1430.1324mm"
   height="454.32028mm"
   viewBox="-436 -909 1430.1324 454.32028"
   version="1.1"
   id="svg6"
   sodipodi:docname="header.svg"
   inkscape:version="1.2 (dc2aedaf03, 2022-05-15)"
   xmlns:inkscape="http://www.inkscape.org/namespaces/inkscape"
   xmlns:sodipodi="http://sodipodi.sourceforge.net/DTD/sodipodi-0.dtd"
   xmlns="http://www.w3.org/2000/svg"
   xmlns:svg="http://www.w3.org/2000/svg">
  <defs
     id="defs10" />
  <sodipodi:namedview
     id="namedview8"
     pagecolor="#505050"
     bordercolor="#ffffff"
     borderopacity="1"
     inkscape:showpageshadow="0"
     inkscape:pageopacity="0"
     inkscape:pagecheckerboard="1"
     inkscape:deskcolor="#505050"
     inkscape:document-units="mm"
     showgrid="false"
     inkscape:zoom="0.27410419"
     inkscape:cx="2305.6926"
     inkscape:cy="1052.5195"
     inkscape:window-width="1918"
     inkscape:window-height="1058"
     inkscape:window-x="0"
     inkscape:window-y="0"
     inkscape:window-maximized="1"
     inkscape:current-layer="svg6" />
  <title
     id="title2">OpenSCAD Model</title>
  <path
     d="m -738.637,-1321.5906 -14.56109,-25.2201 21.84163,-37.8301 -4.95122,-8.5748 h -9.9014 l -16.89041,29.2553 -16.89036,-29.2553 h -19.80281 l 51.25426,88.7746 z m -48.63337,-33.7949 h -29.12215 l -21.84055,-37.8301 h -9.9014 l -4.95121,8.5748 16.89138,29.2553 h -33.78178 l -9.9014,17.1496 h 102.50851 z m 223.36283,59.0149 -14.56085,-25.22 21.84129,-37.8302 -4.95071,-8.5748 h -9.90159 l -16.8904,29.2553 -16.89036,-29.2553 h -19.8028 l 51.2542,88.7747 z m -48.63319,-33.7949 h -29.12107 l -21.84163,-37.8301 h -9.9014 l -4.95115,8.5748 16.89138,29.2553 h -33.7818 l -9.9014,17.1497 h 102.50847 z m -116.48643,42.3697 h 43.68216 l 4.95121,-8.5748 -4.95121,-8.5748 h -33.78076 l 16.8904,-29.2553 -9.9014,-17.1496 -51.25425,88.7746 h 19.8028 z m 339.84939,16.6453 -14.56085,-25.2201 21.84118,-37.8301 -4.95071,-8.5748 h -9.90129 l -16.89058,29.2553 -16.89049,-29.2553 h -19.8027 l 51.25404,88.7746 z m -48.63317,-33.7949 h -29.12161 l -21.84118,-37.8301 h -9.9014 l -4.9506,8.5748 16.89049,29.2553 h -33.78107 l -9.90131,17.1496 h 102.50808 z m -383.24019,-25.2201 h -19.8028 l -14.56106,25.2201 h -43.68216 l -4.95121,8.5748 4.95121,8.5748 h 33.78076 l -16.89039,29.2553 9.9014,17.1497 z m 266.75374,67.5898 h 43.68237 l 4.95071,-8.5748 -4.95071,-8.5748 h -33.78106 l 16.89059,-29.2553 -9.90141,-17.1497 -51.25442,88.7747 h 19.8028 z m 339.84939,16.6453 -14.56105,-25.2201 21.84159,-37.8301 -4.95121,-8.5748 h -9.90139 l -16.89039,29.2553 -16.89038,-29.2553 h -19.8028 l 51.25423,88.7746 z m -48.63337,-33.7949 h -29.12111 l -21.84159,-37.8301 h -9.9014 l -4.95019,8.5748 16.89038,29.2553 h -33.78176 l -9.9004,17.1496 h 102.50747 z m -383.24012,-25.2201 h -19.80276 l -14.56109,25.2201 h -43.68216 l -4.95118,8.5748 4.95118,8.5748 h 33.78075 l -16.89036,29.2553 9.9014,17.1497 z m 266.75378,67.5898 h 43.68207 l 4.95119,-8.5748 -4.95119,-8.5748 h -33.78068 l 16.89028,-29.2553 -9.9014,-17.1497 -51.25383,88.7746 h 19.80281 z m 339.849385,16.6452 -14.56105,-25.22 21.84157,-37.8301 -4.95119,-8.5749 h -9.90141 l -16.89037,29.2553 -16.8904,-29.2553 h -19.802795 l 51.254245,88.7747 z m -48.63337,-33.7948 H -117.4728 l -21.8416,-37.8302 h -9.9014 l -4.95018,8.5749 16.89037,29.2553 h -33.78076 l -9.90139,17.1496 h 102.507465 z m -732.991015,25.7244 16.89042,29.2553 h 19.8028 l -51.25425,-88.7746 -9.9014,17.1496 14.56103,25.2201 -21.84157,37.8301 4.95121,8.5748 h 9.9014 z m 349.75075,-50.9445 h -19.80274 l -14.56085,25.2201 h -43.68237 l -4.95069,8.5748 4.95069,8.5748 h 33.78106 l -16.89059,29.2553 9.9014,17.1496 z m 266.75382,67.5897 h 43.68216 l 4.95122,-8.5748 -4.95122,-8.5748 h -33.78076 l 16.89038,-29.2553 -9.9014,-17.1496 -51.25323,88.7746 h 19.8018 z m 291.216119,-17.1496 h -29.12112 l -21.84159,-37.8301 h -9.901382 l -4.950207,8.5748 16.890397,29.2553 H 3.6733006 l -9.901401,17.1496 H 96.279359 Z m 48.633351,33.7949 -14.56105,-25.2201 21.84159,-37.8301 -4.95121,-8.5748 h -9.90038 l -16.8914,29.2553 -16.890381,-29.2553 h -19.8028 l 51.254231,88.7747 z m -781.62434,-8.0704 16.89036,29.2553 h 19.8028 l -51.25421,-88.7747 -9.90141,17.1497 14.56106,25.22 -21.84157,37.8302 4.95115,8.5748 h 9.9014 z m -89.69467,4.0352 4.95122,-8.5748 -16.89139,-29.2553 h 33.78175 l 9.9014,-17.1496 h -102.50847 l 9.9014,17.1496 h 29.12209 l 21.8406,37.8301 z m 439.44555,-54.9797 h -19.8028 l -14.56106,25.22 h -43.68216 l -4.95071,8.5748 4.95071,8.5748 h 33.78076 l -16.89038,29.2554 9.9014,17.1496 z m 266.753649,67.5897 h 43.683183 l 4.950188,-8.5748 -4.950188,-8.5748 H -20.20708 l 16.8903966,-29.2553 -9.9014006,-17.1497 -51.253231,88.7747 h 19.80278 z m 339.849501,16.6453 -14.56106,-25.2201 21.84159,-37.8301 -4.9502,-8.5749 h -9.9014 l -16.89139,29.2554 -16.89038,-29.2554 h -19.8028 l 51.25424,88.7748 z m -48.63338,-33.7949 h -29.1211 l -21.84159,-37.8302 h -9.9014 l -4.95019,8.5749 16.89038,29.2553 h -33.78076 l -9.9014,17.1496 h 102.50747 z m -732.99084,25.7245 16.89049,29.2553 h 19.80275 l -51.25405,-88.7747 -9.90139,17.1496 14.56085,25.2201 -21.84118,37.8302 4.9506,8.5748 h 9.9014 z m -89.69461,4.0352 4.95062,-8.5748 -16.89102,-29.2554 h 33.78158 l 9.90129,-17.1496 h -102.50815 l 9.9014,17.1496 h 29.12211 l 21.84058,37.8302 z m 439.44533,-54.9798 h -19.80278 l -14.56105,25.2201 h -43.68217 l -4.95019,8.5748 4.95019,8.5748 h 33.78077 l -16.89039,29.2554 9.9014,17.1496 z m -550.98077,71.6251 -14.56105,-25.2201 21.84054,-37.8302 -4.95018,-8.5748 h -9.9014 l -16.89037,29.2553 -16.89039,-29.2553 h -19.8028 l 51.25425,88.7747 z m -48.63339,-33.795 h -29.12209 l -21.84059,-37.8301 h -9.9014 l -4.95121,8.5748 16.8904,29.2553 h -33.78076 l -9.9014,17.1497 h 102.50845 z m 866.36784,29.7597 h 43.68316 l 4.95021,-8.5748 -4.95021,-8.5748 H 154.5226 l 16.89038,-29.2553 -9.9004,-17.1497 -51.25424,88.7747 h 19.80281 z m 339.84946,16.6453 -14.56104,-25.2201 21.84161,-37.8301 -4.95022,-8.5749 h -9.9014 l -16.89037,29.2554 -16.89138,-29.2554 h -19.80183 l 51.25328,88.7747 z m -48.63235,-33.7949 h -29.12209 l -21.84157,-37.8302 h -9.90142 l -4.95021,8.5749 16.8904,29.2553 h -33.78078 l -9.9014,17.1496 h 102.50748 z m -732.99198,25.7245 16.89038,29.2552 h 19.8028 l -51.25424,-88.7746 -9.9014,17.1496 14.56106,25.2201 -21.84059,37.8301 4.95019,8.5748 h 9.9014 z m -89.69448,4.0352 4.95071,-8.5748 -16.89049,-29.2554 h 33.78107 l 9.9015,-17.1496 h -102.50827 l 9.90129,17.1496 h 29.12172 l 21.84118,37.8302 z m 439.445359,-54.9798 H 32.794405 l -14.561055,25.2201 h -43.682159 l -4.950207,8.5748 4.950207,8.5748 H 8.3319486 l -16.890379,29.2553 9.901401,17.1496 z m -550.981099,71.625 -14.56085,-25.22 21.84128,-37.8302 -4.95069,-8.5748 h -9.9014 l -16.8905,29.2553 -16.89058,-29.2553 h -19.80269 l 51.25403,88.7746 z m -48.63316,-33.7949 h -29.12204 l -21.84055,-37.8301 h -9.9014 l -4.95121,8.5748 16.89138,29.2553 h -33.78178 l -9.9014,17.1497 h 102.5084 z m 866.36793,29.7597 h 43.68316 l 4.95019,-8.5748 -4.95019,-8.5749 h -33.78178 l 16.8914,-29.2552 -9.9014,-17.1497 -51.25423,88.7746 h 19.8028 z m 339.85249,16.6452 -14.56711,-25.22 21.84061,-37.8301 -4.94315,-8.5749 h -9.90645 l -16.88736,29.2553 -16.88732,-29.2553 h -19.80281 l 51.24716,88.7747 z m -48.63434,-33.7949 h -29.12416 l -21.84058,-37.8301 h -9.89637 l -4.95323,8.5749 16.88738,29.2552 h -33.77973 l -9.9014,17.1497 h 102.50439 z m -732.99305,25.7245 16.89038,29.2553 h 19.802805 l -51.253235,-88.7746 -9.9014,17.1496 14.56005,25.2201 -21.84056,37.8301 4.95018,8.5748 h 9.9014 z m -541.07941,4.0352 h 43.68218 l 4.95121,-8.5748 -4.95121,-8.5748 h -33.78077 l 16.89041,-29.2553 -9.9014,-17.1496 -51.25425,88.7746 h 19.8028 z m 451.38476,0 4.95121,-8.5748 -16.89038,-29.2553 h 33.78076 l 9.9014,-17.1496 h -102.50848 l 9.90139,17.1496 h 29.12213 l 21.84058,37.8301 z m 439.44556,-54.9797 h -19.80281 l -14.56105,25.22 h -43.68218 l -4.95019,8.5749 4.95019,8.5748 h 33.78178 l -16.89138,29.2553 9.90138,17.1496 z m -599.61417,37.8301 h -29.12161 l -21.8412,-37.8301 h -9.90138 l -4.9506,8.5748 16.89047,29.2553 h -33.78105 l -9.90133,17.1496 h 102.5081 z m 48.63337,33.7949 -14.56107,-25.2201 21.84159,-37.8301 -4.9512,-8.5748 h -9.9014 l -16.89038,29.2553 -16.89049,-29.2553 h -19.80269 l 51.25424,88.7746 z m 817.73549,-4.0353 h 43.68216 l 4.95019,-8.5748 -4.95019,-8.5748 h -33.7818 l 16.89138,-29.2552 -9.9014,-17.1497 -51.25425,88.7746 h 19.8028 z M -755.5274,-1166.235 h -19.8028 l -14.56105,25.2201 h -43.68216 l -4.95122,8.5748 4.95122,8.5748 h 33.78075 l -16.89039,29.2553 9.9014,17.1497 z m 1540.82103,37.8301 H 756.1796 l -21.84059,-37.8301 h -9.90644 l -4.95323,8.5749 16.89746,29.2552 h -33.78482 l -9.89637,17.1496 h 102.50445 z m 48.63447,33.7949 -14.55709,-25.2201 21.84066,-37.83 -4.95337,-8.5749 h -9.89632 l -16.89734,29.2553 -16.88746,-29.2553 h -19.8028 l 51.25721,88.7747 z m -781.622431,-8.0704 16.89038,29.2553 h 19.8028 l -51.253231,-88.7747 -9.901402,17.1497 14.56005,25.22 -21.840586,37.8301 4.950207,8.5749 h 9.901382 z m -541.079399,4.0352 h 43.68237 l 4.95069,-8.5748 -4.95069,-8.5748 h -33.78108 l 16.89055,-29.2553 -9.90135,-17.1497 -51.25405,88.7747 h 19.80271 z m 451.384735,0 4.95119,-8.5748 -16.89038,-29.2553 h 33.780777 l 9.9014006,-17.1497 H -108.1545 l 9.901405,17.1497 h 29.12211 l 21.84058,37.8301 z m 439.445565,-54.9798 h -19.80283 l -14.56004,25.2201 h -43.68317 l -4.95019,8.5748 4.95019,8.5748 h 33.78176 l -16.89138,29.2553 9.9014,17.1497 z m -599.61419,37.8302 h -29.1211 l -21.84159,-37.8302 h -9.90139 l -4.9502,8.5749 16.89038,29.2553 h -33.78177 l -9.9014,17.1496 h 102.50847 z m 48.63336,33.7948 -14.56104,-25.22 21.84158,-37.8301 -4.95121,-8.5749 h -9.90138 l -16.89039,29.2554 -16.89038,-29.2554 h -19.8028 l 51.25423,88.7747 z m 817.73146,-4.0352 h 43.68113 l 4.95323,-8.5748 -4.95323,-8.5748 h -33.7747 l 16.88734,-29.2553 -9.89631,-17.1496 -51.2573,88.7746 h 19.80281 z m -1249.60492,-54.9797 h -19.8028 l -14.56104,25.2201 h -43.68217 l -4.95122,8.5748 4.95122,8.5748 h 33.78077 l -16.89041,29.2553 9.9014,17.1496 z m 1540.82606,37.8301 h -29.1242 l -21.84048,-37.8301 h -9.89631 l -4.95319,8.5748 16.88729,29.2553 h -33.77476 l -9.90638,17.1496 h 102.50433 z m 48.63426,33.7949 -14.56706,-25.2201 21.84066,-37.8301 -4.9432,-8.5748 h -9.9065 l -16.88726,29.2553 -16.8873,-29.2553 h -19.80287 l 51.24727,88.7746 z m -781.62727,-8.0704 16.8914,29.2552 h 19.80178 l -51.25323,-88.7746 -9.9014,17.1496 14.56005,25.2201 -21.84057,37.8301 4.95019,8.5748 h 9.9014 z m -541.0794,4.0352 h 43.68218 l 4.9512,-8.5749 -4.9512,-8.5748 h -33.78078 l 16.89038,-29.2553 -9.90138,-17.1496 -51.25426,88.7746 h 19.80281 z m 451.38473,0 4.95121,-8.5749 -16.89038,-29.2553 h 33.78076 l 9.9014,-17.1496 H 66.575179 l 9.9014,17.1496 h 29.122111 l 21.84159,37.8302 z m 439.44354,-54.9798 h -19.80281 l -14.55802,25.2201 h -43.68318 l -4.95019,8.5748 4.95019,8.5748 h 33.78178 l -16.89039,29.2553 9.90041,17.1497 z m -550.978773,71.625 -14.561055,-25.2201 21.841573,-37.8301 -4.951194,-8.5748 H 18.23335 l -16.8903794,29.2553 -16.8903786,-29.2553 H -35.35021 l 51.254236,88.7747 z m -48.633372,-33.7949 h -29.1211 l -21.8416,-37.8301 h -9.9014 l -4.95018,8.5748 16.89037,29.2553 h -33.781785 l -9.90037,17.1497 h 102.507466 z m -732.990975,25.7245 16.89036,29.2553 h 19.8028 l -51.25425,-88.7746 -9.9014,17.1496 14.56109,25.22 -21.84161,37.8301 4.95121,8.5749 h 9.9014 z m 1599.36079,4.0352 H 887.223 l 4.95319,-8.5748 -4.95319,-8.5748 h -33.78481 l 16.89753,-29.2553 -9.90656,-17.1496 -51.24707,88.7746 h 19.79263 z m -1249.61023,-54.9797 h -19.80269 l -14.56087,25.22 h -43.68236 l -4.95069,8.5748 4.95069,8.5749 h 33.78107 l -16.89052,29.2552 9.90132,17.1497 z m 807.83439,63.5545 16.89036,29.2553 h 19.8028 l -51.25425,-88.7746 -9.90138,17.1496 14.56107,25.2201 -21.84161,37.8301 4.95021,8.5748 h 9.90142 z m -541.08043,4.0352 h 43.682165 l 4.95122,-8.5748 -4.95122,-8.5748 h -33.780755 l 16.89037,-29.2553 -9.9014,-17.1496 -51.25422,88.7746 h 19.8028 z m 451.38575,0 4.9502,-8.5748 -16.89039,-29.2553 h 33.78077 l 9.9014,-17.1496 H 241.30587 l 9.90037,17.1496 h 29.12211 l 21.8416,37.8301 z m 439.44757,-54.9797 h -19.8028 l -14.56711,25.2201 h -43.68113 l -4.95323,8.5748 4.95323,8.5748 h 33.78476 l -16.88736,29.2553 9.89635,17.1496 z m -599.61719,37.8301 h -29.12112 l -21.84157,-37.8301 h -9.901401 l -4.95019,8.5748 16.890381,29.2553 H 69.197049 l -9.9014,17.1496 H 161.80313 Z m 48.63336,33.7949 -14.56106,-25.2201 21.8416,-37.8301 -4.95122,-8.5748 h -9.90138 l -16.8904,29.2553 -16.89038,-29.2553 h -19.8028 l 51.25426,88.7746 z m -781.62437,-8.0704 16.89049,29.2552 h 19.80271 l -51.25425,-88.7746 -9.9014,17.1496 14.56105,25.2201 -21.84157,37.8301 4.95121,8.5748 h 9.9014 z m 1599.35578,4.0352 h 43.6912 l 4.9431,-8.5749 -4.9431,-8.5748 h -33.7848 l 16.8873,-29.2553 -9.8963,-17.1496 -51.25726,88.7746 h 19.80286 z m -1689.05044,0 4.95018,-8.5749 -16.89036,-29.2552 h 33.78179 l 9.9014,-17.1497 h -102.50851 l 9.9014,17.1497 h 29.12112 l 21.84158,37.8301 z m 439.44556,-54.9798 h -19.8028 l -14.56105,25.2201 h -43.68217 l -4.95121,8.5748 4.95121,8.5748 h 33.78077 l -16.89039,29.2553 9.9014,17.1497 z m 807.83003,63.5546 16.89746,29.25529 h 19.8028 l -51.25729,-88.77469 -9.90643,17.1497 14.56711,25.22 -21.84061,37.8301 4.95323,8.57489 h 9.89637 z m -541.076381,4.0352 h 43.68218 l 4.95119,-8.5748 -4.95119,-8.5748 H 45.31667 l 16.890399,-29.2553 -9.9014,-17.1497 -51.2532334,88.77469 H 20.854214 Z m 451.385741,0 4.95022,-8.5748 -16.8904,-29.2553 h 33.78076 l 9.9014,-17.1496 H 416.03551 l 9.9014,17.1496 h 29.12112 l 21.84158,37.8301 z m 439.44254,-54.9797 h -19.80287 l -14.55691,25.22 h -43.68113 l -4.95337,8.5748 4.95337,8.5749 h 33.77457 l -16.88728,29.2552 9.90637,17.14969 z m -599.61215,37.8301 h -29.12111 l -21.84159,-37.8301 h -9.9014 l -4.95019,8.5748 16.89038,29.2553 h -33.78076 l -9.9014,17.1496 H 336.5328 Z m 48.63337,33.7948 -14.56106,-25.22 21.84159,-37.8301 -4.95121,-8.5748 h -9.90039 l -16.89139,29.2552 -16.89038,-29.2552 h -19.8028 l 51.25424,88.77459 z m -781.62437,-8.0704 16.89058,29.25529 h 19.8027 l -51.25404,-88.77459 -9.9014,17.1496 14.56087,25.2201 -21.84129,37.83009 4.95071,8.5748 h 9.90138 z m -89.69455,4.0352 4.95059,-8.5748 -16.89049,-29.2553 h 33.78106 l 9.90133,-17.1496 h -102.50808 l 9.9014,17.1496 h 29.1216 l 21.84119,37.8301 z m 439.445425,-54.9797 h -19.80278 l -14.56105,25.2201 h -43.682185 l -4.9512,8.5748 4.9512,8.5748 h 33.78077 l -16.89039,29.25529 9.9014,17.1496 z m -550.980795,71.62499 -14.56105,-25.22009 21.8406,-37.8301 -4.95019,-8.5748 h -9.9014 l -16.89041,29.2553 -16.89036,-29.2553 h -19.80281 l 51.25422,88.77459 z m -48.63337,-33.79489 H -685.345 l -21.84058,-37.8301 h -9.90141 l -4.95117,8.5748 16.89036,29.2553 h -33.78076 l -9.9014,17.1496 h 102.50847 z m 1407.44927,25.7245 16.88732,29.25519 h 19.8028 l -51.25723,-88.77459 -9.89637,17.1496 14.55705,25.2201 -21.84061,37.83009 4.95323,8.5748 h 9.90644 z m -541.08143,4.03519 h 43.68318 l 4.95019,-8.57489 -4.95019,-8.5748 h -33.78178 l 16.89038,-29.2553 -9.9014,-17.1496 -51.25323,88.77459 h 19.80179 z m 451.38877,0 4.94315,-8.57489 -16.88738,-29.2552 h 33.78482 l 9.89637,-17.1497 H 590.76623 l 9.89635,17.1497 h 29.12411 l 21.84058,37.83009 z m -160.17265,-17.14969 h -29.12112 l -21.84157,-37.8301 h -9.9014 l -4.95019,8.5748 16.89036,29.2553 h -33.78076 l -9.9014,17.14969 h 102.50749 z m 48.62932,33.79489 -14.557,-25.22009 21.84055,-37.8301 -4.95321,-8.5748 h -9.89736 l -16.89138,29.2553 -16.8904,-29.2553 h -19.8028 l 51.25425,88.77465 z m -781.62031,-8.0704 16.89038,29.25527 h 19.8028 l -51.25423,-88.77466 -9.9014,17.1497 14.56105,25.22 -21.84058,37.83009 4.9502,8.57487 h 9.90139 z m -89.69467,4.0352 4.9512,-8.5748 -16.89139,-29.25529 h 33.78179 l 9.90138,-17.1496 h -102.50836 l 9.90138,17.1496 h 29.12202 l 21.84058,37.83009 z m 439.44555,-54.97969 H 98.318149 l -14.56105,25.22 H 40.074942 l -4.950207,8.5748 4.950207,8.57489 h 33.780757 l -16.89038,29.2552 9.9014,17.14969 z m -550.98119,71.62489 -14.56087,-25.22 21.84118,-37.83009 -4.95059,-8.5748 h -9.90141 l -16.8905,29.2552 -16.89051,-29.2552 h -19.80275 l 51.25405,88.77458 z m -48.63307,-33.79479 h -29.12172 l -21.84118,-37.8301 h -9.90129 l -4.95071,8.5748 16.89049,29.2553 h -33.78108 l -9.90149,17.14959 h 102.50827 z m 1407.44425,25.72439 16.89753,29.25529 h 19.80266 l -51.25709,-88.77458 -9.8965,17.1496 14.55708,25.22009 -21.84047,37.83007 4.95319,8.57482 h 9.89631 z m -541.0763,4.0352 h 43.68314 l 4.95019,-8.5748 -4.95019,-8.5748 h -33.7818 l 16.89042,-29.25529 -9.90038,-17.1496 -51.25425,88.77458 h 19.8028 z m 451.38365,0 4.95337,-8.5748 -16.88747,-29.25529 h 33.77476 l 9.90637,-17.1496 H 765.49082 l 9.90643,17.1496 h 29.12407 l 21.84066,37.83009 z m -160.16755,-17.1496 h -29.12414 l -21.8406,-37.83009 h -9.89636 l -4.95322,8.5748 16.88738,29.25529 h -33.7747 l -9.90645,17.1496 H 685.9972 Z m 48.63436,33.79487 -14.55703,-25.22007 21.84059,-37.83009 -4.95323,-8.5748 h -9.90643 l -16.88738,29.25529 -16.88732,-29.25529 H 663.5715 l 51.24716,88.7746 z m -781.625375,-8.07041 16.8904,29.25528 h 19.802785 l -51.254235,-88.77463 -9.9014,17.1496 14.56105,25.22009 -21.84056,37.8301 4.95018,8.57484 h 9.9014 z m -541.079375,4.03521 h 43.68216 l 4.95069,-8.57487 -4.95069,-8.5748 h -33.78076 l 16.89036,-29.25529 -9.9014,-17.1496 -51.25421,88.77463 h 19.80276 z m 451.38471,0 4.95121,-8.57487 -16.89037,-29.2552 h 33.78075 l 9.9014,-17.14969 H -217.3604 l 9.9014,17.14969 h 29.12211 l 21.84058,37.83007 z m 439.44557,-54.97976 h -19.8028 l -14.56106,25.22009 H 214.8046 l -4.95019,8.5748 4.95019,8.5748 h 33.78078 l -16.89038,29.2553 9.9014,17.14966 z m -550.9808,71.62499 -14.56105,-25.2201 21.84157,-37.83009 -4.95119,-8.5748 h -9.9014 l -16.89039,29.25529 -16.89037,-29.25529 h -19.80281 l 51.25424,88.77465 z m -48.63337,-33.7949 h -29.12211 l -21.84059,-37.83009 h -9.9016 l -4.9506,8.5748 16.89099,29.25529 h -33.78158 l -9.90128,17.14967 h 102.50817 z m 866.36782,29.75969 h 43.68117 l 4.95322,-8.57482 -4.95322,-8.57482 h -33.77474 l 16.88738,-29.25525 -9.90645,-17.14969 -51.25019,88.77466 h 19.80578 z m 451.38871,0 4.9432,-8.57482 -16.88746,-29.25527 h 33.78476 l 9.8965,-17.14959 H 940.22549 l 9.89651,17.14959 h 29.12404 l 21.84046,37.83009 z m -1700.99763,-54.97968 h -19.80178 l -14.56109,25.21999 h -43.68218 l -4.95121,8.5748 4.95121,8.57487 h 33.78078 l -16.89037,29.25528 9.90141,17.14964 z m 1589.45434,71.62494 -14.55691,-25.22008 21.84048,-37.83007 -4.95319,-8.57479 h -9.89632 l -16.88747,29.25519 -16.89734,-29.25519 h -19.80288 l 51.25731,88.77458 z m -48.62427,-33.7949 h -29.12405 l -21.84066,-37.83004 h -9.90643 l -4.94314,8.57479 16.88736,29.25525 H 768.1137 l -9.89632,17.14964 h 102.50438 z m -732.99602,25.72446 16.89037,29.25528 h 19.80281 l -51.25323,-88.77459 -9.901401,17.1496 14.560041,25.22007 -21.840561,37.8301 4.95019,8.57482 h 9.901401 z m -541.07951,4.03523 h 43.68238 l 4.95069,-8.57484 -4.95069,-8.57482 h -33.78107 l 16.89058,-29.25528 -9.9014,-17.1496 -51.25407,88.77459 h 19.80273 z m 451.384841,0 4.951194,-8.57484 -16.890379,-29.2553 h 33.780777 l 9.901406,-17.1496 H -42.630745 l 9.901399,17.1496 H -3.6072174 L 18.23335,-934.71477 Z M 467.5803,-989.69451 h -19.8028 l -14.56104,25.22005 h -43.68218 l -4.95017,8.57482 4.95017,8.57482 h 33.78078 l -16.89042,29.25528 9.9014,17.14964 z m -599.61416,37.83008 h -29.12212 l -21.84056,-37.83008 h -9.90141 l -4.95121,8.5748 16.8914,29.25528 h -33.78178 l -9.9014,17.14966 h 102.50846 z m 48.633355,33.79489 -14.56105,-25.22007 21.84159,-37.8301 -4.95121,-8.5748 h -9.90138 l -16.890405,29.25526 -16.89038,-29.25526 h -19.8028 l 51.254255,88.77461 z m 817.739515,-4.0352 h 43.68114 l 4.94313,-8.57482 -4.94313,-8.57483 h -33.78478 l 16.88738,-29.25532 -9.89637,-17.1496 -51.25729,88.77464 h 19.8028 z m -1249.61339,-54.97977 h -19.8028 l -14.56074,25.22008 h -43.68206 l -4.95122,8.57482 4.95122,8.57484 h 33.78066 l -16.8903,29.25526 9.9014,17.14966 z m 1589.45878,71.625 -14.557,-25.22005 21.8406,-37.83015 -4.9534,-8.5748 h -9.9064 l -16.8872,29.2553 -16.8875,-29.2553 h -19.8027 l 51.247,88.77466 z m -48.6343,-33.79488 h -29.12416 l -21.8405,-37.83012 h -9.8965 l -4.9532,8.5748 16.8875,29.25532 h -33.77476 l -9.90656,17.14965 h 102.51458 z m -732.99102,25.72447 16.8904,29.25528 h 19.80278 l -51.25323,-88.77467 -9.90138,17.14967 14.56005,25.22008 -21.84059,37.8301 4.95019,8.57482 h 9.9014 z m -541.07939,4.0352 h 43.68217 l 4.9512,-8.57482 -4.9512,-8.57482 h -33.78077 l 16.89039,-29.25528 -9.9014,-17.14967 -51.25424,88.77467 h 19.80279 z m 451.38472,0 4.95122,-8.57482 -16.89038,-29.25528 H 224.706 l 9.90141,-17.14964 H 132.09893 l 9.9014,17.14964 h 29.12211 l 21.84059,37.8301 z m 439.44152,-54.97974 h -19.8028 l -14.55699,25.22007 h -43.68119 l -4.95321,8.57483 4.95321,8.57482 h 33.78483 l -16.89745,29.25528 9.90645,17.14964 z m -550.976751,71.625 -14.56106,-25.22008 21.84159,-37.8301 -4.95121,-8.57482 h -9.9014 l -16.89038,29.25528 -16.890376,-29.25528 H 30.17354 l 51.254239,88.77464 z m -48.633373,-33.7949 H 13.574702 l -21.8415924,-37.8301 h -9.9014006 l -4.950188,8.57482 16.8903786,29.25528 H -40.009865 l -9.9014,17.14964 H 52.597209 Z m -732.990996,25.72446 16.89036,29.25528 h 19.80281 l -51.2542,-88.77463 -9.9014,17.14964 14.56103,25.22007 -21.84157,37.8301 4.95117,8.57482 h 9.90141 z m 1599.35885,4.03523 h 43.68118 l 4.9531,-8.57484 -4.9531,-8.57482 h -33.7748 l 16.88728,-29.25528 -9.90637,-17.14964 -51.24706,88.77463 h 19.80269 z m -1249.60797,-54.97976 h -19.80278 l -14.56117,25.22007 h -43.68236 l -4.95069,8.57482 4.95069,8.57482 h 33.78107 l -16.89058,29.25528 9.90138,17.14965 z m 807.83305,63.55458 16.89144,29.25528 h 19.80176 l -51.25323,-88.77464 -9.9014,17.14965 14.56003,25.22005 -21.84055,37.8301 4.95019,8.57484 h 9.9014 z m -541.079385,4.03521 h 43.682164 l 4.951212,-8.57482 -4.951212,-8.57482 h -33.780754 l 16.89037,-29.25528 -9.9014,-17.14965 -51.254235,88.77464 h 19.802805 z m 451.384735,0 4.95121,-8.57482 -16.89039,-29.25528 h 33.78077 l 9.9014,-17.14965 H 306.82859 l 9.9014,17.14965 h 29.12213 l 21.84158,37.8301 z m 439.44653,-54.97975 h -19.80269 l -14.5571,25.22006 H 738.9896 l -4.94313,8.57482 4.94313,8.57484 h 33.78478 l -16.88733,29.25526 9.89632,17.14966 z m -599.61513,37.83011 h -29.12113 l -21.84157,-37.83011 h -9.9014 l -4.95019,8.57483 16.89038,29.25528 h -33.78179 l -9.90039,17.14964 h 102.50749 z m 48.63335,33.79487 -14.56106,-25.22005 21.8416,-37.8301 -4.9512,-8.57483 h -9.9014 l -16.89038,29.25528 -16.8904,-29.25528 h -19.8028 l 51.25426,88.77464 z m -781.62446,-8.07041 16.89049,29.25528 h 19.80269 l -51.25403,-88.77464 -9.9014,17.14964 14.56087,25.22008 -21.8412,37.8301 4.95071,8.57482 h 9.90129 z m 1599.36382,4.0352 h 43.6813 l 4.9431,-8.57482 -4.9431,-8.57482 h -33.7848 l 16.8873,-29.25528 -9.8964,-17.14964 -51.2572,88.77464 h 19.8028 z m -1689.05836,0 4.95019,-8.57482 -16.89041,-29.25528 h 33.7818 l 9.90037,-17.14964 h -102.50744 l 9.9014,17.14964 h 29.12106 l 21.84163,37.8301 z m 439.44553,-54.97974 h -19.8028 l -14.56105,25.22008 h -43.68216 l -4.95121,8.57482 4.95121,8.57482 h 33.78076 l -16.89038,29.25528 9.9014,17.14964 z m 807.83809,63.55457 16.88737,29.25528 h 19.8028 l -51.25727,-88.77464 -9.89638,17.14964 14.55704,25.22007 -21.84059,37.8301 4.95322,8.57483 h 9.89636 z m -541.08442,4.03522 h 43.68216 l 4.95121,-8.57484 -4.95121,-8.57482 h -33.78078 l 16.8904,-29.25528 -9.9014,-17.14964 -51.254241,88.77464 h 19.8028 z m 451.38169,0 4.95321,-8.57484 -16.88937,-29.25526 h 33.77675 l 9.90643,-17.14966 H 481.5593 l 9.90037,17.14966 h 29.12209 l 21.84161,37.8301 z m 439.44461,-54.97976 h -19.8029 l -14.5571,25.22007 h -43.68109 l -4.95319,8.57482 4.95319,8.57482 h 33.78482 l -16.89735,29.25528 9.90638,17.14965 z m -599.61018,37.8301 h -29.12112 l -21.84159,-37.8301 h -9.90138 l -4.95021,8.57482 16.89038,29.25528 h -33.78076 l -9.9014,17.14966 h 102.50749 z m 48.63334,33.79489 -14.56106,-25.22007 21.84163,-37.8301 -4.95121,-8.57482 h -9.9014 l -16.89042,29.25528 -16.89036,-29.25528 h -19.8028 l 51.25422,88.77464 z m -781.62435,-8.07041 16.89038,29.25528 h 19.8028 l -51.25423,-88.77464 -9.9012,17.14965 14.56085,25.22005 -21.84127,37.8301 4.95069,8.57484 h 9.9016 z m -89.69466,4.03521 4.95059,-8.57482 -16.89047,-29.25528 h 33.78108 l 9.90129,-17.14964 h -102.50809 l 9.90141,17.14964 h 29.1216 l 21.84118,37.8301 z M 8.9150476,-901.42428 H -10.887754 l -14.561055,25.22005 h -43.682176 l -4.9512,8.57482 4.9512,8.57484 h 33.780775 l -16.890375,29.25526 9.90138,17.14966 z m -550.9814076,71.62497 -14.56074,-25.22005 21.84116,-37.8301 -4.95069,-8.57482 h -9.9014 l -16.89019,29.25528 -16.89036,-29.25528 h -19.80281 l 51.25364,88.77463 z m -48.63276,-33.79487 h -29.12213 l -21.84055,-37.8301 h -9.9014 l -4.95121,8.57482 16.89036,29.25528 h -33.78078 l -9.9014,17.14964 h 102.50851 z m 1407.44714,25.72446 16.88747,29.25528 h 19.8027 l -51.24707,-88.77464 -9.90649,17.14964 14.56708,25.22008 -21.84055,37.8301 4.94314,8.57482 h 9.90643 z m -541.07932,4.03521 h 43.68218 l 4.95119,-8.57483 -4.95119,-8.57482 H 285.5701 l 16.89038,-29.25528 -9.9014,-17.14964 -51.25424,88.77464 h 19.8028 z m 451.38674,0 4.95323,-8.57483 -16.89746,-29.25528 h 33.78484 l 9.89635,-17.14964 H 656.28795 l 9.90645,17.14964 h 29.11403 l 21.84058,37.83011 z m -111.5332,16.64525 -14.56711,-25.22008 21.84055,-37.8301 -4.94309,-8.57482 h -9.90645 l -16.88736,29.25528 -16.89746,-29.25528 h -19.8028 l 51.25729,88.77464 z m -48.6344,-33.7949 h -29.1241 l -21.84163,-37.8301 h -9.9014 l -4.95019,8.57482 16.89042,29.25528 h -33.78076 l -9.9014,17.14965 H 576.7842 Z m -732.99401,25.72447 16.89037,29.25528 h 19.80281 l -51.25423,-88.77464 -9.9014,17.14964 14.56105,25.22007 -21.84159,37.83011 4.95121,8.57482 h 9.90141 z m -89.69466,4.03522 4.95119,-8.57484 -16.89138,-29.25526 h 33.78178 l 9.9014,-17.14966 h -102.50849 l 9.9014,17.14966 h 29.1211 l 21.8416,37.8301 z m 439.44554,-54.97976 h -19.80279 l -14.56107,25.22007 h -43.68216 l -4.95119,8.57482 4.95119,8.57483 h 33.78076 l -16.89038,29.25528 9.9014,17.14964 z m -550.9813,71.625 -14.56085,-25.22008 21.84088,-37.8301 -4.9503,-8.57482 h -9.9014 l -16.89049,29.25528 -16.89056,-29.25528 h -19.80271 l 51.25403,88.77464 z m -48.63306,-33.7949 h -29.12171 l -21.84115,-37.8301 h -9.90134 l -4.9507,8.57482 16.89053,29.25528 h -33.78102 l -9.9014,17.14966 h 102.50808 z m 1407.45249,25.72448 16.88716,29.25528 h 19.8029 l -51.25726,-88.77463 -9.8963,17.14964 14.5571,25.22005 -21.8407,37.83012 4.9532,8.57482 h 9.8965 z m -541.08446,4.03521 h 43.6832 l 4.95017,-8.57482 -4.95121,-8.57482 h -33.78076 l 16.89036,-29.25528 -9.9014,-17.14964 -51.25323,88.77463 h 19.80181 z m 451.38171,0 4.95319,-8.57482 -16.88729,-29.25528 h 33.77458 l 9.90656,-17.14964 H 831.02275 l 9.89632,17.14964 h 29.12404 l 21.84066,37.8301 z m -160.1676,-17.14964 h -29.12416 l -21.84058,-37.8301 h -9.89632 l -4.95322,8.57482 16.88732,29.25528 h -33.7747 l -9.90643,17.14964 h 102.51452 z m 48.63436,33.79489 -14.55705,-25.22007 21.84055,-37.8301 -4.95317,-8.57482 h -9.89635 l -16.89746,29.25528 -16.88732,-29.25528 h -19.80281 l 51.25724,88.77463 z M 8.6235076,-800.03962 25.513887,-770.78434 H 45.31667 l -51.2542364,-88.77464 -9.9014006,17.14964 14.5610736,25.22008 -21.8405856,37.8301 4.950188,8.57482 h 9.9014006 z m -541.0797076,4.03521 h 43.68236 l 4.95071,-8.57482 -4.95071,-8.57483 h -33.78106 l 16.89059,-29.25528 -9.9014,-17.14964 -51.25403,88.77464 h 19.80269 z m 451.385025,0 4.95121,-8.57482 -16.89138,-29.25528 h 33.78176 l 9.9014,-17.14965 H -151.83665 l 9.90139,17.14965 h 29.12211 l 21.840595,37.8301 z m 439.445565,-54.97975 h -19.8028 l -14.56106,25.22008 h -43.68218 l -4.95018,8.57482 4.95018,8.57482 h 33.78078 l -16.89038,29.25528 9.9014,17.14964 z m -599.61417,37.8301 h -29.12211 l -21.84059,-37.8301 h -9.9014 l -4.95119,8.57482 16.89038,29.25528 h -33.78078 l -9.90138,17.14965 h 102.50847 z m 48.63337,33.7949 -14.56105,-25.22007 21.84057,-37.83011 -4.95019,-8.57482 h -9.9014 l -16.89038,29.25528 -16.89038,-29.25528 h -19.8028 l 51.25423,88.77464 z m 817.73242,-4.03521 h 43.68119 l 4.95322,-8.57482 -4.95322,-8.57484 h -33.77474 l 16.88736,-29.25528 -9.89636,-17.14964 -51.25723,88.77464 h 19.8028 z m 451.38859,0 4.9534,-8.57482 -16.8976,-29.25528 h 33.7849 l 9.8963,-17.14966 h -102.5044 l 9.9064,17.14966 h 29.1142 l 21.8404,37.8301 z m -1700.9955,-54.97976 h -19.8028 l -14.56003,25.22007 h -43.68319 l -4.95019,8.57483 4.95019,8.57482 h 33.78178 l -16.89039,29.25528 9.9014,17.14964 z m 1589.46244,71.625 -14.56713,-25.22006 21.84063,-37.83012 -4.9431,-8.57482 h -9.9066 l -16.88724,29.25528 -16.89753,-29.25528 h -19.8027 l 51.25727,88.77464 z m -48.6343,-33.7949 H 887.223 l -21.84047,-37.8301 h -9.90656 l -4.94313,8.57482 16.88747,29.25528 h -33.78482 l -9.89631,17.14966 h 102.50437 z m -732.99407,25.72448 16.89038,29.25528 h 19.8028 l -51.25424,-88.77463 -9.9014,17.14964 14.56106,25.22007 -21.84057,37.8301 4.95019,8.57482 h 9.9014 z m -541.0794,4.03521 h 43.68216 l 4.95021,-8.57482 -4.95021,-8.57482 h -33.78076 l 16.89038,-29.25528 -9.9014,-17.14964 -51.25412,88.77463 h 19.80269 z m 451.384729,0 4.95121,-8.57482 -16.89039,-29.25528 h 33.780771 l 9.9014,-17.14964 H 22.893004 l 9.901401,17.14964 h 29.122124 l 21.84057,37.8301 z m 439.445551,-54.97974 h -19.8028 l -14.56106,25.22005 h -43.68216 l -4.95019,8.57484 4.95019,8.57482 h 33.78076 l -16.89036,29.25528 9.9014,17.14964 z m -550.980782,71.62499 -14.561073,-25.22007 21.841591,-37.8301 -4.951194,-8.57482 h -9.901401 l -16.890396,29.25528 -16.89038,-29.25528 h -19.80278 l 51.254232,88.77463 z m -48.633373,-33.79489 h -29.12213 l -21.840565,-37.8301 h -9.90141 l -4.95121,8.57482 16.8904,29.25528 h -33.78078 l -9.90139,17.14964 h 102.508465 z m 866.370835,29.75967 h 43.68114 l 4.95319,-8.57482 -4.95319,-8.57482 h -33.78482 l 16.89753,-29.25528 -9.90656,-17.14965 -51.2572,88.77464 h 19.80281 z m -1249.61145,-54.97975 h -19.80275 l -14.56081,25.22008 h -43.68246 l -4.95059,8.57482 4.95059,8.57482 h 33.78106 l -16.89047,29.25528 9.90129,17.14964 z m 1589.45692,71.625 -14.5571,-25.22007 21.8407,-37.8301 -4.9534,-8.57483 h -9.8963 l -16.8974,29.25528 -16.8874,-29.25528 h -19.8029 l 51.2573,88.77464 z m -48.6345,-33.79489 h -29.114 l -21.8507,-37.83011 h -9.8963 l -4.9532,8.57483 16.8974,29.25528 H 1008.37 l -9.90626,17.14964 h 102.51446 z m -732.98887,25.72446 16.8904,29.25528 h 19.80276 l -51.25319,-88.77464 -9.9014,17.14966 14.56005,25.22006 -21.84059,37.8301 4.95021,8.57482 h 9.90138 z m -541.07937,4.03522 h 43.68214 l 4.9512,-8.57482 -4.9512,-8.57484 h -33.78076 l 16.8904,-29.25526 -9.90141,-17.14966 -51.25423,88.77464 h 19.80278 z m 451.38472,0 4.9512,-8.57482 -16.89038,-29.25528 h 33.78075 l 9.90141,-17.14966 H 197.62268 l 9.9014,17.14966 h 29.12211 l 21.84059,37.8301 z m 439.44955,-54.97976 h -19.80275 l -14.5671,25.22008 h -43.68119 l -4.95323,8.57482 4.95323,8.57482 h 33.78481 l -16.89743,29.25528 9.90643,17.14964 z m -550.9848,71.625 -14.56106,-25.22006 21.84159,-37.8301 -4.95121,-8.57484 h -9.9014 l -16.89038,29.25528 -16.89038,-29.25528 H 95.697289 l 51.254231,88.77464 z m -48.63338,-33.7949 H 79.097449 l -21.84059,-37.8301 H 47.35546 l -4.951194,8.57484 16.891383,29.25526 H 25.513887 l -9.901401,17.14966 H 118.12096 Z m -732.99099,25.72448 16.8904,29.25528 h 19.8028 l -51.25425,-88.77463 -9.9014,17.14964 14.56105,25.22007 -21.84157,37.8301 4.95121,8.57482 h 9.9014 z m 1599.35688,4.03521 h 43.68106 l 4.9532,-8.57482 -4.9532,-8.57482 h -33.77466 l 16.88726,-29.25528 -9.89626,-17.14964 -51.25735,88.77463 h 19.80285 z m -1249.60599,-54.97974 h -19.80279 l -14.56106,25.22005 h -43.68217 l -4.9512,8.57484 4.9512,8.57482 h 33.78077 l -16.89039,29.25528 9.9014,17.14965 z m 807.83308,63.55456 16.89539,29.25528 h 19.8028 l -51.25826,-88.77464 -9.9014,17.14965 14.56007,25.22007 -21.84061,37.8301 4.95019,8.57482 h 9.9014 z m -541.0794204,4.03521 H 35.415269 l 4.951213,-8.57482 -4.951213,-8.57482 H 1.6345106 l 16.8903794,-29.25528 -9.9013824,-17.14965 -51.2542526,88.77464 h 19.8028 z m 451.3847504,0 4.95121,-8.57482 -16.89041,-29.25528 h 33.78077 l 9.9014,-17.14964 H 372.35234 l 9.9014,17.14964 h 29.12211 l 21.84061,37.8301 z m 439.44456,-54.97974 h -19.80288 l -14.5569,25.22007 h -43.68132 l -4.95319,8.57482 4.95319,8.57482 h 33.77476 l -16.88729,29.25528 9.89632,17.14964 z m -550.97981,71.62499 -14.56106,-25.22007 21.84158,-37.8301 -4.9512,-8.57482 h -9.9014 l -16.89038,29.25528 -16.8904,-29.25528 h -19.80278 l 51.25424,88.77463 z m -48.63337,-33.79489 h -29.12111 l -21.84159,-37.8301 h -9.9014 l -4.95121,8.57482 16.8914,29.25528 h -33.78178 l -9.9014,17.14964 h 102.50849 z m -732.9912,25.72446 16.89049,29.25528 h 19.80269 l -51.25403,-88.77464 -9.90135,17.14966 14.5608,25.22006 -21.84119,37.8301 4.9507,8.57482 h 9.90134 z m 1599.36196,4.03522 h 43.6811 l 4.9532,-8.57482 -4.9532,-8.57484 h -33.7848 l 16.8975,-29.25526 -9.9065,-17.14966 -51.2572,88.77464 h 19.8027 z m -1689.05663,0 4.95069,-8.57482 -16.89056,-29.25528 h 33.78105 l 9.9014,-17.14966 h -102.50787 l 9.9014,17.14966 h 29.12112 l 21.84137,37.8301 z m 439.44574,-54.97976 h -19.8028 l -14.56105,25.22008 h -43.68215 l -4.95121,8.57482 4.95121,8.57482 h 33.78075 l -16.89037,29.25528 9.9014,17.14964 z m 807.83608,63.55459 16.88738,29.25528 h 19.8028 l -51.25729,-88.77464 -9.89632,17.14964 14.557,25.22007 -21.84055,37.8301 4.95322,8.57483 h 9.89632 z m -541.0824,4.0352 h 43.68216 l 4.95121,-8.57482 -4.95121,-8.57482 h -33.78076 l 16.89038,-29.25528 -9.9014,-17.14964 -51.25424,88.77464 h 19.8028 z m 451.3898,0 4.94309,-8.57482 -16.88733,-29.25528 h 33.78478 l 9.89636,-17.14964 H 547.08504 l 9.89635,17.14964 h 29.12416 l 21.84059,37.8301 z m 439.44461,-54.97974 h -19.8029 l -14.5672,25.22005 h -43.68106 l -4.9532,8.57484 4.9532,8.57482 h 33.78476 l -16.89746,29.25528 9.90646,17.14965 z m -550.98491,71.62499 -14.56106,-25.22007 21.84157,-37.8301 -4.95121,-8.57482 h -9.9014 l -16.89036,29.25528 -16.8904,-29.25528 h -19.8028 l 51.25426,88.77464 z m -48.63339,-33.79489 h -29.12111 l -21.84157,-37.8301 h -9.9014 l -4.95019,8.57482 16.89036,29.25528 h -33.78176 l -9.9014,17.14964 H 467.5803 Z m -732.99099,25.72446 16.89039,29.25528 h 19.80279 l -51.25424,-88.77463 -9.9014,17.14964 14.56107,25.22007 -21.84159,37.8301 4.95119,8.57482 h 9.9014 z m -89.69477,4.03521 4.9503,-8.57482 -16.89019,-29.25528 h 33.78158 l 9.90039,-17.14964 h -102.50767 l 9.9014,17.14964 h 29.12161 l 21.84118,37.8301 z m 439.445659,-54.97974 h -19.8028 l -14.561057,25.22007 H -3.6072174 l -4.951213,8.57482 4.951213,8.57482 H 30.17354 l -16.890378,29.25528 9.901401,17.14964 z m -550.981509,71.62499 -14.56075,-25.22007 21.84118,-37.8301 -4.95069,-8.57482 h -9.90131 l -16.89058,29.25528 -16.89049,-29.25528 h -19.80269 l 51.25393,88.77463 z m -48.63307,-33.79489 h -29.12161 l -21.8417,-37.8301 h -9.9014 l -4.95019,8.57482 16.8904,29.25528 h -33.78076 l -9.9014,17.14964 h 102.50797 z m 1407.4456,25.72446 16.89753,29.25528 h 19.80269 l -51.25731,-88.77464 -9.90638,17.14966 14.56715,25.22006 -21.84066,37.8301 4.94313,8.57482 h 9.90656 z m -541.07737,4.03523 h 43.6822 l 4.95115,-8.57483 -4.95115,-8.57484 h -33.7808 l 16.89038,-29.25526 -9.9014,-17.14966 -51.25424,88.77464 h 19.80281 z m 451.38473,0 4.95317,-8.57483 -16.8974,-29.25528 h 33.78487 l 9.90638,-17.14966 H 721.80969 l 9.90643,17.14966 h 29.11403 l 21.85068,37.83011 z m -160.16762,-17.14967 h -29.1241 l -21.84059,-37.8301 h -9.89635 l -4.95322,8.57484 16.88736,29.25526 h -33.77474 l -9.90541,17.14967 h 102.50342 z m 48.63442,33.7949 -14.56711,-25.22006 21.84053,-37.8301 -4.94309,-8.57484 h -9.90643 l -16.88738,29.25528 -16.88737,-29.25528 h -19.8028 l 51.2472,88.77464 z m -781.62641,-8.07041 16.890385,29.25528 h 19.80281 l -51.254245,-88.77464 -9.9014,17.14964 14.56105,25.22007 -21.84159,37.83011 4.95121,8.57482 h 9.90141 z m -89.69465,4.0352 4.95019,-8.57482 -16.89038,-29.25528 h 33.78178 l 9.9014,-17.14964 h -102.50849 l 9.9014,17.14964 h 29.12112 l 21.84158,37.8301 z m 439.44554,-54.97974 h -19.80278 l -14.56108,25.22005 h -43.68216 l -4.95119,8.57484 4.95119,8.57483 h 33.78076 l -16.89038,29.25528 9.9014,17.14964 z m -599.61417,37.8301 h -29.122 l -21.84118,-37.8301 h -9.90131 l -4.95069,8.57482 16.89047,29.25528 h -33.78105 l -9.90131,17.14964 h 102.50847 z m 48.63237,33.7949 -14.56005,-25.22008 21.84058,-37.8301 -4.95018,-8.57482 h -9.90141 l -16.89039,29.25528 -16.89038,-29.25528 h -19.8028 l 51.25324,88.77464 z m 1358.81794,-8.07044 16.8872,29.25528 h 19.8029 l -51.2573,-88.77463 -9.8963,17.14964 14.5569,25.22007 -21.8405,37.8301 4.9532,8.57482 h 9.8963 z m -541.08249,4.03521 h 43.68218 l 4.9532,-8.57482 -4.9532,-8.57482 h -33.78078 l 16.89042,-29.25528 -9.9014,-17.14964 -51.25426,88.77463 h 19.8028 z m 451.38983,0 4.9431,-8.57482 -16.8874,-29.25528 h 33.7848 l 9.8963,-17.14964 H 896.54436 l 9.89632,17.14964 h 29.12423 l 21.84043,37.8301 z m -111.54337,16.64525 -14.5569,-25.22007 21.84047,-37.8301 -4.95318,-8.57482 h -9.89632 l -16.89753,29.25528 -16.88729,-29.25528 h -19.80286 l 51.25729,88.77463 z m -48.63432,-33.79489 h -29.1141 l -21.84055,-37.8301 h -9.90645 l -4.9532,8.57482 16.89743,29.25528 h -33.78481 l -9.89636,17.14964 h 102.50441 z m -732.986991,25.72446 16.89038,29.25528 h 19.802781 l -51.254231,-88.77464 -9.901405,17.14966 14.561075,25.22006 -21.841593,37.8301 4.951194,8.57482 h 9.901399 z m -541.079809,4.03523 h 43.68237 l 4.95069,-8.57482 -4.95069,-8.57484 h -33.78104 l 16.89055,-29.25527 -9.9014,-17.14966 -51.25404,88.77464 h 19.80269 z m 451.385142,0 4.951194,-8.57482 -16.891384,-29.25528 H 6.2941646 l 9.9014014,-17.14967 H -86.312905 l 9.9014,17.14967 h 29.1211 l 21.841596,37.8301 z m 439.445548,-54.97977 h -19.8028 l -14.56106,25.22008 h -43.68216 l -4.95121,8.57482 4.95121,8.57482 h 33.78076 l -16.89038,29.25528 9.9014,17.14964 z m -550.98181,71.625 -14.56005,-25.22005 21.84057,-37.83011 -4.95019,-8.57484 h -9.9014 l -16.89037,29.25528 -16.89038,-29.25528 h -19.8028 l 51.25422,88.77464 z m -48.63236,-33.79489 h -29.12211 l -21.84058,-37.83011 h -9.9014 l -4.9512,8.57484 16.89038,29.25527 h -33.78076 l -9.9014,17.14966 h 102.50847 z m 866.36378,29.75968 h 43.69126 l 4.94313,-8.57482 -4.94313,-8.57482 h -33.78483 l 16.88738,-29.25528 -9.89637,-17.14964 -51.25724,88.77464 h 19.8028 z m 451.38865,0 4.9534,-8.57482 -16.8875,-29.25528 h 33.7748 l 9.9063,-17.14964 H 1071.269 l 9.9064,17.14964 h 29.124 l 21.8407,37.8301 z m -1700.99323,-54.97974 h -19.80309 l -14.56006,25.22006 h -43.68321 l -4.95018,8.57484 4.95018,8.57482 h 33.7818 l -16.89138,29.25528 9.9014,17.14964 z m 1540.82587,37.8301 h -29.1242 l -21.8407,-37.8301 h -9.89632 l -4.95319,8.57482 16.88729,29.25528 h -33.77457 l -9.90656,17.14964 h 102.50455 z m 48.63426,33.7949 -14.5671,-25.22008 21.8507,-37.8301 -4.9534,-8.57482 h -9.9064 l -16.8873,29.25528 -16.88736,-29.25528 h -19.8027 l 51.24696,88.77464 z m -781.62638,-8.07044 16.89038,29.25528 h 19.8028 l -51.25424,-88.77463 -9.9014,17.14964 14.56106,25.22007 -21.84159,37.8301 4.95121,8.57482 h 9.9014 z m -541.0794,4.03521 h 43.68217 l 4.9502,-8.57482 -4.9502,-8.57482 h -33.78077 l 16.89039,-29.25528 -9.9014,-17.14964 -51.25424,88.77463 h 19.8028 z m 451.38473,0 4.95121,-8.57482 -16.8914,-29.25528 h 33.78179 l 9.9014,-17.14964 H 88.416769 l 9.90138,17.14964 h 29.122131 l 21.84057,37.8301 z M 598.6248,-661.83365 H 578.822 l -14.55705,25.22007 h -43.68319 l -4.95018,8.57482 4.95018,8.57482 h 33.77676 l -16.88636,29.25528 9.90543,17.14965 z m -599.61115343,37.8301 H -30.108481 l -21.840564,-37.8301 h -9.9014 l -4.95122,8.57482 16.8904,29.25528 h -33.78078 l -9.9014,17.14964 H 8.9150476 Z m 48.63337243,33.79489 -14.561074,-25.22007 21.840584,-37.8301 -4.950186,-8.57482 H 40.074942 L 23.184563,-632.57837 6.2941646,-661.83365 H -13.508618 l 51.254236,88.77464 z m 817.735511,-4.0352 h 43.68113 l 4.95319,-8.57482 -4.95319,-8.57484 h -33.78481 l 16.89734,-29.25526 -9.90637,-17.14967 -51.24707,88.77464 h 19.80269 z m -1249.60959,-54.97976 h -19.80281 l -14.56075,25.22007 h -43.68246 l -4.95065,8.57482 4.95067,8.57482 h 33.78104 l -16.89049,29.25528 9.9013,17.14966 z m 1589.45486,71.62499 -14.5569,-25.22005 21.8405,-37.8301 -4.9532,-8.57484 h -9.8963 l -16.8976,29.25528 -16.8872,-29.25528 h -19.8029 l 51.2573,88.77465 z m -48.6343,-33.79489 h -29.114 l -21.8407,-37.8301 h -9.9063 l -4.9534,8.57484 16.8975,29.25526 h -33.7848 l -9.8963,17.14966 h 102.5044 z m -732.98692,25.72448 16.8904,29.25528 h 19.8028 l -51.25426,-88.77464 -9.9014,17.14964 14.56106,25.22008 -21.84055,37.83008 4.95019,8.57484 h 9.9014 z m -541.07938,4.0352 h 43.682155 l 4.95019,-8.57482 -4.95019,-8.57482 H -107.5714 l 16.890385,-29.25528 -9.901415,-17.14964 -51.25422,88.77464 h 19.80279 z m 451.38473,0 4.9512,-8.57482 -16.89038,-29.25528 h 33.78076 l 9.9014,-17.14964 H 263.14643 l 9.90141,17.14964 h 29.12211 l 21.84058,37.8301 z m 439.44758,-54.97974 h -19.80279 l -14.56712,25.22006 h -43.68117 l -4.94315,8.57484 4.94315,8.57482 h 33.78481 l -16.88738,29.25526 9.89638,17.14966 z m -599.6162,37.8301 H 144.6212 l -21.84059,-37.8301 h -9.9014 l -4.9512,8.57482 16.89038,29.25528 H 91.037639 l -9.9014,17.14964 H 183.64471 Z m 48.63337,33.79488 -14.56105,-25.22006 21.84159,-37.8301 -4.95122,-8.57482 h -9.9014 l -16.89038,29.25528 -16.89037,-29.25528 h -19.80281 l 51.25424,88.77464 z m -781.62476,-8.07041 16.89047,29.25528 h 19.80271 l -51.25386,-88.77464 -9.9014,17.14964 14.56109,25.22007 -21.84161,37.8301 4.95019,8.57483 h 9.9014 z m 1599.35508,4.0352 h 43.6912 l 4.9431,-8.57482 -4.9431,-8.57482 h -33.7846 l 16.8872,-29.25528 -9.8962,-17.14964 -51.2574,88.77464 h 19.8029 z m -1249.60481,-54.97974 h -19.80178 l -14.56105,25.22007 h -43.68319 l -4.95019,8.57482 4.9512,8.57482 h 33.78078 l -16.89038,29.25528 9.90138,17.14965 z m 807.83006,63.55458 16.8974,29.25526 h 19.80281 l -51.25726,-88.77463 -9.89635,17.14966 14.55703,25.22005 -21.84058,37.8301 4.95322,8.57482 h 9.89635 z m -541.075391,4.03521 h 43.682181 l 4.95119,-8.57484 -4.95119,-8.57482 H 67.158259 l 16.89038,-29.25526 -9.90138,-17.14966 -51.254255,88.77463 h 19.802802 z m 451.384731,0 4.95121,-8.57484 -16.89039,-29.25526 h 33.78076 l 9.9014,-17.14966 H 437.87609 l 9.90141,17.14966 h 29.12211 l 21.84058,37.8301 z m 439.44244,-54.97976 h -19.80269 l -14.55709,25.22007 h -43.68114 l -4.95318,8.57482 4.95318,8.57482 h 33.77476 l -16.88728,29.25528 9.90637,17.14964 z m -550.97769,71.62499 -14.56104,-25.22007 21.84161,-37.83008 -4.95123,-8.57484 h -9.9014 l -16.89038,29.25528 -16.89039,-29.25528 h -19.80279 l 51.25422,88.77463 z m -48.63335,-33.79489 h -29.12211 l -21.84059,-37.8301 h -9.9014 l -4.95119,8.57484 16.89138,29.25526 H 265.7673 l -9.90138,17.14966 h 102.50847 z m -732.9913,25.72448 16.89048,29.25528 h 19.803 l -51.25434,-88.77464 -9.9014,17.14964 14.56086,25.22006 -21.84118,37.83012 4.95069,8.57482 h 9.90131 z m 1599.36011,4.03521 h 43.6811 l 4.9532,-8.57483 -4.9532,-8.57482 h -33.7848 l 16.8973,-29.25528 -9.9064,-17.14964 -51.247,88.77464 h 19.8027 z m -1689.05477,0 4.95067,-8.57483 -16.89056,-29.25528 h 33.78107 l 9.9014,-17.14964 h -102.50808 l 9.90129,17.14964 h 29.12163 l 21.84127,37.83011 z m 439.445841,-54.97975 h -19.802786 l -14.56107,25.22006 h -43.682165 l -4.95121,8.57482 4.95121,8.57484 h 33.780785 l -16.8904,29.25528 9.9014,17.14964 z m 807.834049,63.55457 16.88738,29.25528 h 19.80275 l -51.24712,-88.77464 -9.90643,17.14964 14.55698,25.22007 -21.84053,37.83011 4.9532,8.57482 h 9.90645 z m -541.08038,4.0352 h 43.68216 l 4.95121,-8.57482 -4.95121,-8.57482 h -33.78076 l 16.89038,-29.25528 -9.9014,-17.14964 -51.25424,88.77464 h 19.80281 z m 451.38777,0 4.94309,-8.57482 -16.88733,-29.25528 h 33.78479 l 9.89635,-17.14964 H 612.60676 l 9.89637,17.14964 h 29.12414 l 21.84061,37.8301 z m 439.44439,-54.97974 h -19.8027 l -14.5671,25.22007 h -43.6811 l -4.9431,8.57482 4.9431,8.57483 h 33.7846 l -16.8873,29.25528 9.8963,17.14964 z m -550.98773,71.625 -14.55703,-25.22008 21.8406,-37.8301 -4.95322,-8.57482 h -9.89637 l -16.88736,29.25528 -16.89442,-29.25528 h -19.80275 l 51.2542,88.77464 z m -48.62832,-33.7949 h -29.12107 l -21.84163,-37.8301 h -9.9014 l -4.95121,8.57482 16.89144,29.25528 h -33.7818 l -9.9014,17.14964 h 102.50847 z m -732.99099,25.72446 16.89039,29.25528 h 19.80279 l -51.25424,-88.77463 -9.9014,17.14964 14.56107,25.22007 -21.84159,37.8301 4.9512,8.57482 h 9.9014 z m -89.69465,4.03523 4.95018,-8.57482 -16.89038,-29.25528 h 33.78077 l 9.9014,-17.14966 h -102.50777 l 9.9017,17.14966 h 29.1211 l 21.84159,37.8301 z m 439.44554,-54.97976 h -19.80281 l -14.56105,25.22007 H 61.916529 l -4.95121,8.57482 4.95121,8.57482 h 33.78076 l -16.89038,29.25528 9.9014,17.14961 z m -550.9816,71.62499 -14.56075,-25.22005 21.84118,-37.83012 -4.95069,-8.57482 h -9.90131 l -16.89059,29.25528 -16.89049,-29.25528 h -19.80271 l 51.25405,88.77465 z m -48.63307,-33.79487 h -29.12161 l -21.84129,-37.83012 h -9.90129 l -4.95069,8.57482 16.89056,29.2553 h -33.78105 l -9.9014,17.14964 h 102.50808 z m 1407.44373,25.72446 16.89733,29.25526 h 19.8029 l -51.25732,-88.77462 -9.89631,17.14964 14.55708,25.22008 -21.84066,37.8301 4.95319,8.5748 h 9.89632 z m -541.07539,4.03521 h 43.68216 l 4.95121,-8.57482 -4.95121,-8.57483 h -33.78076 l 16.89036,-29.25528 -9.9014,-17.14964 -51.25424,88.77462 19.80282,2e-5 z m 451.38274,0 4.95318,-8.57482 -16.88728,-29.25528 h 33.77457 l 9.90656,-17.14965 H 787.33141 l 9.90652,17.14965 h 29.12405 l 21.84066,37.8301 z M 697.9313,-523.12328 h -29.1241 l -21.84059,-37.8301 h -9.89637 l -4.95322,8.57482 16.88738,29.25528 h -33.77475 l -9.90644,17.14965 h 102.51452 z m 48.6344,33.7949 -14.55703,-25.22007 21.8406,-37.83011 -4.95322,-8.57482 h -9.90645 l -16.88736,29.25528 -16.88738,-29.25528 h -19.80281 l 51.24722,88.77466 z m -781.62437,-8.07043 16.890379,29.25526 H 1.6345106 l -51.2542356,-88.77462 -9.9014,17.14964 14.56105,25.22008 -21.84159,37.83008 4.95122,8.57482 h 9.9014 z m -89.69467,4.0352 4.95019,-8.57482 -16.89038,-29.25528 h 33.78077 l 9.901415,-17.14964 H -195.51883 l 9.9014,17.14964 h 29.12112 l 21.84157,37.8301 z m 439.44557,-54.97974 h -19.8028 l -14.56108,25.22007 h -43.68216 l -4.95119,8.57483 4.95119,8.57482 h 33.78078 l -16.89038,29.25524 9.90138,17.14968 z m -599.61417,37.8301 h -29.12213 l -21.84157,-37.8301 h -9.9014 l -4.95021,8.57482 16.8904,29.25528 h -33.78098 l -9.90129,17.14964 h 102.50857 z m 48.63235,33.79491 -14.56005,-25.22009 21.84059,-37.8301 -4.95019,-8.57482 h -9.9014 l -16.8904,29.25528 -16.89138,-29.25528 h -19.80179 l 51.25324,88.77464 z m 1358.81569,-8.07045 16.8875,29.25528 h 19.8027 l -51.2471,-88.77463 -9.9065,17.14966 14.557,25.22005 -21.8406,37.8301 4.9534,8.57482 h 9.9063 z m -541.08123,4.03521 43.68114,2e-5 4.95322,-8.57482 -4.95322,-8.57482 h -33.77469 l 16.88736,-29.25528 -9.90643,-17.14966 -51.24721,88.77463 h 19.8028 z m 451.38863,-2e-5 4.9433,-8.57478 -16.8875,-29.25528 h 33.7849 l 9.8962,-17.14964 H 962.06614 l 9.8963,17.14964 h 29.12406 l 21.8406,37.83008 z m -160.1674,-17.1496 h -29.12423 l -21.84048,-37.8301 h -9.90656 l -4.94312,8.57482 16.88747,29.25528 H 789.9543 l -9.89637,17.14962 102.50449,4e-5 z m 48.62427,33.79487 -14.55709,-25.22005 21.84066,-37.8301 -4.95337,-8.57482 h -9.89632 l -16.88729,29.25526 -16.89753,-29.25526 h -19.80269 l 51.25731,88.77462 z m -781.61936,-8.07041 16.89038,29.25528 h 19.8028 l -51.25426,-88.77464 -9.90138,17.14965 14.56106,25.22007 -21.8416,37.8301 4.9512,8.57482 h 9.9014 z m -541.0799,4.03519 43.68266,2e-5 4.95019,-8.57482 -4.95019,-8.57482 h -33.78137 l 16.89058,-29.25528 -9.90129,-17.14965 -51.25414,88.77464 h 19.80269 z m 451.385233,-2e-5 4.950186,-8.57482 -16.890377,-29.25524 h 33.781767 l 9.9014,-17.14965 H -20.789155 l 9.901401,17.14965 H 18.23335 l 21.841592,37.83008 z m 439.445527,-54.97971 h -19.8028 l -14.56104,25.22008 h -43.68218 l -4.95121,8.57482 4.95121,8.57482 h 33.78078 l -16.89036,29.25528 9.9014,17.14964 z m -550.981785,71.625 -14.56005,-25.22007 21.84059,-37.8301 -4.95021,-8.57483 h -9.9014 l -16.89038,29.25528 -16.890385,-29.25528 h -19.8028 l 51.253235,88.77464 z m -48.632375,-33.79488 h -29.12211 l -21.84158,-37.83012 h -9.90039 l -4.9512,8.57483 16.89038,29.25529 -33.78076,-10e-6 -9.9014,17.14962 102.50846,5e-5 z m 866.37189,29.75965 h 43.68113 l 4.94313,-8.57482 -4.94313,-8.57482 h -33.78478 l 16.88733,-29.25528 -9.89636,-17.14964 -51.25723,88.77464 h 19.8028 z m 451.3786,0 4.9532,-8.57482 -16.8873,-29.25528 h 33.7746 l 9.9065,-17.14964 h -102.5146 l 9.9066,17.14964 h 29.124 l 21.8407,37.8301 z m -1700.9914,-54.97974 h -19.80269 l -14.56085,25.22009 -43.68266,-10e-6 -4.95022,8.57482 4.95022,8.57482 h 33.78136 l -16.89057,29.25528 9.90129,17.14964 z m 1589.4581,71.625 -14.5569,-25.22008 21.8404,-37.8301 -4.9531,-8.57482 h -9.9064 l -16.8875,29.25528 -16.8872,-29.25528 h -19.8029 l 51.2573,88.77464 z m -48.6343,-33.79488 h -29.1241 l -21.84056,-37.83012 h -9.8963 l -4.9532,8.57482 16.8873,29.2553 -33.7748,-2e-5 -9.9064,17.14964 h 102.51466 z m -732.98993,25.72445 16.8904,29.25528 h 19.80278 l -51.25423,-88.77464 -9.90141,17.14966 14.56106,25.22005 -21.84157,37.8301 4.95119,8.57483 h 9.9014 z m -541.07939,4.03522 h 43.68218 l 4.95018,-8.57482 -4.95018,-8.57482 h -33.78078 l 16.89038,-29.25528 -9.9014,-17.14966 -51.25424,88.77464 h 19.8028 z m 451.38472,0 4.95021,-8.57482 -16.8904,-29.2553 33.78179,2e-5 9.9014,-17.14964 H 153.94052 l 9.9014,17.14962 h 29.12111 l 21.84157,37.83012 z m 439.44052,-54.97974 h -19.8028 l -14.55703,25.22007 -43.68114,-2e-5 -4.95322,8.57482 4.95322,8.57482 h 33.78478 l -16.89745,29.25528 9.90648,17.14965 z m -550.97676,71.62497 -14.560051,-25.22005 21.840571,-37.8301 -4.95019,-8.57482 h -9.9014 l -16.890381,29.25526 -16.89039,-29.25526 h -19.80279 l 51.253231,88.77462 z M 64.537399,-460.0731 H 35.415269 L 13.574702,-497.9032 H 3.6733006 l -4.951194,8.57482 16.8903794,29.25528 h -33.780777 l -9.901401,17.14964 H 74.438799 Z m 866.366741,29.75967 h 43.6813 l 4.9532,-8.57482 -4.9532,-8.57482 H 940.8107 l 16.88724,-29.25525 -9.90633,-17.14968 -51.24725,88.77464 h 19.80288 z m -1249.60786,-54.97973 -19.8028,-10e-6 -14.56005,25.22007 h -43.68287 l -4.9506,8.57482 4.9506,8.57482 h 33.78147 l -16.89089,29.25528 9.90131,17.14964 z m 1540.82902,37.83009 h -29.1242 l -21.8405,-37.83009 -9.9065,2e-5 -4.9432,8.57482 16.8875,29.25525 h -33.7848 l -9.8963,17.14964 h 102.5043 z m 48.6344,33.79489 -14.5672,-25.22007 21.8407,-37.83009 -4.9532,-8.57482 h -9.8965 l -16.8873,29.25527 -16.8975,-29.25527 h -19.8027 l 51.2573,88.77462 z m -781.62935,-8.07043 16.89036,29.25528 h 19.8028 l -51.2542,-88.77466 -9.9014,17.14966 14.56104,25.22008 -21.84161,37.8301 4.95121,8.57482 h 9.9014 z m -541.079395,4.03521 h 43.6821546 l 4.950207,-8.57483 -4.950207,-8.57482 H -42.047645 l 16.890376,-29.25528 -9.901401,-17.14958 -51.254235,88.77458 h 19.8028 z m 451.384725,0 4.95123,-8.57483 -16.89144,-29.25528 h 33.78179 l 9.9014,-17.14962 -102.50848,-4e-5 9.90141,17.14966 h 29.12211 l 21.84058,37.83011 z m 439.4456,-54.97973 -19.80287,-2e-5 -14.55709,25.22008 h -43.69117 l -4.9431,8.57482 4.9431,8.57482 h 33.78481 l -16.88736,29.25528 9.89636,17.14964 z m -599.6142,37.83008 h -29.12213 l -21.84059,-37.83008 -9.90138,2e-5 -4.95121,8.57478 16.89038,29.25528 h -33.78076 l -9.90141,17.14965 h 102.50848 z m 48.63335,33.7949 -14.56105,-25.22008 21.84058,-37.8301 -4.95021,-8.5748 h -9.9014 l -16.89038,29.25526 -16.89037,-29.25526 h -19.80281 l 51.25424,88.77462 z m -781.62487,-8.07043 16.89049,29.25529 h 19.80273 l -51.25407,-88.77467 -9.90129,17.14968 14.56074,25.22005 -21.84116,37.83011 4.95069,8.57483 h 9.90129 z m 1599.36324,4.03522 h 43.6812 l 4.9532,-8.57482 -4.9532,-8.57482 h -33.7849 l 16.8875,-29.25528 -9.8965,-17.1496 -51.2571,88.77459 h 19.8027 z M -143.97405,-460.0731 h -19.80279 l -14.56005,25.22005 h -43.68317 l -4.9502,8.57482 4.9502,8.57483 h 33.78177 l -16.89038,29.25528 9.9014,17.14964 z m 807.8381,63.55456 16.88738,29.25528 h 19.80275 l -51.25724,-88.77463 -9.89635,17.14964 14.55703,25.22007 -21.8406,37.8301 4.95322,8.57482 h 9.89637 z m -541.08344,4.03521 h 43.68218 l 4.95019,-8.57482 -4.95019,-8.57482 h -33.78078 l 16.8904,-29.25528 -9.9014,-17.14964 -51.254241,88.77463 h 19.802781 z m 451.38071,0 4.95322,-8.57482 -16.88738,-29.25528 h 33.77475 l 9.90644,-17.14964 H 503.39984 l 9.90141,17.14964 h 29.12212 l 21.84158,37.8301 z m 439.45448,-54.97974 h -19.80266 l -14.5671,25.22007 h -43.68113 l -4.95319,8.57482 4.95319,8.57482 h 33.78483 l -16.8975,29.25528 9.9065,17.14964 z m -550.98569,71.62499 -14.56104,-25.22007 21.84055,-37.8301 -4.95019,-8.57482 h -9.9014 l -16.89036,29.25528 -16.89041,-29.25528 h -19.80281 l 51.25426,88.77463 z m -48.63337,-33.79489 h -29.12209 l -21.84061,-37.8301 h -9.9014 l -4.95119,8.57482 16.89038,29.25528 h -33.78076 l -9.9014,17.14964 h 102.50847 z m -732.991,25.72446 16.89038,29.25528 h 19.8028 l -51.25423,-88.77464 -9.9014,17.14964 14.56105,25.22008 -21.84159,37.8301 4.95021,8.57482 h 9.9014 z m 1599.35786,4.03522 h 43.6811 l 4.9532,-8.57483 -4.9532,-8.57483 h -33.7748 l 16.8873,-29.25528 -9.9064,-17.14964 -51.2472,88.77464 h 19.8029 z m -1689.05291,0 4.95069,-8.57483 -16.89059,-29.25528 h 33.78106 l 9.9014,-17.14965 h -102.50806 l 9.90131,17.14965 h 29.12158 l 21.8413,37.83011 z M 30.755615,-434.85305 H 10.953838 l -14.5610554,25.22008 H -47.290405 l -4.95018,8.57482 4.95018,8.57482 h 33.781787 l -16.890398,29.25528 9.901401,17.14964 z m 807.833065,63.55457 16.88729,29.2553 h 19.80288 l -51.24726,-88.77466 -9.90637,17.14966 14.56715,25.22006 -21.84066,37.8301 4.94312,8.57484 h 9.90656 z m -541.07839,4.03522 h 43.68216 l 4.95121,-8.57482 -4.95121,-8.57482 h -33.78076 l 16.89038,-29.25528 -9.9014,-17.14966 -51.25424,88.77466 h 19.80281 z m 451.38576,0 4.95322,-8.57482 -16.89746,-29.25528 h 33.78478 l 9.89636,-17.14964 H 678.1285 l 9.90648,17.14964 h 29.11403 l 21.84059,37.8301 z M 1188.3405,-422.243 h -19.8029 l -14.5569,25.22005 h -43.6813 l -4.9532,8.57483 4.9532,8.57483 h 33.7748 l -16.8873,29.25527 9.8963,17.14966 z m -599.61207,37.8301 h -29.12414 l -21.84055,-37.8301 h -9.9014 l -4.95121,8.57482 16.89138,29.25528 h -33.7818 l -9.9014,17.14964 H 598.6248 Z m 48.63436,33.79488 -14.56711,-25.22006 21.84058,-37.8301 -4.94313,-8.57482 h -9.90644 l -16.88733,29.25526 -16.89745,-29.25526 H 576.1991 l 51.25726,88.77464 z m -781.62737,-8.07042 16.89037,29.25528 h 19.80281 l -51.25425,-88.77463 -9.90138,17.14964 14.56105,25.22007 -21.84159,37.8301 4.9512,8.57482 h 9.90039 z m -89.69466,4.03521 4.95019,-8.57482 -16.89038,-29.25528 h 33.78076 l 9.9014,-17.14964 h -102.50747 l 9.9014,17.14964 h 29.12111 l 21.84159,37.8301 z m 439.44554,-54.97974 h -19.8028 l -14.56106,25.22007 h -43.68216 l -4.95121,8.57482 4.95121,8.57482 h 33.78076 l -16.89038,29.25528 9.9014,17.14964 z m 807.8371,63.55456 16.8873,29.25528 h 19.8029 l -51.25726,-88.77464 -9.8963,17.14965 14.55686,25.22007 -21.84046,37.8301 4.9532,8.57482 h 9.8963 z m -541.08345,4.03523 h 43.68216 l 4.95121,-8.57484 -4.95121,-8.57482 h -33.78076 l 16.8904,-29.25528 -9.9014,-17.14965 -51.25426,88.77464 h 19.80281 z m 451.38062,0 4.95337,-8.57484 -16.88747,-29.25527 h 33.77476 l 9.90641,-17.14966 H 852.86323 l 9.89631,17.14966 h 29.12423 l 21.84048,37.83011 z m -111.53313,16.64523 -14.55709,-25.22007 21.84066,-37.8301 -4.95319,-8.57483 h -9.8965 l -16.89736,29.25528 -16.88737,-29.25528 h -19.80276 l 51.25729,88.77464 z m -48.63442,-33.79489 h -29.11401 l -21.85068,-37.83011 h -9.89635 l -4.95322,8.57483 16.89745,29.25528 h -33.78478 l -9.90645,17.14966 h 102.51453 z m -732.987939,25.72448 16.890379,29.25528 h 19.802799 l -51.254233,-88.77466 -9.9014014,17.14966 14.5610554,25.22006 -21.8415734,37.8301 4.951194,8.57484 h 9.9014014 z m -89.694666,4.0352 4.95021,-8.57482 -16.8904,-29.25528 h 33.78078 l 9.901397,-17.14964 H -129.99507 l 9.90138,17.14964 h 29.121135 l 21.84157,37.8301 z M 380.21598,-384.4129 h -19.8028 l -14.56106,25.22006 h -43.68217 l -4.9512,8.57482 4.9512,8.57484 h 33.78077 l -16.89038,29.25526 9.90139,17.14966 z m 807.83192,63.55456 16.8875,29.25528 h 19.8027 l -51.2473,-88.77463 -9.9063,17.14964 14.5671,25.22007 -21.8407,37.8301 4.9432,8.57482 h 9.9065 z m -541.08129,4.03521 h 43.68114 l 4.95322,-8.57482 -4.95322,-8.57482 h -33.77471 l 16.88738,-29.25528 -9.89637,-17.14964 -51.25729,88.77463 h 19.8028 z m 451.38869,0 4.9531,-8.57482 -16.8973,-29.25528 h 33.7848 l 9.8963,-17.14964 h -102.5043 l 9.9064,17.14964 h 29.1139 l 21.8407,37.8301 z m -111.53306,16.64525 -14.5672,-25.22007 21.8405,-37.8301 -4.9431,-8.57482 h -9.9064 l -16.8873,29.25528 -16.88746,-29.25528 h -19.80269 l 51.24705,88.77464 z m -48.63453,-33.79489 h -29.12405 l -21.84066,-37.8301 h -9.89631 l -4.95319,8.57482 16.88729,29.25528 h -33.78482 l -9.89632,17.14964 h 102.50438 z m -732.99295,25.72446 16.89038,29.25528 h 19.8028 l -51.25423,-88.77464 -9.90141,17.14965 14.56106,25.22007 -21.84159,37.8301 4.95121,8.57482 h 9.90138 z m -89.69467,4.03523 4.95019,-8.57484 -16.89038,-29.25526 h 33.78076 l 9.9014,-17.14966 H 44.734595 l 9.901404,17.14966 h 29.1211 l 21.841591,37.8301 z m 439.44352,-54.97976 h -19.80075 l -14.5611,25.22007 h -43.68215 l -4.95118,8.57482 4.95118,8.57482 h 33.78081 l -16.89042,29.25528 9.9014,17.14964 z m 266.75778,67.58978 h 43.68114 l 4.95319,-8.57482 -4.95319,-8.57484 h -33.78482 l 16.89735,-29.25526 -9.90638,-17.14966 -51.25727,88.77464 h 19.80284 z m 451.37861,0 4.9532,-8.57482 -16.8875,-29.25528 h 33.7848 l 9.8963,-17.14964 h -102.5043 l 9.8963,17.14964 h 29.1242 l 21.8405,37.8301 z m -160.1677,-17.14966 h -29.1141 l -21.8405,-37.83008 h -9.9063 l -4.9534,8.57482 16.8975,29.25526 h -33.7848 l -9.9064,17.14966 h 102.5144 z m 48.6344,33.7949 -14.5569,-25.22006 21.8404,-37.8301 -4.9531,-8.57482 h -9.8964 l -16.8975,29.25526 -16.8873,-29.25526 h -19.8029 l 51.2574,88.77464 z m -781.62228,-8.07041 16.8904,29.25528 h 19.8028 l -51.25425,-88.77464 -9.90141,17.14964 14.56106,25.22007 -21.84157,37.8301 4.95119,8.57483 h 9.9014 z m -89.69467,4.0352 4.95021,-8.57482 -16.8904,-29.25528 h 33.78179 l 9.90039,-17.14964 H 219.46428 l 9.9014,17.14964 h 29.1211 l 21.84157,37.8301 z m 439.44859,-54.97974 h -19.80281 l -14.5671,25.22005 h -43.68116 l -4.9532,8.57484 4.9532,8.57482 h 33.78478 l -16.8974,29.25528 9.90643,17.14965 z m 266.7476,67.58977 h 43.68106 l 4.9532,-8.57482 -4.9532,-8.57482 h -33.7747 l 16.8874,-29.25528 -9.8963,-17.14964 -51.25726,88.77463 h 19.8029 z m 339.85546,16.64525 -14.5671,-25.22007 21.8407,-37.8301 -4.9434,-8.57482 h -9.9063 l -16.8873,29.25528 -16.8875,-29.25528 h -19.8027 l 51.2471,88.77463 z m -48.6343,-33.79489 h -29.1242 l -21.8407,-37.8301 h -9.8963 l -4.9532,8.57482 16.8873,29.25528 h -33.7846 l -9.8965,17.14964 h 102.5045 z m -732.99604,25.72448 16.89746,29.25526 h 19.8028 l -51.25828,-88.77464 -9.9014,17.14966 14.56305,25.22006 -21.84356,37.8301 4.95121,8.57482 h 9.9014 z m -89.69163,4.03521 4.95019,-8.57483 -16.89036,-29.25528 h 33.78175 l 9.9014,-17.14966 H 394.19394 l 9.9014,17.14966 h 29.12112 l 21.84157,37.83011 z m 439.44346,-54.97977 H 884.6002 l -14.55709,25.22008 h -43.68113 l -4.95319,8.57482 4.95319,8.57482 h 33.77476 l -16.88747,29.25528 9.8965,17.14966 z m 266.75771,67.58979 h 43.6812 l 4.9531,-8.57482 -4.9531,-8.57482 h -33.7849 l 16.8974,-29.25528 -9.9064,-17.14964 -51.2573,88.77464 h 19.8029 z m -441.77481,8.57482 16.88736,29.25528 h 19.8028 l -51.25729,-88.77463 -9.89635,17.14964 14.55703,25.22007 -21.84058,37.8301 4.95322,8.57482 h 9.89635 z m -89.69266,4.03521 4.94313,-8.57482 -16.88736,-29.25528 h 33.78482 l 9.89635,-17.14964 H 568.92563 l 9.89637,17.14964 h 29.12414 l 21.84055,37.8301 z m 439.44447,-54.97974 h -19.8027 l -14.5671,25.22007 h -43.6813 l -4.95316,8.57482 4.95316,8.57482 h 33.7848 l -16.8873,29.25528 9.8963,17.14965 z m 266.7476,67.58979 h 43.6811 l 4.9532,-8.57482 -4.9532,-8.57483 h -33.7746 l 16.8873,-29.25528 -9.8963,-17.14964 -51.2573,88.77462 h 19.8029 z m -441.77472,8.57482 16.89734,29.25528 h 19.80288 l -51.25731,-88.77464 -9.90637,17.14964 14.56714,25.22008 -21.84066,37.8301 4.95319,8.57482 h 9.89631 z m -89.69266,4.0352 4.95319,-8.57482 -16.88747,-29.25528 h 33.77476 l 9.90656,-17.14964 H 743.65028 l 9.90644,17.14964 h 29.12411 l 21.84049,37.8301 z m 439.44428,-54.97974 h -19.8027 l -14.5571,25.22007 h -43.6811 l -4.9532,8.57483 4.9532,8.57482 h 33.7748 l -16.8873,29.25528 9.9064,17.14964 z m -175.0171,76.16461 16.8875,29.25528 h 19.8026 l -51.2573,-88.77464 -9.8962,17.14965 14.557,25.22005 -21.8406,37.83012 4.9534,8.57482 h 9.9063 z m -89.69256,4.03521 4.9431,-8.57482 -16.8873,-29.25528 h 33.78476 l 9.8963,-17.14965 H 918.38502 l 9.89632,17.14965 h 29.124 l 21.8407,37.8301 z m 264.41726,21.18485 16.8974,29.25529 h 19.8028 l -51.2573,-88.77465 -9.9064,17.14964 14.5672,25.22007 -21.8407,37.83009 4.9532,8.57485 h 9.8963 z m -89.6926,4.03522 4.9531,-8.57482 -16.8872,-29.2553 h 33.7745 l 9.9066,-17.14964 h -102.5146 l 9.9065,17.14964 h 29.1241 l 21.8406,37.83012 z m 174.7345,25.22007 4.9434,-8.57485 -16.8875,-29.25527 h 33.7848 l 9.8963,-17.14964 h -102.5043 l 9.8963,17.14964 h 29.124 l 21.8407,37.83012 z"
     stroke="black"
     fill="#d3d3d3"
     stroke-width="1.08106"
     id="path4"
     style="stroke:none" />
</svg>
