<?xml version="1.0" encoding="UTF-8" standalone="no"?>
<svg
   width="857.08398"
   height="354"
   version="1.1"
   id="svg2546"
   sodipodi:docname="weights.svg"
   inkscape:version="1.2 (dc2aedaf03, 2022-05-15)"
   xmlns:inkscape="http://www.inkscape.org/namespaces/inkscape"
   xmlns:sodipodi="http://sodipodi.sourceforge.net/DTD/sodipodi-0.dtd"
   xmlns="http://www.w3.org/2000/svg"
   xmlns:svg="http://www.w3.org/2000/svg"
   xmlns:rdf="http://www.w3.org/1999/02/22-rdf-syntax-ns#"
   xmlns:cc="http://creativecommons.org/ns#"
   xmlns:dc="http://purl.org/dc/elements/1.1/">
  <defs
     id="defs2550" />
  <sodipodi:namedview
     id="namedview2548"
     pagecolor="#505050"
     bordercolor="#ffffff"
     borderopacity="1"
     inkscape:showpageshadow="0"
     inkscape:pageopacity="0"
     inkscape:pagecheckerboard="1"
     inkscape:deskcolor="#505050"
     showgrid="false"
     inkscape:zoom="2.0426131"
     inkscape:cx="230.58699"
     inkscape:cy="156.41729"
     inkscape:window-width="1920"
     inkscape:window-height="1080"
     inkscape:window-x="0"
     inkscape:window-y="0"
     inkscape:window-maximized="1"
     inkscape:current-layer="svg2546" />
  <title
     id="title2540">nix-gapless</title>
  <path
     d="m 84.2935,327 15.5884,27 h 24.2487 L 69.8597,260.00002 57.7354,281 72.1691,306 50.5185,343.5 56.5807,354 H 68.705 Z"
     id="path2794" />
  <path
     d="m 176.9582,266.5 h 43.3008 l 6.063,-10.5 -6.063,-10.5 h -31.1764 l 15.5884,-27 -12.1243,-20.9999 -54.271,93.9999 h 24.2487 z"
     id="path2792" />
  <path
     d="M 119.22318,195.5 H 90.3557 L 68.705,158 H 56.5807 l -6.0622,10.5 15.5885,27 H 34.9301 l -12.1244,21 h 108.5418 z"
     id="path2790" />
  <path
     d="m 244.293,163 16.744,29 h 19.63 l -50.807,-88 -9.815,17 14.434,25 -21.6511,37.5 4.9071,8.5 h 9.815 z"
     id="path2788" />
  <path
     d="m 335.804,104.5 h 43.301 l 4.907,-8.5 -4.907,-8.5 h -33.487 l 16.744,-29 -9.815,-17 -50.807,88 h 19.63 z"
     id="path2786" />
  <path
     d="M 278.068,37.5 H 249.201 L 227.55,0 h -9.815 l -4.9071,8.5 16.7431,29 h -33.4862 l -9.815,17 H 287.883 Z"
     id="path2784" />
  <path
     d="m 404.293,318.49995 17.898,31 h 15.011 l -47.342,-82 -7.506,13 14.434,25 -21.651,37.5 3.753,6.5 h 7.506 z"
     id="path2782" />
  <path
     d="m 494.649,261.99995 h 43.301 l 3.753,-6.5 -3.753,-6.5 h -35.796 l 17.898,-31 -7.505,-13 -47.343,82 h 15.011 z"
     id="path2780" />
  <path
     d="m 436.914,198.99995 h -28.868 l -21.65,-37.5 h -7.506 l -3.753,6.5 17.898,31 h -35.796 l -7.505,13 h 94.685 z"
     id="path2778" />
  <path
     d="m 564.293,154.49995 19.053,33 h 10.392 l -43.878,-76 -5.196,9 14.433,25 -21.65,37.5 2.598,4.5 h 5.196 z"
     id="path2776" />
  <path
     d="m 653.494,99.99995 h 43.301 l 2.598,-4.5 -2.598,-4.5 H 658.69 l 19.053,-33 -5.196,-9 -43.879,76 h 10.392 z"
     id="path2774" />
  <path
     d="m 595.759,40.99995 h -28.867 l -21.651,-37.5 h -5.196 l -2.598,4.5 19.052,33 h -38.105 l -5.196,9 h 87.757 z"
     id="path2772" />
  <path
     d="m 724.293,307.50002 20.208,35 h 5.773 l -40.414,-70 -2.887,5 14.434,25 -21.651,37.5 1.443,2.5 h 2.887 z"
     id="path2770" />
  <path
     d="m 812.339,255.00002 h 43.302 l 1.443,-2.5 -1.443,-2.5 h -40.415 l 20.207,-35 -2.886,-5 -40.415,70 h 5.774 z"
     id="path2768" />
  <path
     d="m 754.604,200.00002 h -28.867 l -21.651,-37.5 h -2.887 l -1.443,2.5 20.207,35 h -40.414 l -2.887,5 h 80.829 z"
     id="path2542" />
  <path
     d="m 175.8035,343.5 -15.5885,-27 h 31.1769 l 12.1244,-21 H 94.9745 l 12.12432,21 H 135.9663 L 157.617,354 h 12.1243 z"
     id="path2764" />
  <path
     d="M 88.0463,220.5 H 63.7976 l -14.4338,25 H 6.063 L 0,256 6.063,266.5 h 31.1764 l -15.5884,27 12.1243,20.9999 z"
     id="path2762" />
  <path
     d="M 168.5866,231 154.1529,206 175.8035,168.5 169.7413,158 H 157.617 l -15.5885,27 -15.5884,-27 h -24.2487 l 54.2709,93.99998 z"
     id="path2760" />
  <path
     d="m 328.587,192 4.907,-8.5 -16.743,-29 h 33.486 l 9.815,-17 H 258.439 l 9.815,17 h 28.867 l 21.651,37.5 z"
     id="path2758" />
  <path
     d="m 244.582,62.5 h -19.63 l -14.4335,25 h -43.3013 l -4.9074,8.5 4.9075,8.5 h 33.4863 l -16.7432,29 9.8149,17 z"
     id="path2756" />
  <path
     d="M 326.277,71 311.843,46 333.494,8.5 328.587,0 h -9.815 L 302.029,29 285.285,0 h -19.63 l 50.807,88 z"
     id="path2754" />
  <path
     d="m 491.185,342.99995 -17.898,-31 h 35.796 l 7.505,-13 h -94.685 l 7.505,13 h 28.868 l 21.65,37.5 h 7.506 z"
     id="path2752" />
  <path
     d="m 401.118,223.99995 h -15.011 l -14.434,25 h -43.301 l -3.753,6.5 3.753,6.5 h 35.796 l -17.898,31 7.505,13 z"
     id="path2750" />
  <path
     d="m 483.968,230.49995 -14.434,-25 21.651,-37.5 -3.753,-6.5 h -7.506 l -17.897,31 -17.898,-31 H 429.12 l 47.342,82 z"
     id="path2748" />
  <path
     d="m 648.875,182.99995 -19.052,-33 h 38.105 l 5.196,-9 h -87.757 l 5.196,9 h 28.867 l 21.651,37.5 h 5.196 z"
     id="path2746" />
  <path
     d="m 557.654,65.99995 h -10.392 l -14.434,25 h -43.301 l -2.598,4.5 2.598,4.5 h 38.105 l -19.053,33 5.196,9 z"
     id="path2744" />
  <path
     d="m 641.658,70.49995 -14.433,-25 21.65,-37.5 -2.598,-4.5 h -5.196 l -19.052,33 -19.053,-33 h -10.392 l 43.878,76 z"
     id="path2742" />
  <path
     d="m 806.566,340.00002 -20.207,-35 h 40.414 l 2.887,-5 h -80.829 l 2.887,5 h 28.867 l 21.651,37.5 h 2.887 z"
     id="path2740" />
  <path
     d="m 714.19,225.00002 h -5.774 l -14.433,25 h -43.302 l -1.443,2.5 1.443,2.5 h 40.415 l -20.207,35 2.886,5 z"
     id="path2738" />
  <path
     d="m 799.349,227.50002 -14.434,-25 21.651,-37.5 -1.443,-2.5 h -2.887 l -20.207,35 -20.208,-35 h -5.773 l 40.414,70 z"
     id="path2544" />
  <metadata
     id="metadata2932">
    <rdf:RDF>
      <cc:Work
         rdf:about="">
        <dc:title>nix-gapless</dc:title>
      </cc:Work>
    </rdf:RDF>
  </metadata>
</svg>
