<?xml version="1.0" encoding="UTF-8" standalone="no"?>
<svg
   xmlns:svg="http://www.w3.org/2000/svg"
   xmlns="http://www.w3.org/2000/svg"
   viewBox="0 0 42 32"
   version="1.1"
   id="svg5"
   width="42"
   height="32"
   >
  <metadata
     id="metadata9">
    </metadata>
  <defs
     id="defs3051">
    <style
       type="text/css"
       id="current-color-scheme">
      .ColorScheme-Text {
        color:#4d4d4d;
      }
      </style>
  </defs>
  <path
     style="color:#4d4d4d;fill:currentColor;fill-opacity:1;stroke:none;stroke-width:0.99999994"
     d="M 33,0.58817499 7,26.351259 12.126292,32 38.479691,5.6487407 Z M 10.020879,0.02599555 8.9601917,1.9600328 7.0259972,3.0206339 8.9601917,4.081235 10.020879,6.0152723 11.081566,4.081235 13.015761,3.0206339 11.081566,1.9600328 Z m 9.982939,0 L 18.943131,1.9600328 17.008937,3.0206339 18.943131,4.081235 20.003818,6.0152723 21.064505,4.081235 22.998701,3.0206339 21.064505,1.9600328 Z M 33,1.6487407 l 4.351918,3.9040225 -7,6.9999998 L 26,8.6487407 Z m -18.985946,6.3629572 -1.060686,1.9340373 -1.934195,1.0606008 1.934195,1.060601 1.060686,1.934038 1.060689,-1.934038 1.934194,-1.060601 -1.934194,-1.0606008 z"
     id="path74"
     class="ColorScheme-Text"
     />
</svg>
