<?xml version="1.0" encoding="UTF-8" standalone="no"?>
<svg
   viewBox="0 0 42 32"
   version="1.1"
   id="svg6"
   sodipodi:docname="next-boot-entry.svg"
   width="42"
   height="32"
   inkscape:version="1.3.1 (91b66b0783, 2023-11-16)"
   xmlns:inkscape="http://www.inkscape.org/namespaces/inkscape"
   xmlns:sodipodi="http://sodipodi.sourceforge.net/DTD/sodipodi-0.dtd"
   xmlns="http://www.w3.org/2000/svg"
   xmlns:svg="http://www.w3.org/2000/svg"
   xmlns:rdf="http://www.w3.org/1999/02/22-rdf-syntax-ns#"
   xmlns:cc="http://creativecommons.org/ns#"
   xmlns:dc="http://purl.org/dc/elements/1.1/">
  <metadata
     id="metadata10">
    <rdf:RDF>
      <cc:Work
         rdf:about="">
        <dc:format>image/svg+xml</dc:format>
        <dc:type
           rdf:resource="http://purl.org/dc/dcmitype/StillImage" />
      </cc:Work>
    </rdf:RDF>
  </metadata>
  <sodipodi:namedview
     pagecolor="#ffffff"
     bordercolor="#666666"
     borderopacity="1"
     objecttolerance="10"
     gridtolerance="10"
     guidetolerance="10"
     inkscape:pageopacity="0"
     inkscape:pageshadow="2"
     inkscape:window-width="2556"
     inkscape:window-height="1412"
     id="namedview8"
     showgrid="true"
     inkscape:zoom="16"
     inkscape:cx="15.21875"
     inkscape:cy="22.59375"
     inkscape:window-x="0"
     inkscape:window-y="0"
     inkscape:window-maximized="1"
     inkscape:current-layer="svg6"
     inkscape:showpageshadow="2"
     inkscape:pagecheckerboard="0"
     inkscape:deskcolor="#d1d1d1">
    <inkscape:grid
       type="xygrid"
       id="grid817"
       originx="0"
       originy="0"
       spacingy="1"
       spacingx="1"
       units="px"
       visible="true" />
  </sodipodi:namedview>
  <defs
     id="defs3051">
    <style
       type="text/css"
       id="current-color-scheme">
      .ColorScheme-Text {
        color:#4d4d4d;
      }
      </style>
  </defs>
  <path
     style="color:#232629;fill:#4d4d4d;fill-opacity:1;stroke:none"
     d="M 25,4 A 12,12 0 0 0 13,16 12,12 0 0 0 25,28 12,12 0 0 0 37,16 12,12 0 0 0 25,4 Z m 0,1 A 11,11 0 0 1 36,16 11,11 0 0 1 25,27 11,11 0 0 1 14,16 11,11 0 0 1 25,5 Z M 21.7,8 21,8.7 28.5,16 21,23.3 21.7,24 30,16 Z"
     class="ColorScheme-Text"
     id="path1" />
</svg>
