<?xml version="1.0" encoding="UTF-8" standalone="no"?>
<svg
   xmlns:svg="http://www.w3.org/2000/svg"
   xmlns="http://www.w3.org/2000/svg"
   viewBox="0 0 42 32"
   version="1.1"
   id="svg6"
   width="42"
   height="32"
   >
  <metadata
     id="metadata10">
    </metadata>
  <defs
     id="defs3051">
    <style
       type="text/css"
       id="current-color-scheme">
      .ColorScheme-Text {
        color:#4d4d4d;
      }
      </style>
  </defs>
  <path
     style="color:#4d4d4d;fill:currentColor;fill-opacity:1;stroke:none;stroke-width:1"
     d="M 9,-4e-7 V 32 h 1.999974 13.999817 V 30 H 10.999974 V 1.9999997 L 34,1.9999976 V 20 h 1.999974 V -2.5e-6 H 34 L 10.999974,-4e-7 Z M 26.636133,16 c -3.323963,0 -5.999922,2.675994 -5.999922,6.000002 0,3.324004 2.675959,5.999998 5.999922,5.999998 1.298766,0 2.492674,-0.417172 3.472609,-1.113281 L 35.221958,32 36.636,30.585938 31.522784,25.472658 c 0.696102,-0.979949 1.113269,-2.173874 1.113269,-3.472656 C 32.636053,18.675994 29.960092,16 26.636133,16 Z m 0,1.999999 c 2.215976,0 3.999946,1.783995 3.999946,4.000003 0,2.216006 -1.78397,3.999998 -3.999946,3.999998 -2.215978,0 -3.999949,-1.783992 -3.999949,-3.999998 0,-2.216008 1.783971,-4.000003 3.999949,-4.000003 z"
     class="ColorScheme-Text"
     id="path4"
     />
</svg>
