<?xml version="1.0" encoding="UTF-8" standalone="no"?>
<svg
   xmlns:svg="http://www.w3.org/2000/svg"
   xmlns="http://www.w3.org/2000/svg"
   viewBox="0 0 42 32"
   version="1.1"
   id="svg6"
   width="42"
   height="32"
   >
  <metadata
     id="metadata10">
    </metadata>
  <defs
     id="defs3051">
    <style
       type="text/css"
       id="current-color-scheme">
      .ColorScheme-Text {
        color:#4d4d4d;
      }
      </style>
  </defs>
  <path
     style="color:#4d4d4d;fill:currentColor;fill-opacity:1;stroke:none;stroke-width:1"
     d="M 21.666666,9e-7 V 0.0677079 1.4062492 12.000001 H 24 V 1.4010425 0.0625012 1.2e-6 h -1 z m 3.559667,0.2265627 v 1.3619786 c 6.949858,1.285027 12.435154,7.3438004 12.440333,14.4114588 0,8.100176 -6.56649,14.666666 -14.666666,14.666666 -8.100176,0 -14.6666667,-6.56649 -14.6666667,-14.666666 C 8.3372574,8.931361 13.382511,2.8711445 20.333333,1.5859382 V 0.2421889 C 12.64187,1.5422783 7.0089718,8.1994398 7,16.000001 7.0000006,24.836557 14.163444,32 23,32 31.836555,31.999999 38.999998,24.836556 38.999999,16.000001 38.998645,8.1935327 32.923615,1.5276417 25.226333,0.2265636 Z"
     class="ColorScheme-Text"
     id="path4"
     />
</svg>
