<?xml version="1.0" encoding="UTF-8" standalone="no"?>
<svg
   xmlns:svg="http://www.w3.org/2000/svg"
   xmlns="http://www.w3.org/2000/svg"
   viewBox="0 0 32 32"
   version="1.1"
   id="svg5"
   width="32"
   height="32"
   >
  <metadata
     id="metadata9">
    </metadata>
  <defs
     id="defs3051">
    <style
       type="text/css"
       id="current-color-scheme">
      .ColorScheme-Text {
        color:#4d4d4d;
      }
      </style>
    <style
       id="current-color-scheme-6"
       type="text/css">
      .ColorScheme-Text {
        color:#4d4d4d;
      }
      </style>
  </defs>
  <path
     style="color:#4d4d4d;fill:currentColor;fill-opacity:1;stroke:none;stroke-width:1"
     d="m 15,9 v 2 h 2 V 9 Z m 0,5 v 9 h 2 v -9 z"
     id="path55"
     class="ColorScheme-Text"
     />
  <path
     id="path816-7"
     class="ColorScheme-Text"
     d="M 16,4 C 9.372583,4 4,9.372583 4,16 4,22.627417 9.372583,28 16,28 22.627417,28 28,22.627417 28,16 28,9.372583 22.627417,4 16,4 Z m 0,1 C 22.075132,5 27,9.924868 27,16 27,22.075132 22.075132,27 16,27 9.924868,27 5,22.075132 5,16 5,9.924868 9.924868,5 16,5 Z"
     style="color:#4d4d4d;fill:currentColor;fill-opacity:1;stroke:none"
     />
</svg>
