<?xml version="1.0" encoding="UTF-8" standalone="no"?>
<svg
   viewBox="0 0 32 32"
   version="1.1"
   id="svg1"
   sodipodi:docname="func_firmware.svg"
   xmlns:inkscape="http://www.inkscape.org/namespaces/inkscape"
   xmlns:sodipodi="http://sodipodi.sourceforge.net/DTD/sodipodi-0.dtd"
   xmlns="http://www.w3.org/2000/svg"
   xmlns:svg="http://www.w3.org/2000/svg">
  <sodipodi:namedview
     id="namedview1"
     pagecolor="#ffffff"
     bordercolor="#000000"
     borderopacity="0.25"
     inkscape:showpageshadow="2"
     inkscape:pageopacity="0.0"
     inkscape:pagecheckerboard="0"
     inkscape:deskcolor="#d1d1d1" />
  <defs
     id="defs3051">
    <style
       type="text/css"
       id="current-color-scheme">
      .ColorScheme-Text {
        color:#4d4d4d;
      }
      </style>
  </defs>
  <path
     style="fill:currentColor;fill-opacity:1;stroke:none"
     d="M 4 4 L 4 28 L 28 28 L 28 4 L 4 4 z M 5 9 L 27 9 L 27 27 L 5 27 L 5 9 z M 7 11 L 7 25 L 13 25 L 13 11 L 7 11 z M 15 12 L 15 13 L 25 13 L 25 12 L 15 12 z M 15 17 L 15 18 L 23 18 L 23 17 L 15 17 z M 15 22 L 15 23 L 19 23 L 19 22 L 15 22 z "
     id="path18"
     class="ColorScheme-Text" />
</svg>
