<?xml version="1.0" encoding="UTF-8" standalone="no"?>
<svg
   viewBox="0 0 32 32"
   version="1.1"
   id="svg1"
   sodipodi:docname="tool_memtest.svg"
   xmlns:inkscape="http://www.inkscape.org/namespaces/inkscape"
   xmlns:sodipodi="http://sodipodi.sourceforge.net/DTD/sodipodi-0.dtd"
   xmlns="http://www.w3.org/2000/svg"
   xmlns:svg="http://www.w3.org/2000/svg">
  <sodipodi:namedview
     id="namedview1"
     pagecolor="#ffffff"
     bordercolor="#000000"
     borderopacity="0.25"
     inkscape:showpageshadow="2"
     inkscape:pageopacity="0.0"
     inkscape:pagecheckerboard="0"
     inkscape:deskcolor="#d1d1d1" />
  <defs
     id="defs3051">
    <style
       type="text/css"
       id="current-color-scheme">
      .ColorScheme-Text {
        color:#4d4d4d;
      }
      </style>
  </defs>
  <path
     style="fill:currentColor;fill-opacity:1;stroke:none"
     d="M 4 4 L 4 28 L 28 28 L 28 4 L 4 4 z M 5 9 L 27 9 L 27 27 L 5 27 L 5 9 z M 8 11 L 8 17 L 15 17 L 15 11 L 8 11 z M 17 11 L 17 17 L 24 17 L 24 11 L 17 11 z M 9 12 L 14 12 L 14 16 L 9 16 L 9 12 z M 18 12 L 23 12 L 23 16 L 18 16 L 18 12 z M 8 19 L 8 25 L 15 25 L 15 19 L 8 19 z M 17 19 L 17 25 L 24 25 L 24 19 L 17 19 z M 9 20 L 14 20 L 14 24 L 9 24 L 9 20 z M 18 20 L 23 20 L 23 24 L 18 24 L 18 20 z "
     id="path45"
     class="ColorScheme-Text" />
</svg>
