<?xml version="1.0" encoding="UTF-8" standalone="no"?>
<svg
   width="230.94"
   height="200"
   version="1.1"
   id="svg15"
   sodipodi:docname="nix-gapless.svg"
   xmlns:inkscape="http://www.inkscape.org/namespaces/inkscape"
   xmlns:sodipodi="http://sodipodi.sourceforge.net/DTD/sodipodi-0.dtd"
   xmlns="http://www.w3.org/2000/svg"
   xmlns:svg="http://www.w3.org/2000/svg">
  <defs
     id="defs19" />
  <sodipodi:namedview
     id="namedview17"
     pagecolor="#505050"
     bordercolor="#ffffff"
     borderopacity="1"
     inkscape:showpageshadow="0"
     inkscape:pageopacity="0"
     inkscape:pagecheckerboard="1"
     inkscape:deskcolor="#505050" />
  <title
     id="title9">nix-gapless</title>
  <path
     d="M 122.68687,37.5 H 93.8194 L 72.1687,0 H 57.735 l -7.2169,12.5 14.4338,25 H 36.0844 l -14.4338,25 h 115.47 z m 57.73503,75 H 223.723 L 230.94,100 223.723,87.5 h -28.8673 l 14.4337,-25 -14.4337,-25 -57.7351,100 h 28.8675 z m -93.8194,62.5 14.4337,25 h 28.8675 L 72.1687,100 57.735,125 72.1687,150 50.5181,187.5 57.735,200 h 14.4337 z"
     fill="#5277c3"
     id="path11" />
  <path
     d="M 173.205,75 158.7713,50 180.4219,12.5 173.205,0 H 158.7713 L 144.3375,25 129.9038,0 h -28.8675 l 57.735,100 z M 93.8194,62.5 H 64.9519 l -14.4338,25 H 7.217 L 0,100 7.217,112.5 h 28.8673 l -14.4337,25 14.4337,25 z m 86.6025,125 -14.4338,-25 h 28.8675 l 14.4338,-25 h -115.47 l 14.43373,25 h 28.86747 l 21.6507,37.5 h 14.4337 z"
     fill="#7caedc"
     id="path13" />
</svg>
