<?xml version="1.0" standalone="no"?>
<!DOCTYPE svg PUBLIC "-//W3C//DTD SVG 1.1//EN" "http://www.w3.org/Graphics/SVG/1.1/DTD/svg11.dtd">
<svg width="0mm" height="0mm" xmlns="http://www.w3.org/2000/svg" version="1.1">
<title>nix-grid</title>
<path d="
M -44.7446,-99 L -56.2916,-99 L -50.5181,-89 z
M -43.4456,-98.25 L -49.2191,-88.25 L -37.6721,-88.25 z
M -57.5907,-98.25 L -63.3642,-88.25 L -51.8172,-88.25 z
M -37.3834,-86.75 L -49.2191,-86.75 L -43.3013,-76.5 z
M -51.8172,-86.75 L -63.3642,-86.75 L -57.5907,-76.75 z
M -50.5181,-86 L -56.436,-75.75 L -44.6003,-75.75 z
M -36.2287,-85.75 L -42.0022,-75.75 L -30.4552,-75.75 z
M -30.1665,-74.25 L -42.0022,-74.25 L -36.0844,-64 z
M -44.6003,-74.25 L -56.1473,-74.25 L -50.3738,-64.25 z
M -43.3013,-73.5 L -49.2191,-63.25 L -37.3834,-63.25 z
M -29.0119,-73.25 L -34.7854,-63.25 L -23.2383,-63.25 z
M -22.9497,-61.75 L -34.7854,-61.75 L -28.8675,-51.5 z
M -37.3834,-61.75 L -48.9304,-61.75 L -48.7861,-61.5 L -49.0748,-61.5 L -43.3013,-51.5 z
M -66.3953,-61.5 L -77.9423,-61.5 L -72.1688,-51.5 z
M -8.66026,-61.5 L -20.2073,-61.5 L -14.4338,-51.5 z
M -51.9615,-61.5 L -63.5085,-61.5 L -57.735,-51.5 z
M 5.7735,-61.5 L -5.7735,-61.5 L 0,-51.5 z
M -21.6506,-61 L -27.5685,-50.75 L -15.7328,-50.75 z
M -64.9519,-61 L -70.8698,-50.75 L -59.0341,-50.75 z
M -50.5181,-61 L -56.436,-50.75 L -44.6003,-50.75 z
M -36.0844,-61 L -42.0022,-50.75 L -30.1665,-50.75 z
M -7.21687,-61 L -13.1347,-50.75 L -1.29903,-50.75 z
M 7.07253,-60.75 L 1.29903,-50.75 L 12.846,-50.75 z
M -79.2413,-60.75 L -85.0148,-50.75 L -73.4678,-50.75 z
M 79.3857,-60.4999 L 73.7565,-50.75 L 85.0148,-50.75 z
M -15.7328,-49.25 L -27.5685,-49.25 L -21.6506,-39 z
M -73.4678,-49.25 L -85.3035,-49.25 L -79.3857,-39 z
M -59.0341,-49.25 L -70.8698,-49.25 L -64.9519,-39 z
M -44.6003,-49.25 L -56.436,-49.25 L -50.5181,-39 z
M -30.1665,-49.25 L -42.0022,-49.25 L -36.0844,-39 z
M -1.29903,-49.25 L -13.1347,-49.25 L -7.21687,-39 z
M 85.3035,-49.25 L 73.4678,-49.25 L 79.3857,-39 z
M 13.1347,-49.25 L 1.29903,-49.25 L 7.21687,-39 z
M -43.3013,-48.5 L -49.0748,-38.5 L -37.5278,-38.5 z
M 0,-48.5 L -5.77351,-38.5 L 5.77351,-38.5 z
M -14.4338,-48.5 L -20.2073,-38.5 L -8.66025,-38.5 z
M -57.735,-48.5 L -63.5085,-38.5 L -51.9615,-38.5 z
M -28.8675,-48.5 L -34.641,-38.5 L -23.094,-38.5 z
M -72.1688,-48.5 L -77.9423,-38.5 L -66.3953,-38.5 z
M -86.4582,-48.25 L -92.0873,-38.5 L -80.829,-38.5 z
M 14.2894,-48.25 L 8.66025,-38.5 L 19.9186,-38.5 z
M 86.4582,-48.25 L 80.6847,-38.25 L 92.2317,-38.25 z
M 72.3131,-48.25 L 66.5396,-38.25 L 78.0866,-38.25 z
M 78.0866,-36.75 L 66.2509,-36.75 L 72.1688,-26.5 z
M 92.2317,-36.75 L 80.6847,-36.75 L 86.4582,-26.75 z
M 79.3857,-36 L 73.4678,-25.75 L 85.3035,-25.75 z
M 65.0963,-35.75 L 59.3228,-25.75 L 70.8698,-25.75 z
M 85.0148,-24.25 L 73.4678,-24.25 L 79.2413,-14.25 z
M 70.8698,-24.25 L 59.0341,-24.25 L 64.9519,-14 z
M 72.1688,-23.5 L 66.2509,-13.25 L 78.0866,-13.25 z
M 57.8794,-23.25 L 52.1059,-13.25 L 63.6529,-13.25 z
M 63.6529,-11.75 L 51.8172,-11.75 L 57.735,-1.49998 z
M 77.9423,-11.5 L 77.6536,-11.5 L 77.7979,-11.75 L 66.2509,-11.75 L 72.1688,-1.49998 z
M 92.3761,-11.5 L 80.829,-11.5 L 86.6025,-1.49998 z
M 106.81,-11.5 L 95.2628,-11.5 L 101.036,-1.49998 z
M 64.9519,-11 L 59.0341,-0.75 L 70.8698,-0.75 z
M 79.3857,-11 L 73.4678,-0.75 L 85.3035,-0.75 z
M 93.8194,-11 L 87.9016,-0.75 L 99.7373,-0.75 z
M 50.6625,-10.75 L 44.889,-0.75 L 56.436,-0.75 z
M 108.109,-10.75 L 102.335,-0.75 L 113.882,-0.75 z
M 113.882,0.75 L 102.335,0.75 L 108.109,10.75 z
M 99.7373,0.75 L 87.9016,0.75 L 93.8194,11 z
M 85.3035,0.75 L 73.4678,0.75 L 79.3857,11 z
M 70.8698,0.75 L 59.0341,0.75 L 64.9519,11 z
M 56.436,0.75 L 44.6003,0.75 L 50.5181,11 z
M 92.376,11.5 L 86.6025,1.49998 L 80.829,11.5 z
M 106.81,11.5 L 101.036,1.49998 L 95.2628,11.5 z
M 77.9423,11.5 L 72.1688,1.49998 L 66.3953,11.5 z
M 57.735,1.49998 L 51.8172,11.75 L 63.6529,11.75 z
M 43.4456,1.75 L 37.6721,11.75 L 49.2191,11.75 z
M -43.3013,2 L -48.9304,11.75 L -37.6721,11.75 z
M 63.3642,13.25 L 51.8172,13.25 L 57.5907,23.25 z
M 49.2191,13.25 L 37.3834,13.25 L 43.3013,23.5 z
M -37.3834,13.25 L -49.2191,13.25 L -43.3013,23.5 z
M 50.5181,14 L 44.6003,24.25 L 56.436,24.25 z
M -36.2287,14.25 L -42.0022,24.25 L -30.4552,24.25 z
M 36.2287,14.25 L 30.4552,24.25 L 42.0022,24.25 z
M -50.3738,14.25 L -56.1473,24.25 L -44.6003,24.25 z
M 56.1473,25.75 L 44.6003,25.75 L 50.3738,35.75 z
M 42.0022,25.75 L 30.1665,25.75 L 36.0844,36 z
M -30.1665,25.75 L -42.0022,25.75 L -36.0844,36 z
M -44.6003,25.75 L -56.1473,25.75 L -50.3738,35.75 z
M 43.3013,26.5 L 37.5278,36.5 L 49.0748,36.5 z
M -43.3013,26.5 L -49.2191,36.75 L -37.3834,36.75 z
M 29.0118,26.75 L 23.3827,36.5 L 34.641,36.5 z
M -29.0119,26.75 L -34.7854,36.75 L -23.2384,36.75 z
M -22.9497,38.25 L -34.7854,38.25 L -28.8675,48.5 z
M -37.3834,38.25 L -48.9304,38.25 L -43.1569,48.25 z
M -36.0844,39 L -42.0022,49.25 L -30.1665,49.25 z
M -21.795,39.25 L -27.5685,49.25 L -16.0215,49.25 z
M -30.1665,50.75 L -42.0022,50.75 L -36.0844,61 z
M -15.7328,50.75 L -27.5685,50.75 L -21.6506,61 z
M -28.8675,51.5 L -34.7854,61.75 L -22.9497,61.75 z
M -43.1569,51.75 L -48.9304,61.75 L -37.3834,61.75 z
M -14.5781,51.75 L -20.3516,61.75 L -8.80461,61.75 z
M -22.9497,63.25 L -34.7854,63.25 L -29.0119,73.25 L -28.8675,73 L -28.7232,73.25 z
M -8.51591,63.25 L -20.3516,63.25 L -14.4338,73.5 z
M -37.3834,63.25 L -49.2191,63.25 L -43.3013,73.5 z
M -36.0844,64 L -42.0022,74.25 L -30.1665,74.25 z
M -21.6506,64 L -27.5685,74.25 L -15.7328,74.25 z
M -50.3738,64.25 L -56.1473,74.25 L -44.6003,74.25 z
M -7.36122,64.25 L -13.1347,74.25 L -1.58774,74.25 z
M -30.4552,75.75 L -42.0022,75.75 L -36.2287,85.75 z
M -1.29903,75.75 L -13.1347,75.75 L -7.21687,86 z
M -44.6003,75.75 L -56.436,75.75 L -50.5181,86 z
M -15.7328,75.75 L -27.2798,75.75 L -21.5063,85.75 z
M -14.4338,76.5 L -20.3516,86.75 L -8.51591,86.75 z
M -43.3013,76.5 L -49.2191,86.75 L -37.3834,86.75 z
M -57.5907,76.75 L -63.3642,86.75 L -51.8172,86.75 z
M -0.144348,76.75 L -5.91785,86.75 L 5.62914,86.75 z
M -37.6721,88.25 L -49.2191,88.25 L -43.4456,98.25 z
M 5.91785,88.25 L -5.91785,88.25 L 0,98.5 z
M -51.8172,88.25 L -63.3642,88.25 L -57.5907,98.25 z
M -8.51591,88.25 L -20.0629,88.25 L -14.2894,98.25 z
M -50.5181,89 L -56.2916,99 L -44.7446,99 z
M -7.21687,89 L -12.9904,99 L -1.44339,99 z
M 7.07253,89.25 L 1.44339,99 L 12.7017,99 z
"  fill="#5277c3" />
<path d="
M -1.44339,-99 L -12.7017,-99 L -7.07253,-89.25 z
M 56.2916,-99 L 44.7446,-99 L 50.5181,-89 z
M 12.9904,-99 L 1.44339,-99 L 7.21687,-89 z
M 0,-98.5 L -5.91785,-88.25 L 5.91785,-88.25 z
M 14.2894,-98.25 L 8.51591,-88.25 L 20.0629,-88.25 z
M 43.4456,-98.25 L 37.6721,-88.25 L 49.2191,-88.25 z
M 57.5907,-98.25 L 51.8172,-88.25 L 63.3642,-88.25 z
M 49.2191,-86.75 L 37.3834,-86.75 L 43.3013,-76.5 z
M 63.3642,-86.75 L 51.8172,-86.75 L 57.5907,-76.75 z
M 20.3516,-86.75 L 8.51591,-86.75 L 14.4338,-76.5 z
M 5.91785,-86.75 L -5.62914,-86.75 L 0.144348,-76.75 z
M 7.21687,-86 L 1.29903,-75.75 L 13.1347,-75.75 z
M 50.5181,-86 L 44.6003,-75.75 L 56.436,-75.75 z
M 21.5063,-85.75 L 15.7328,-75.75 L 27.2798,-75.75 z
M 36.2287,-85.75 L 30.4552,-75.75 L 42.0022,-75.75 z
M 56.1473,-74.25 L 44.6003,-74.25 L 50.3738,-64.25 z
M 42.0022,-74.25 L 30.1665,-74.25 L 36.0844,-64 z
M 27.5685,-74.25 L 15.7328,-74.25 L 21.6506,-64 z
M 13.1347,-74.25 L 1.58774,-74.25 L 7.36122,-64.25 z
M 43.3013,-73.5 L 37.3834,-63.25 L 49.2191,-63.25 z
M 14.4338,-73.5 L 8.51591,-63.25 L 20.3516,-63.25 z
M 29.0119,-73.25 L 28.8675,-73 L 28.7232,-73.25 L 22.9497,-63.25 L 34.7854,-63.25 z
M 34.7854,-61.75 L 22.9497,-61.75 L 28.8675,-51.5 z
M 48.9304,-61.75 L 37.3834,-61.75 L 43.1569,-51.75 z
M 20.3516,-61.75 L 8.80461,-61.75 L 14.5781,-51.75 z
M 36.0844,-61 L 30.1665,-50.75 L 42.0022,-50.75 z
M 21.6506,-61 L 15.7328,-50.75 L 27.5685,-50.75 z
M 42.0022,-49.25 L 30.1665,-49.25 L 36.0844,-39 z
M 27.5685,-49.25 L 16.0215,-49.25 L 21.795,-39.25 z
M 28.8675,-48.5 L 22.9497,-38.25 L 34.7854,-38.25 z
M 43.1569,-48.25 L 37.3834,-38.25 L 48.9304,-38.25 z
M 49.2191,-36.75 L 37.3834,-36.75 L 43.3013,-26.5 z
M 34.7854,-36.75 L 23.2384,-36.75 L 29.0119,-26.75 z
M -37.5278,-36.5 L -49.0748,-36.5 L -43.3013,-26.5 z
M -23.3827,-36.5 L -34.641,-36.5 L -29.0118,-26.75 z
M -36.0844,-36 L -42.0022,-25.75 L -30.1665,-25.75 z
M 36.0844,-36 L 30.1665,-25.75 L 42.0022,-25.75 z
M 50.3738,-35.75 L 44.6003,-25.75 L 56.1473,-25.75 z
M -50.3738,-35.75 L -56.1473,-25.75 L -44.6003,-25.75 z
M 56.1473,-24.25 L 44.6003,-24.25 L 50.3738,-14.25 z
M -30.4552,-24.25 L -42.0022,-24.25 L -36.2287,-14.25 z
M -44.6003,-24.25 L -56.436,-24.25 L -50.5181,-14 z
M 42.0022,-24.25 L 30.4552,-24.25 L 36.2287,-14.25 z
M -43.3013,-23.5 L -49.2191,-13.25 L -37.3834,-13.25 z
M 43.3013,-23.5 L 37.3834,-13.25 L 49.2191,-13.25 z
M -57.5907,-23.25 L -63.3642,-13.25 L -51.8172,-13.25 z
M -51.8172,-11.75 L -63.6529,-11.75 L -57.735,-1.49998 z
M -37.6721,-11.75 L -49.2191,-11.75 L -43.4456,-1.75 z
M 48.9304,-11.75 L 37.6721,-11.75 L 43.3013,-2 z
M -66.3953,-11.5 L -77.9423,-11.5 L -72.1688,-1.49998 z
M -80.829,-11.5 L -92.376,-11.5 L -86.6025,-1.49998 z
M -95.2628,-11.5 L -106.81,-11.5 L -101.036,-1.49998 z
M -50.5181,-11 L -56.436,-0.75 L -44.6003,-0.75 z
M -64.9519,-11 L -70.8698,-0.75 L -59.0341,-0.75 z
M -79.3857,-11 L -85.3035,-0.75 L -73.4678,-0.75 z
M -93.8194,-11 L -99.7373,-0.75 L -87.9016,-0.75 z
M -108.109,-10.75 L -113.882,-0.75 L -102.335,-0.75 z
M -44.889,0.75 L -56.436,0.75 L -50.6625,10.75 z
M -59.0341,0.75 L -70.8698,0.75 L -64.9519,11 z
M -73.4678,0.75 L -85.3035,0.75 L -79.3857,11 z
M -87.9016,0.75 L -99.7373,0.75 L -93.8194,11 z
M -102.335,0.75 L -113.882,0.75 L -108.109,10.75 z
M -72.1688,1.49998 L -77.9423,11.5 L -77.6536,11.5 L -77.7979,11.75 L -66.2509,11.75 z
M -86.6025,1.49998 L -92.3761,11.5 L -80.829,11.5 z
M -57.735,1.49998 L -63.6529,11.75 L -51.8172,11.75 z
M -101.036,1.49998 L -106.81,11.5 L -95.2628,11.5 z
M -66.2509,13.25 L -78.0866,13.25 L -72.1688,23.5 z
M -52.1059,13.25 L -63.6529,13.25 L -57.8794,23.25 z
M -64.9519,14 L -70.8698,24.25 L -59.0341,24.25 z
M -79.2413,14.25 L -85.0148,24.25 L -73.4678,24.25 z
M -59.3228,25.75 L -70.8698,25.75 L -65.0963,35.75 z
M -73.4678,25.75 L -85.3035,25.75 L -79.3857,36 z
M -72.1688,26.5 L -78.0866,36.75 L -66.2509,36.75 z
M -86.4582,26.75 L -92.2317,36.75 L -80.6847,36.75 z
M -66.5396,38.25 L -78.0866,38.25 L -72.3131,48.25 z
M -80.6847,38.25 L -92.2317,38.25 L -86.4582,48.25 z
M -8.66025,38.5 L -19.9186,38.5 L -14.2894,48.25 z
M 5.77351,38.5 L -5.77351,38.5 L 0,48.5 z
M 20.2073,38.5 L 8.66025,38.5 L 14.4338,48.5 z
M 34.641,38.5 L 23.094,38.5 L 28.8675,48.5 z
M 49.0748,38.5 L 37.5278,38.5 L 43.3013,48.5 z
M 63.5085,38.5 L 51.9615,38.5 L 57.735,48.5 z
M 77.9423,38.5 L 66.3953,38.5 L 72.1688,48.5 z
M 92.0873,38.5 L 80.829,38.5 L 86.4582,48.25 z
M 64.9519,39 L 59.0341,49.25 L 70.8698,49.25 z
M 36.0844,39 L 30.1665,49.25 L 42.0022,49.25 z
M 21.6506,39 L 15.7328,49.25 L 27.5685,49.25 z
M 50.5181,39 L 44.6003,49.25 L 56.436,49.25 z
M 7.21687,39 L 1.29903,49.25 L 13.1347,49.25 z
M -7.21687,39 L -13.1347,49.25 L -1.29903,49.25 z
M 79.3857,39 L 73.4678,49.25 L 85.3035,49.25 z
M -79.3857,39 L -85.3035,49.25 L -73.4678,49.25 z
M 27.5685,50.75 L 15.7328,50.75 L 21.6506,61 z
M 42.0022,50.75 L 30.1665,50.75 L 36.0844,61 z
M 56.436,50.75 L 44.6003,50.75 L 50.5181,61 z
M 70.8698,50.75 L 59.0341,50.75 L 64.9519,61 z
M 85.0148,50.75 L 73.4678,50.75 L 79.2413,60.75 z
M 13.1347,50.75 L 1.29903,50.75 L 7.21687,61 z
M -73.7565,50.75 L -85.0148,50.75 L -79.3857,60.4999 z
M -1.29903,50.75 L -12.846,50.75 L -7.07253,60.75 z
M 0,51.5 L -5.7735,61.5 L 5.7735,61.5 z
M 72.1688,51.5 L 66.3953,61.5 L 77.9423,61.5 z
M 57.735,51.5 L 51.9615,61.5 L 63.5085,61.5 z
M 48.7861,61.5 L 49.0748,61.5 L 43.3013,51.5 L 37.3834,61.75 L 48.9304,61.75 z
M 28.8675,51.5 L 22.9497,61.75 L 34.7854,61.75 z
M 14.4338,51.5 L 8.66026,61.5 L 20.2073,61.5 z
M 49.2191,63.25 L 37.3834,63.25 L 43.3013,73.5 z
M 34.7854,63.25 L 23.2383,63.25 L 29.0119,73.25 z
M 36.0844,64 L 30.1665,74.25 L 42.0022,74.25 z
M 50.3738,64.25 L 44.6003,74.25 L 56.1473,74.25 z
M 56.436,75.75 L 44.6003,75.75 L 50.5181,86 z
M 42.0022,75.75 L 30.4552,75.75 L 36.2287,85.75 z
M 43.3013,76.5 L 37.3834,86.75 L 49.2191,86.75 z
M 57.5907,76.75 L 51.8172,86.75 L 63.3642,86.75 z
M 63.3642,88.25 L 51.8172,88.25 L 57.5907,98.25 z
M 49.2191,88.25 L 37.6721,88.25 L 43.4456,98.25 z
M 50.5181,89 L 44.7446,99 L 56.2916,99 z
"  fill="#7caedc" />

</svg>
