<?xml version="1.0" standalone="no"?>
<!DOCTYPE svg PUBLIC "-//W3C//DTD SVG 1.1//EN" "http://www.w3.org/Graphics/SVG/1.1/DTD/svg11.dtd">
<svg width="0mm" height="0mm" xmlns="http://www.w3.org/2000/svg" version="1.1">
<title>nix-gapless</title>
<path d="
M 7.21687,-62.5 L -21.6506,-62.5 L -43.3013,-100 L -57.735,-100 L -64.9519,-87.5 L -50.5181,-62.5
 L -79.3856,-62.5 L -93.8194,-37.5 L 21.6506,-37.5 z
M 64.9519,12.5 L 108.253,12.5 L 115.47,-0 L 108.253,-12.5 L 79.3857,-12.5 L 93.8194,-37.5
 L 79.3857,-62.5 L 21.6506,37.5 L 50.5181,37.5 z
M -28.8675,75 L -14.4338,100 L 14.4337,100 L -43.3013,-0 L -57.735,25 L -43.3013,50
 L -64.9519,87.5 L -57.735,100 L -43.3013,100 z
"  fill="#5277c3" />
<path d="
M 57.735,-25 L 43.3013,-50 L 64.9519,-87.5 L 57.735,-100 L 43.3013,-100 L 28.8675,-75
 L 14.4338,-100 L -14.4337,-100 L 43.3013,-0 z
M -21.6506,-37.5 L -50.5181,-37.5 L -64.9519,-12.5 L -108.253,-12.5 L -115.47,-0 L -108.253,12.5
 L -79.3857,12.5 L -93.8194,37.5 L -79.3857,62.5 z
M 64.9519,87.5 L 50.5181,62.5 L 79.3856,62.5 L 93.8194,37.5 L -21.6506,37.5 L -7.21687,62.5
 L 21.6506,62.5 L 43.3013,100 L 57.735,100 z
"  fill="#7caedc" />

</svg>
