<?xml version="1.0" encoding="UTF-8" standalone="no"?>
<svg
   width="227.76401"
   height="198"
   version="1.1"
   id="svg15"
   sodipodi:docname="nix-grid.svg"
   xmlns:inkscape="http://www.inkscape.org/namespaces/inkscape"
   xmlns:sodipodi="http://sodipodi.sourceforge.net/DTD/sodipodi-0.dtd"
   xmlns="http://www.w3.org/2000/svg"
   xmlns:svg="http://www.w3.org/2000/svg">
  <defs
     id="defs19" />
  <sodipodi:namedview
     id="namedview17"
     pagecolor="#505050"
     bordercolor="#ffffff"
     borderopacity="1"
     inkscape:showpageshadow="0"
     inkscape:pageopacity="0"
     inkscape:pagecheckerboard="1"
     inkscape:deskcolor="#505050" />
  <title
     id="title9">nix-grid</title>
  <path
     d="m 69.1374,0 h -11.547 l 5.7735,10 z m 1.299,0.75 -5.7735,10 h 11.547 z m -14.1451,0 -5.7735,10 h 11.547 z m 20.2073,11.5 H 64.6629 l 5.9178,10.25 z m -14.4338,0 h -11.547 l 5.7735,10 z M 63.3639,13 57.446,23.25 h 11.8357 z m 14.2894,0.25 -5.7735,10 h 11.547 z m 6.0622,11.5 H 71.8798 L 77.7976,35 Z m -14.4338,0 h -11.547 l 5.7735,10 z m 1.299,0.75 -5.9178,10.25 h 11.8357 z m 14.2894,0.25 -5.7735,10 h 11.5471 z m 6.0622,11.5 H 79.0966 l 5.9179,10.25 z m -14.4337,0 h -11.547 l 0.1443,0.25 h -0.2887 l 5.7735,10 z M 47.4867,37.5 h -11.547 l 5.7735,10 z m 57.73504,0 H 93.6747 l 5.7735,10 z m -43.30124,0 h -11.547 l 5.7735,10 z m 57.735,0 h -11.547 l 5.7735,10 z M 92.2314,38 86.3135,48.25 h 11.8357 z m -43.3013,0 -5.9179,10.25 h 11.8357 z m 14.4338,0 -5.9179,10.25 h 11.8357 z m 14.4337,0 -5.9178,10.25 h 11.8357 z m 28.86753,0 -5.91783,10.25 h 11.83567 z m 14.2894,0.25 -5.7735,10 H 126.728 Z m -86.31383,0 -5.7735,10 h 11.547 z m 158.627,0.2501 -5.6292,9.7499 h 11.2583 z M 98.1492,49.75 H 86.3135 L 92.2314,60 Z m -57.735,0 H 28.5785 L 34.4963,60 Z m 14.4337,0 H 43.0122 L 48.9301,60 Z m 14.4338,0 H 57.446 L 63.3639,60 Z m 14.4338,0 H 71.8798 L 77.7976,60 Z m 28.86747,0 H 100.7473 L 106.66513,60 Z m 86.60253,0 H 187.3498 L 193.2677,60 Z m -72.1688,0 H 115.18103 L 121.09887,60 Z m -56.436,0.75 -5.7735,10 h 11.547 z m 43.3013,0 -5.77351,10 h 11.54702 z m -14.4338,0 -5.7735,10 h 11.54705 z m -43.3012,0 -5.7735,10 h 11.547 z m 28.8675,0 -5.7735,10 h 11.547 z m -43.3013,0 -5.7735,10 h 11.547 z M 27.4238,50.75 21.7947,60.5 H 33.053 Z m 100.7476,0 -5.62915,9.75 h 11.25835 z m 72.1688,0 -5.7735,10 h 11.547 z m -14.1451,0 -5.7735,10 h 11.547 z m 5.7735,11.5 h -11.8357 l 5.9179,10.25 z m 14.1451,0 h -11.547 l 5.7735,10 z m -12.846,0.75 -5.9179,10.25 h 11.8357 z m -14.2894,0.25 -5.7735,10 h 11.547 z m 19.9185,11.5 h -11.547 l 5.7735,10 z m -14.145,0 H 172.9161 L 178.8339,85 Z m 1.299,0.75 -5.9179,10.25 h 11.8357 z m -14.2894,0.25 -5.7735,10 h 11.547 z m 5.7735,11.5 h -11.8357 l 5.9178,10.25002 z m 14.2894,0.25 h -0.2887 l 0.1443,-0.25 h -11.547 l 5.9179,10.25002 z m 14.4338,0 H 194.711 l 5.7735,10.00002 z m 14.4339,0 h -11.5472 l 5.7732,10.00002 z m -41.8581,0.5 -5.9178,10.25 h 11.8357 z m 14.4338,0 -5.9179,10.25 h 11.8357 z m 14.4337,0 -5.9178,10.25 h 11.8357 z m -43.1569,0.25 -5.7735,10 h 11.547 z m 57.4465,0 -5.774,10 h 11.547 z m 5.773,11.5 h -11.547 l 5.774,10 z m -14.1447,0 h -11.8357 l 5.9178,10.25 z m -14.4338,0 h -11.8357 l 5.9179,10.25 z m -14.4337,0 h -11.8357 l 5.9178,10.25 z m -14.4338,0 h -11.8357 l 5.9178,10.25 z m 35.94,10.75 -5.7735,-10.00002 L 194.711,110.5 Z m 14.434,0 -5.774,-10.00002 -5.7732,10.00002 z m -28.8677,0 -5.7735,-10.00002 L 180.2773,110.5 Z M 171.617,100.49998 165.6992,110.75 h 11.8357 z m -14.2894,0.25002 -5.7735,10 h 11.547 z m -86.7469,0.25 -5.6291,9.75 h 11.2583 z m 106.6655,11.25 h -11.547 l 5.7735,10 z m -14.1451,0 h -11.8357 l 5.9179,10.25 z m -86.6025,0 H 64.6629 l 5.9178,10.25 z m 87.9015,0.75 -5.9178,10.25 h 11.8357 z m -86.7468,0.25 -5.7735,10 h 11.547 z m 72.4574,0 -5.7735,10 h 11.547 z m -86.6025,0 -5.7735,10 h 11.547 z m 106.5211,11.5 h -11.547 l 5.7735,10 z m -14.1451,0 h -11.8357 l 5.9179,10.25 z m -72.1687,0 H 71.8798 L 77.7976,135 Z m -14.4338,0 h -11.547 l 5.7735,10 z m 87.9016,0.75 -5.7735,10 h 11.547 z m -86.6026,0 -5.9178,10.25 h 11.8357 z m 72.3131,0.25 -5.6291,9.75 h 11.2583 z m -58.0237,0 -5.7735,10 h 11.547 z m 6.0622,11.5 H 79.0966 l 5.9179,10.25 z m -14.4337,0 h -11.547 l 5.7735,10 z m 1.299,0.75 -5.9178,10.25 h 11.8357 z m 14.2894,0.25 -5.7735,10 h 11.547 z m -8.3715,11.5 H 71.8798 L 77.7976,160 Z m 14.4337,0 H 86.3135 L 92.2314,160 Z m -13.1347,0.75 -5.9179,10.25 h 11.8357 z m -14.2894,0.25 -5.7735,10 h 11.547 z m 28.5788,0 -5.7735,10 h 11.54699 z m -8.3716,11.5 H 79.0966 l 5.7735,10 0.1444,-0.25 0.1443,0.25 z m 14.43379,0 H 93.5304 l 5.9178,10.25 z m -28.86749,0 H 64.6629 l 5.9178,10.25 z m 1.299,0.75 -5.9178,10.25 h 11.8357 z m 14.4338,0 -5.9179,10.25 h 11.8357 z m -28.7232,0.25 -5.7735,10 h 11.547 z m 43.01258,0 -5.77348,10 h 11.54696 z m -23.09398,11.5 h -11.547 l 5.7735,10 z m 29.15617,0 H 100.7473 l 5.91783,10.25 z m -43.30127,0 H 57.446 L 63.3639,185 Z m 28.8675,0 h -11.547 l 5.7735,10 z m 1.299,0.75 -5.9178,10.25 h 11.83569 z m -28.8675,0 -5.9178,10.25 h 11.8357 z m -14.2894,0.25 -5.7735,10 h 11.547 z m 57.44635,0 -5.7735,10 h 11.54699 z m -37.52775,11.5 h -11.547 l 5.7735,10 z m 43.58995,0 h -11.8357 l 5.91785,10.25 z m -57.73505,0 h -11.547 l 5.7735,10 z m 43.30129,0 H 93.8191 l 5.7735,10 z M 63.3639,188 57.5904,198 h 11.547 z m 43.30123,0 -5.77353,10 h 11.54701 z m 14.2894,0.25 -5.62914,9.75 h 11.25831 z"
     fill="#5277c3"
     id="path11" />
  <path
     d="M 112.43861,0 H 101.1803 l 5.62917,9.75 z m 57.73499,0 h -11.547 l 5.7735,10 z m -43.3012,0 h -11.54701 l 5.77348,10 z m -12.9904,0.5 -5.91785,10.25 h 11.8357 z m 14.2894,0.25 -5.77349,10 h 11.54699 z m 29.1562,0 -5.7735,10 h 11.547 z m 14.1451,0 -5.7735,10 h 11.547 z m -8.3716,11.5 h -11.8357 l 5.9179,10.25 z m 14.1451,0 h -11.547 l 5.7735,10 z m -43.0126,0 h -11.83569 l 5.91789,10.25 z m -14.43375,0 h -11.54699 l 5.77349,10 z m 1.29902,0.75 -5.91784,10.25 h 11.83567 z m 43.30123,0 -5.9178,10.25 h 11.8357 z m -29.0118,0.25 -5.7735,10 h 11.547 z m 14.7224,0 -5.7735,10 h 11.547 z m 19.9186,11.5 h -11.547 l 5.7735,10 z m -14.1451,0 H 144.0485 L 149.9664,35 Z m -14.4337,0 H 129.6148 L 135.5326,35 Z m -14.4338,0 h -11.54696 l 5.77348,10 z m 30.1666,0.75 -5.9179,10.25 h 11.8357 z m -28.8675,0 -5.91789,10.25 h 11.83569 z m 14.5781,0.25 -0.1444,0.25 -0.1443,-0.25 -5.7735,10 h 11.8357 z m 5.7735,11.5 h -11.8357 l 5.9178,10.25 z m 14.145,0 h -11.547 l 5.7735,10 z m -28.5788,0 h -11.54699 l 5.77349,10 z m 15.7328,0.75 -5.9179,10.25 h 11.8357 z m -14.4338,0 -5.9178,10.25 h 11.8357 z m 20.3516,11.75 H 144.0485 L 149.9664,60 Z m -14.4337,0 h -11.547 l 5.7735,10 z m 1.299,0.75 -5.9178,10.25 h 11.8357 z m 14.2894,0.25 -5.7735,10 h 11.547 z m 6.0622,11.5 h -11.8357 l 5.9179,10.25 z m -14.4337,0 h -11.547 l 5.7735,10 z M 76.3542,62.5 h -11.547 l 5.7735,10 z m 14.1451,0 H 79.241 l 5.6292,9.75 z M 77.7976,63 71.8798,73.25 h 11.8357 z m 72.1688,0 -5.9179,10.25 h 11.8357 z m 14.2894,0.25 -5.7735,10 h 11.547 z m -100.7476,0 -5.7735,10 h 11.547 z m 106.5211,11.5 h -11.547 l 5.7735,10 z m -86.6025,0 h -11.547 l 5.7735,10 z m -14.1451,0 H 57.446 L 63.3639,85 Z m 86.6025,0 h -11.547 l 5.7735,10 z M 70.5807,75.5 64.6629,85.75 h 11.8357 z m 86.6026,0 -5.9179,10.25 h 11.8357 z m -100.892,0.25 -5.7735,10 h 11.547 z m 5.7735,11.5 H 50.2291 l 5.9179,10.25002 z m 14.1451,0 h -11.547 l 5.7735,10 z m 86.6025,0 H 151.5541 L 157.1833,97 Z M 47.4867,87.5 h -11.547 l 5.7735,10.00002 z m -14.4337,0 H 21.506 l 5.7735,10.00002 z m -14.4338,0 H 7.072 l 5.774,10.00002 z M 63.3639,88 57.446,98.25 H 69.2817 Z M 48.9301,88 43.0122,98.25 H 54.8479 Z M 34.4963,88 28.5785,98.25 H 40.4142 Z M 20.0626,88 14.1447,98.25 H 25.9804 Z M 5.773,88.25 0,98.25 h 11.547 z m 63.22,11.5 H 57.446 l 5.7735,10 z m -14.1451,0 H 43.0122 L 48.9301,110 Z m -14.4337,0 H 28.5785 L 34.4963,110 Z m -14.4338,0 H 14.1447 L 20.0626,110 Z m -14.4334,0 H 0 l 5.773,10 z M 41.7132,100.49998 35.9397,110.5 h 0.2887 l -0.1443,0.25 h 11.547 z m -14.4337,0 L 21.5059,110.5 H 33.053 Z m 28.8675,0 -5.9179,10.25002 h 11.8357 z m -43.301,0 L 7.072,110.5 H 18.6192 Z M 47.6311,112.25 H 35.7954 l 5.9178,10.25 z m 14.145,0 h -11.547 l 5.7735,10 z m -12.846,0.75 -5.9179,10.25 h 11.8357 z m -14.2894,0.25 -5.7735,10 h 11.547 z m 19.9185,11.5 h -11.547 l 5.7735,10 z m -14.145,0 H 28.5785 L 34.4963,135 Z m 1.299,0.75 -5.9178,10.25 h 11.8357 z m -14.2894,0.25 -5.7735,10 h 11.547 z m 19.9186,11.5 h -11.547 l 5.7735,10 z m -14.1451,0 h -11.547 l 5.7735,10 z m 72.02445,0.25 H 93.9634 l 5.6292,9.75 z m 14.43376,0 h -11.54702 l 5.77351,10 z m 14.43379,0 h -11.54705 l 5.77355,10 z m 14.4337,0 h -11.547 l 5.7735,10 z m 14.4338,0 h -11.547 l 5.7735,10 z m 14.4337,0 h -11.547 l 5.7735,10 z m 14.4338,0 h -11.547 l 5.7735,10 z m 14.145,0 H 194.711 l 5.6292,9.75 z m -27.1354,0.5 -5.9178,10.25 h 11.8357 z m -28.8675,0 -5.9179,10.25 h 11.8357 z m -14.4338,0 -5.9178,10.25 h 11.8357 z m 28.8675,0 -5.9178,10.25 h 11.8357 z m -43.30123,0 -5.91784,10.25 h 11.83567 z m -14.43374,0 -5.91783,10.25 h 11.83567 z m 86.60257,0 -5.9179,10.25 h 11.8357 z m -158.7714,0 -5.9178,10.25 h 11.8357 z m 106.9542,11.75 h -11.8357 l 5.9178,10.25 z m 14.4337,0 h -11.8357 l 5.9179,10.25 z m 14.4338,0 h -11.8357 l 5.9178,10.25 z m 14.4338,0 h -11.8357 l 5.9178,10.25 z m 14.145,0 h -11.547 l 5.7735,10 z m -71.8801,0 h -11.83567 l 5.91784,10.25 z m -86.8912,0 H 28.8672 l 5.6291,9.7499 z m 72.45747,0 H 101.036 l 5.77347,10 z m 1.29903,0.75 -5.7735,10 h 11.547 z m 72.1688,0 -5.7735,10 h 11.547 z m -14.4338,0 -5.7735,10 h 11.547 z m -8.9489,10 h 0.2887 l -5.7735,-10 -5.9179,10.25 h 11.547 z m -19.9186,-10 -5.9178,10.25 h 11.8357 z m -14.4337,0 -5.77354,10 h 11.54704 z m 34.7853,11.75 h -11.8357 l 5.9179,10.25 z m -14.4337,0 h -11.5471 l 5.7736,10 z m 1.299,0.75 -5.9179,10.25 h 11.8357 z m 14.2894,0.25 -5.7735,10 h 11.547 z m 6.0622,11.5 h -11.8357 l 5.9178,10.25 z m -14.4338,0 h -11.547 l 5.7735,10 z m 1.2991,0.75 -5.9179,10.25 h 11.8357 z m 14.2894,0.25 -5.7735,10 h 11.547 z m 5.7735,11.5 h -11.547 l 5.7735,10 z m -14.1451,0 h -11.547 l 5.7735,10 z m 1.299,0.75 -5.7735,10 h 11.547 z"
     fill="#7caedc"
     id="path13" />
</svg>
