<?xml version="1.0" encoding="UTF-8" standalone="no"?>
<svg
   width="1181.259"
   height="948"
   version="1.1"
   id="svg15"
   sodipodi:docname="nix-megagrid.svg"
   xmlns:inkscape="http://www.inkscape.org/namespaces/inkscape"
   xmlns:sodipodi="http://sodipodi.sourceforge.net/DTD/sodipodi-0.dtd"
   xmlns="http://www.w3.org/2000/svg"
   xmlns:svg="http://www.w3.org/2000/svg">
  <defs
     id="defs19" />
  <sodipodi:namedview
     id="namedview17"
     pagecolor="#505050"
     bordercolor="#ffffff"
     borderopacity="1"
     inkscape:showpageshadow="0"
     inkscape:pageopacity="0"
     inkscape:pagecheckerboard="1"
     inkscape:deskcolor="#505050" />
  <title
     id="title9">nix-megagrid</title>
  <path
     d="M 120.955,37.5 H 92.087 L 70.437,0 H 57.158 l -6.64,11.5 15.011,26 H 35.507 l -13.279,23 h 112.006 z m 173.205,25 H 265.292 L 243.642,25 h -13.279 l -6.64,11.5 15.011,26 h -30.022 l -13.279,23 h 112.006 z m -115.47,48 h 43.301 l 6.64,-11.5 -6.64,-11.5 h -30.022 l 15.011,-26 -13.279,-23 -56.003,97 h 26.558 z m 288.6751,-23 H 438.4976 L 416.8469,50 h -13.279 l -6.6396,11.5 15.0112,26 h -30.02223 l -13.27904,23 H 480.644 Z m -115.4701,48 h 43.3012 l 6.6396,-11.5 -6.6396,-11.5 h -30.02214 l 15.01109,-26 -13.27902,-23 -56.00303,97 h 26.5581 z m 288.675,-23 H 611.703 L 590.052,75 h -13.279 l -6.64,11.5 15.012,26 h -30.023 l -13.279,23 h 112.006 z m -115.47,48 h 43.301 l 6.64,-11.5 -6.64,-11.5 h -30.022 l 15.011,-26 -13.279,-23 -56.003,97 h 26.558 z m 288.675,-23 H 784.908 L 763.257,100 h -13.279 l -6.64,11.5 15.012,26 h -30.023 l -13.279,23 H 827.054 Z M 85.448,172 l 15.011,26 h 26.558 l -56.003,-97 -13.279,23 14.434,25 -21.651,37.5 6.64,11.5 h 13.279 z m 612.857,13.5 h 43.301 l 6.64,-11.5 -6.64,-11.5 h -30.022 l 15.011,-26 -13.279,-23 -56.003,97 h 26.558 z m -439.652,11.5 15.011,26 h 26.5581 l -56.0031,-97 -13.279,23 14.434,25 -21.651,37.5 6.64,11.5 h 13.279 z m 612.857,13.5 h 43.301 l 6.64,-11.5 -6.64,-11.5 h -30.022 l 15.011,-26 -13.279,-23 -56.003,97 h 26.558 z m -439.652,11.5 15.0111,26 h 26.5581 l -56.0029,-97 -13.2791,23 14.4338,25 -21.6506,37.5 6.6395,11.5 h 13.279 z M 185.907,200 h -28.868 l -21.65,-37.5 H 122.11 l -6.64,11.5 15.011,26 H 100.459 L 87.18,223 h 112.006 z m 419.156,47 15.011,26 h 26.558 l -56.003,-97 -13.279,23 14.434,25 -21.651,37.5 6.64,11.5 h 13.279 z M 359.1119,225 h -28.8675 l -21.6507,-37.5 h -13.279 l -6.6395,11.5 15.0111,26 H 273.664 l -13.279,23 h 112.00593 z m 419.1561,47 15.011,26 h 26.558 l -56.003,-97 -13.279,23 14.434,25 -21.65,37.5 6.639,11.5 h 13.279 z m -534.626,1 h 43.3011 l 6.6395,-11.5 -6.6395,-11.5 H 256.921 l 15.011,-26 -13.279,-23 -56.003,97 h 26.558 z m 288.675,-23 h -28.868 l -21.65,-37.5 h -13.2792 l -6.6396,11.5 15.0108,26 h -30.0218 l -13.2791,23 H 545.596 Z m -115.4701,48 h 43.3012 l 6.6396,-11.5 -6.6396,-11.5 h -30.0222 l 15.0112,-26 -13.2791,-23 -56.00297,97 H 402.4131 Z M 705.522,275 h -28.867 l -21.651,-37.5 h -13.279 l -6.64,11.5 15.011,26 h -30.022 l -13.279,23 h 112.006 z m -115.47,48 h 43.301 l 6.64,-11.5 -6.64,-11.5 h -30.022 l 15.011,-26 -13.279,-23 -56.003,97 h 26.558 z M 878.727,300 H 849.86 L 828.209,262.5 H 814.93 l -6.64,11.5 15.012,26 H 793.279 L 780,323 h 112.006 z m -728.327,34.5 15.011,26 h 26.558 l -56.003,-97 -13.279,23 14.434,25 -21.651,37.5 6.64,11.5 h 13.279 z M 763.257,348 h 43.301 l 6.64,-11.5 -6.64,-11.5 h -30.022 l 15.011,-26 -13.279,-23 -56.003,97 h 26.558 z m -439.6521,11.5 15.011,26 h 26.55813 l -56.00293,-97 -13.279,23 14.4337,25 -21.6506,37.5 6.6395,11.5 h 13.2791 z M 936.462,373 h 43.301 l 6.64,-11.5 -6.64,-11.5 h -30.022 l 15.011,-26 -13.279,-23 -56.003,97 h 26.558 z m -439.652,11.5 15.011,26 h 26.558 l -56.003,-97 -13.2789,23 14.4339,25 -21.6507,37.5 6.6395,11.5 h 13.2792 z m -245.951,-22 H 221.991 L 200.341,325 h -13.279 l -6.64,11.5 15.011,26 h -30.022 l -13.279,23 h 112.006 z m 419.156,47 15.011,26 h 26.558 l -56.003,-97 -13.279,23 14.434,25 -21.651,37.5 6.64,11.5 h 13.279 z m -245.9512,-22 H 395.1963 L 373.54567,350 H 360.2666 l -6.6395,11.5 15.0111,26 H 338.616 l -13.279,23 h 112.0058 z m 419.1562,47 15.011,26 h 26.558 l -56.003,-97 -13.279,23 14.434,25 -21.651,37.5 6.64,11.5 h 13.279 z m -534.6263,1 h 43.3013 l 6.6395,-11.5 -6.6395,-11.5 h -30.0222 l 15.0111,-26 -13.279,-23 -56.0029,97 h 26.558 z m 288.6753,-23 H 568.401 L 546.751,375 h -13.279 l -6.64,11.5 15.011,26 h -30.022 l -13.279,23 h 112.006 z m -115.47,48 H 525.1 l 6.64,-11.5 -6.64,-11.5 h -30.022 l 15.011,-26 -13.279,-23 -56.0031,97 h 26.5581 z m 288.675,-23 H 741.606 L 719.956,400 h -13.279 l -6.64,11.5 15.011,26 h -30.022 l -13.279,23 h 112.006 z m -115.47,48 h 43.301 l 6.64,-11.5 -6.64,-11.5 h -30.022 l 15.011,-26 -13.279,-23 -56.003,97 h 26.558 z m 288.675,-23 H 914.812 L 893.161,425 h -13.279 l -6.64,11.5 15.011,26 h -30.022 l -13.279,23 h 112.006 z m -728.327,34.5 15.011,26 h 26.558 l -56.003,-97 -13.279,23 14.434,25 -21.651,37.5 6.64,11.5 h 13.279 z m 612.857,13.5 h 43.301 l 6.64,-11.5 -6.64,-11.5 h -30.022 l 15.011,-26 -13.279,-23 -56.003,97 h 26.558 z m -439.6522,11.5 15.011,26 h 26.5581 l -56.00288,-97 -13.27902,23 14.43369,25 -21.65059,37.5 6.6395,11.5 h 13.27908 z m 612.8572,13.5 h 43.301 l 6.64,-11.5 -6.64,-11.5 h -30.022 l 15.011,-26 -13.279,-23 -56.003,97 h 26.558 z m -439.652,11.5 15.011,26 h 26.558 l -56.003,-97 -13.279,23 14.434,25 -21.651,37.5 6.64,11.5 h 13.279 z M 315.8106,525 H 286.9431 L 265.292,487.5 h -13.279 l -6.639,11.5 15.011,26 h -30.022 l -13.279,23 h 112.0057 z m 419.1564,47 15.011,26 h 26.558 l -56.003,-97 -13.279,23 14.434,25 -21.651,37.5 6.64,11.5 h 13.279 z M 489.016,550 h -28.8678 l -21.6506,-37.5 h -13.2791 l -6.6395,11.5 15.0111,26 h -30.0222 l -13.2791,23 H 502.295 Z m 419.156,47 15.011,26 h 26.558 l -56.003,-97 -13.279,23 14.434,25 -21.651,37.5 6.64,11.5 h 13.279 z m -534.62635,1 h 43.30125 l 6.6395,-11.5 -6.6395,-11.5 h -30.0222 l 15.0111,-26 -13.2791,-23 -56.0029,97 h 26.5581 z M 662.221,575 h -28.868 l -21.65,-37.5 h -13.279 l -6.64,11.5 15.011,26 h -30.022 l -13.279,23 H 675.5 Z m -115.47,48 h 43.301 l 6.639,-11.5 -6.639,-11.5 H 560.03 l 15.011,-26 -13.279,-23 -56.003,97 h 26.558 z m 288.675,-23 h -28.868 l -21.65,-37.5 H 771.629 L 764.989,574 780,600 h -30.022 l -13.279,23 h 112.006 z m -115.47,48 h 43.301 l 6.64,-11.5 -6.64,-11.5 h -30.022 l 15.011,-26 -13.279,-23 -56.003,97 h 26.558 z m 288.675,-23 h -28.868 l -21.65,-37.5 h -13.279 l -6.64,11.5 15.011,26 h -30.022 l -13.279,23 h 112.006 z m -728.3274,34.5 15.0111,26 h 26.5581 l -56.0028,-97 -13.279,23 14.434,25 -21.651,37.5 6.639,11.5 h 13.279 z M 893.161,673 h 43.301 l 6.64,-11.5 -6.64,-11.5 H 906.44 l 15.011,-26 -13.279,-23 -56.003,97 h 26.558 z m -439.6523,11.5 15.011,26 h 26.5583 l -56.0031,-97 -13.279,23 14.4337,25 -21.6506,37.5 6.6395,11.5 h 13.2791 z M 1066.366,698 h 43.301 l 6.64,-11.5 -6.64,-11.5 h -30.022 l 15.011,-26 -13.279,-23 -56.003,97 h 26.558 z m -439.652,11.5 15.011,26 h 26.558 l -56.003,-97 -13.279,23 14.434,25 -21.651,37.5 6.64,11.5 h 13.279 z m -245.95147,-22 H 351.895 L 330.2444,650 h -13.2791 l -6.6395,11.5 15.0111,26 h -30.0222 l -13.279,23 h 112.0059 z m 419.15647,47 15.011,26 h 26.558 l -56.003,-97 -13.279,23 14.434,25 -21.651,37.49998 6.64,11.50002 h 13.279 z m -245.951,-22 H 525.1 L 503.449,675 H 490.17 l -6.639,11.5 15.011,26 h -30.0222 l -13.279,23 H 567.247 Z m 419.156,47 15.011,26 h 26.558 l -56.003,-97 -13.279,23 14.434,25 -21.651,37.5 6.64,11.5 h 13.279 z m -534.6264,1 h 43.3014 l 6.639,-11.5 -6.639,-11.5 h -30.0224 l 15.0111,-26 -13.279,-22.9999 -56.003,96.9999 h 26.5581 z m 288.6754,-23 H 698.305 L 676.655,700 h -13.279 l -6.64,11.5 15.011,26 h -30.022 l -13.279,23 h 112.006 z m -115.47,48 h 43.301 l 6.639,-11.5 -6.639,-11.5 h -30.022 l 15.011,-26 -13.279,-22.9999 -56.003,96.9999 h 26.558 z m 288.675,-23 H 871.51 L 849.86,725 h -13.279 l -6.64,11.5 15.011,26 H 814.93 l -13.279,23 h 112.006 z m -115.47,48 h 43.301 l 6.639,-11.5 -6.639,-11.5 h -30.022 l 15.011,-26 -13.279,-22.9999 -56.003,96.9999 h 26.558 z m 288.675,-23 h -28.868 l -21.65,-37.49997 -13.279,-1e-5 -6.64,11.49998 15.011,26 h -30.022 l -13.279,23 h 112.006 z m -728.3275,34.5 15.0111,26 h 26.5581 l -56.003,-97 -13.279,23 14.4337,25 -21.6506,37.5 6.6395,11.5 h 13.2791 z m 612.8575,13.5 h 43.301 l 6.64,-11.5 -6.64,-11.5 h -30.022 l 15.011,-26 -13.279,-22.9999 -56.003,96.9999 h 26.558 z m -439.652,11.5 15.011,26 h 26.558 l -56.003,-97 -13.279,23 14.434,25 -21.651,37.5 6.639,11.5 h 13.279 z m 612.857,13.5 h 43.301 l 6.64,-11.5 -6.64,-11.5 h -30.022 l 15.011,-26 -13.279,-22.9999 -56.003,96.9999 h 26.558 z m -439.652,11.5 15.011,26 h 26.558 l -56.003,-97 -13.279,23 14.434,25 -21.651,37.5 6.639,11.5 h 13.28 z m 173.205,25 15.011,26 h 26.558 l -56.003,-97 -13.279,23 14.434,25 -21.651,37.5 6.64,11.5 h 13.279 z m 173.205,25 15.011,26 h 26.558 l -56.003,-97 -13.279,23 14.434,25 -21.651,37.5 6.64,11.5 h 13.279 z"
     fill="#5277c3"
     id="path11" />
  <path
     d="M 170.896,74 156.462,49 178.113,11.5 171.473,0 H 158.194 L 143.183,26 128.172,0 h -26.558 l 56.003,97 z M 344.1008,99 329.667,74 351.3176,36.5 344.6781,25 h -13.279 L 316.388,51 301.3769,25 h -26.5581 l 56.0029,97 z M 517.306,124 502.872,99 524.523,61.5 517.883,50 H 504.604 L 489.593,76 474.582,50 h -26.5581 l 56.0031,97 z M 90.933,62.5 H 64.375 l -14.434,25 H 6.64 L 0,99 6.64,110.5 h 30.022 l -15.011,26 13.279,23 z M 690.511,149 676.077,124 697.728,86.5 691.088,75 h -13.279 l -15.011,26 -15.011,-26 h -26.558 l 56.003,97 z M 264.138,87.5 H 237.58 l -14.434,25 h -43.301 l -6.64,11.5 6.64,11.5 h 30.022 l -15.011,26 13.279,23 z m 599.578,86.5 -14.434,-25 21.651,-37.5 -6.64,-11.5 h -13.279 l -15.011,26 -15.011,-26 h -26.558 l 56.003,97 z M 437.3429,112.5 h -26.5581 l -14.4338,25 h -43.3012 l -6.6396,11.5 6.6396,11.5 h 30.02214 l -15.01109,26 13.27902,23 z m -259.2299,74 -15.012,-26 h 30.023 l 13.279,-23 H 94.397 l 13.279,23 h 28.867 l 21.651,37.5 h 13.279 z m 432.435,-49 H 583.99 l -14.434,25 h -43.301 l -6.64,11.5 6.64,11.5 h 30.022 l -15.011,26 13.279,23 z m -259.2303,74 -15.0112,-26 h 30.02223 l 13.27904,-23 H 267.602 l 13.2789,23 h 28.8675 l 21.6507,37.5 h 13.279 z m -115.4697,25 -14.434,-25 21.65,-37.5 -6.639,-11.5 h -13.279 l -15.011,26 -15.011,-26 h -26.558 l 56.003,97 z m 547.905,-74 h -26.558 l -14.434,25 H 699.46 l -6.64,11.5 6.64,11.5 h 30.022 l -15.011,26 13.279,23 z m -259.23,74 -15.011,-26 h 30.022 l 13.279,-23 H 440.807 l 13.279,23 h 28.868 l 21.65,37.5 h 13.279 z m -115.4703,25 -14.4338,-25 21.6506,-37.5 -6.6395,-11.5 h -13.279 l -15.01114,26 -15.01106,-26 h -26.5581 l 56.0029,97 z m 288.6753,0 -15.011,-26 h 30.022 l 13.279,-23 H 614.012 l 13.279,23 h 28.868 l 21.65,37.5 h 13.279 z m -115.47,25 -14.434,-25 21.651,-37.5 -6.64,-11.5 h -13.279 l -15.011,26 -15.011,-26 h -26.558 l 56.003,97 z M 155.885,225 h -26.558 l -14.434,25 H 71.591 l -6.639,11.5 6.639,11.5 h 30.023 l -15.011,26 13.279,23 z m 715.048,61.5 -15.011,-26 h 30.022 l 13.279,-23 H 787.217 l 13.279,23 h 28.868 l 21.65,37.5 h 13.279 z m -115.47,25 -14.434,-25 21.651,-37.5 -6.64,-11.5 h -13.279 l -15.011,26 -15.011,-26 h -26.558 l 56.003,97 z M 329.0897,250 h -26.5581 l -14.4338,25 H 244.797 l -6.64,11.5 6.64,11.5 h 30.0218 l -15.0108,26 13.279,23 z m 599.5783,86.5 -14.434,-25 21.651,-37.5 -6.64,-11.5 h -13.279 l -15.011,26 -15.011,-26 h -26.558 l 56.003,97 z M 502.295,275 h -26.558 l -14.4341,25 h -43.3013 l -6.6395,11.5 6.6395,11.5 h 30.0222 l -15.0111,26 13.2791,23 z m -259.231,74 -15.011,-26 h 30.023 l 13.279,-23 H 159.349 l 13.279,23 h 28.867 l 21.651,37.5 h 13.279 z M 675.5,300 h -26.558 l -14.434,25 h -43.301 l -6.64,11.5 6.64,11.5 h 30.022 l -15.011,26 13.279,23 z m -259.2305,74 -15.0111,-26 h 30.0222 l 13.2791,-23 H 332.5538 l 13.279,23 h 28.86753 L 396.351,385.5 H 409.63 Z M 848.705,325 h -26.558 l -14.434,25 h -43.301 l -6.64,11.5 6.64,11.5 h 30.022 l -15.011,26 13.279,23 z m -547.9055,74 -14.4337,-25 21.6506,-37.5 -6.6395,-11.5 h -13.2791 l -15.0108,26 -15.011,-26 h -26.558 l 56.0024,97 z m 288.6755,0 -15.011,-26 h 30.022 l 13.279,-23 H 505.759 l 13.279,23 h 28.867 l 21.651,37.5 h 13.279 z M 474.0046,424 459.5708,399 481.221,361.5 474.582,350 h -13.2791 l -15.0111,26 -15.0111,-26 h -26.5581 l 56.0029,97 z m 288.6754,0 -15.011,-26 h 30.022 L 790.97,375 H 678.964 l 13.279,23 h 28.868 l 21.65,37.5 h 13.279 z m -115.47,25 -14.434,-25 21.651,-37.5 -6.64,-11.5 h -13.279 l -15.011,26 -15.011,-26 h -26.558 l 56.003,97 z M 220.837,387.5 h -26.559 l -14.433,25 h -43.302 l -6.639,11.5 6.639,11.5 h 30.023 l -15.012,26 13.28,23 z M 935.885,449 920.874,423 h 30.022 l 13.279,-23 H 852.169 l 13.279,23 h 28.868 l 21.65,37.5 h 13.279 z m -115.47,25 -14.434,-25 21.651,-37.5 -6.64,-11.5 h -13.279 l -15.011,26 -15.011,-26 h -26.558 l 56.003,97 z M 394.0416,412.5 h -26.55808 l -14.43382,25 h -43.3012 l -6.6395,11.5 6.6395,11.5 h 30.0222 l -15.0111,26 13.279,23 z M 993.62,499 l -14.434,-25 21.651,-37.5 -6.64,-11.5 h -13.279 l -15.011,26 -15.011,-26 h -26.558 l 56.003,97 z M 567.247,437.5 h -26.558 l -14.434,25 h -43.301 l -6.64,11.5 6.64,11.5 h 30.022 l -15.011,26 13.279,23 z m -259.2306,74 -15.0111,-26 h 30.0222 l 13.279,-23 H 224.301 l 13.279,23 h 28.867 l 21.6508,37.5 h 13.279 z m 432.4356,-49 h -26.558 l -14.434,25 h -43.301 l -6.64,11.5 6.64,11.5 h 30.022 l -15.011,26 13.279,23 z m -259.231,74 -15.0106,-26 h 30.0226 l 13.279,-23 H 397.5057 l 13.279,23 h 28.8676 l 21.6506,37.5 h 13.2791 z m -115.4696,25 -14.4337,-25 21.65058,-37.5 -6.63952,-11.5 H 353.0497 l -15.0111,26 -15.0111,-26 h -26.5581 l 56.0029,97 z m 547.9056,-74 h -26.558 l -14.434,25 h -43.301 l -6.64,11.5 6.64,11.5 h 30.022 l -15.011,26 13.279,23 z m -259.23,74 -15.012,-26 h 30.023 l 13.279,-23 H 570.711 l 13.279,23 h 28.867 l 21.651,37.5 h 13.279 z m -115.471,25 -14.433,-25 21.65,-37.5 -6.639,-11.5 h -13.279 l -15.011,26 -15.011,-26 h -26.5585 l 56.0025,97 z m 288.676,0 -15.011,-26 h 30.022 l 13.279,-23 H 743.916 l 13.279,23 h 28.867 l 21.651,37.5 h 13.279 z m -115.47,25 -14.434,-25 21.65,-37.5 -6.639,-11.5 H 699.46 l -15.011,26 -15.011,-26 H 642.88 l 56.003,97 z M 285.7884,550 H 259.23 l -14.433,25 h -43.302 l -6.639,11.5 6.639,11.5 h 30.023 l -15.012,26 13.279,23 z m 715.0486,61.5 -15.011,-26 h 30.022 l 13.279,-23 H 917.121 l 13.279,23 h 28.867 l 21.651,37.5 h 13.279 z m -115.47,25 -14.434,-25 21.651,-37.5 -6.64,-11.5 h -13.279 l -15.011,26 -15.011,-26 h -26.558 l 56.003,97 z M 458.9935,575 h -26.5581 l -14.4338,25 h -43.30122 l -6.63951,11.5 6.63951,11.5 h 30.02222 l -15.0111,26 13.279,22.9999 z m 599.5785,86.5 -14.434,-25 21.651,-37.5 -6.64,-11.5 h -13.279 l -15.011,26 -15.011,-26 H 989.29 l 56.003,97 z M 632.199,600 H 605.64 l -14.433,25 h -43.302 l -6.639,11.5 6.639,11.5 h 30.023 l -15.011,26 13.279,22.9999 z M 372.96829,674 357.9572,648 h 30.0222 l 13.279,-23 H 289.2525 l 13.2791,23 h 28.8675 l 21.6506,37.5 h 13.27905 z M 805.404,625 h -26.558 l -14.434,25 h -43.301 l -6.64,11.5 6.64,11.5 h 30.022 l -15.011,26 13.279,22.9999 z m -259.231,74 -15.011,-26 h 30.022 l 13.279,-23 H 462.4576 l 13.2794,23 h 28.867 l 21.651,37.5 h 13.279 z m 432.436,-49 h -26.558 l -14.434,25 h -43.301 l -6.64,11.5 6.64,11.5 h 30.022 l -15.011,26 13.279,22.99994 z m -547.9057,74 -14.4337,-25 21.6506,-37.5 -6.6395,-11.5 h -13.2791 l -15.0111,26 -15.0111,-26 h -26.5581 l 56.003,97 z m 288.6747,0 -15.011,-26 h 30.023 l 13.279,-23 H 635.663 l 13.279,23 h 28.867 l 21.651,37.5 h 13.279 z M 603.908,749.00002 589.475,724 611.125,686.5 604.486,675 h -13.279 l -15.011,26 -15.011,-26 h -26.559 l 56.003,97 z m 288.676,-5e-5 L 877.572,723 h 30.023 l 13.279,-23 H 808.868 l 13.279,23 h 28.867 l 21.651,37.5 h 13.279 z M 777.113,774 762.68,749 784.33,711.5 777.691,700 h -13.279 l -15.011,26 -15.011,-26 h -26.559 l 56.003,97 z M 350.7403,712.5 h -26.5581 l -14.4338,25 H 266.447 l -6.639,11.5 6.639,11.5 h 30.0224 l -15.0111,26 13.279,22.9999 z m 715.0487,61.5 -15.012,-26.00002 30.023,2e-5 13.279,-23 H 982.073 l 13.279,22.99997 28.867,3e-5 21.651,37.5 h 13.279 z m -115.47,25 -14.434,-25 21.65,-37.5 -6.639,-11.5 h -13.279 l -15.011,26 -15.011,-26 h -26.558 l 56.002,97 z M 523.945,737.5 h -26.558 l -14.433,25 h -43.3017 l -6.6395,11.5 6.6395,11.5 h 30.0222 l -15.0111,26 13.279,22.9999 z m 599.579,86.5 -14.434,-25 21.65,-37.5 -6.639,-11.49998 h -13.279 L 1095.811,776 1080.8,750.00002 h -26.558 L 1110.245,847 Z M 697.15,762.5 h -26.558 l -14.433,25 h -43.302 l -6.639,11.5 6.639,11.5 h 30.023 l -15.012,26 13.279,23 z m -259.2298,74 -15.0111,-26 h 30.0222 l 13.279,-23 H 354.2044 l 13.27907,23 H 396.351 l 21.6506,37.5 h 13.2791 z m 432.4358,-49 h -26.559 l -14.433,25 h -43.302 l -6.639,11.5 6.639,11.5 h 30.023 l -15.011,26 13.279,23 z m -259.231,74 -15.011,-26 h 30.022 l 13.279,-23 H 527.41 l 13.279,23 h 28.867 l 21.651,37.5 h 13.279 z m 432.436,-49 h -26.558 l -14.434,25 h -43.301 l -6.64,11.5 6.64,11.5 h 30.022 l -15.011,26 13.279,23 z m -259.231,74 -15.011,-26 h 30.022 l 13.279,-23 H 700.615 l 13.279,23 h 28.867 l 21.651,37.5 h 13.279 z m 173.205,25 -15.011,-26 h 30.023 l 13.279,-23 H 873.82 l 13.279,23 h 28.867 l 21.651,37.5 h 13.279 z m 173.206,25 -15.012,-26 h 30.023 l 13.279,-23 h -112.006 l 13.279,23 h 28.867 l 21.651,37.5 h 13.279 z"
     fill="#7ebae4"
     id="path13" />
</svg>
