<?xml version="1.0" encoding="UTF-8" standalone="no"?>
<svg
   width="228.63"
   height="198"
   version="1.1"
   id="svg15"
   sodipodi:docname="nix.svg"
   xmlns:inkscape="http://www.inkscape.org/namespaces/inkscape"
   xmlns:sodipodi="http://sodipodi.sourceforge.net/DTD/sodipodi-0.dtd"
   xmlns="http://www.w3.org/2000/svg"
   xmlns:svg="http://www.w3.org/2000/svg">
  <defs
     id="defs19" />
  <sodipodi:namedview
     id="namedview17"
     pagecolor="#505050"
     bordercolor="#ffffff"
     borderopacity="1"
     inkscape:showpageshadow="0"
     inkscape:pageopacity="0"
     inkscape:pagecheckerboard="1"
     inkscape:deskcolor="#505050" />
  <title
     id="title9">nix</title>
  <path
     d="M 120.95453,37.5 H 92.087 L 70.4364,0 H 57.1573 l -6.6395,11.5 15.0111,26 H 35.5067 l -13.279,23 h 112.0059 z m 57.73507,73 H 221.991 L 228.63,99 221.991,87.5 h -30.0224 l 15.0111,-26 -13.279,-22.9999 -56.003,96.9999 h 26.5581 z m -93.2421,61.5 15.0111,26 h 26.5581 l -56.003,-97 -13.279,23 14.4337,25 -21.6506,37.5 6.6395,11.5 h 13.2791 z"
     fill="#5277c3"
     id="path11" />
  <path
     d="M 170.8953,74 156.4616,49 178.1122,11.5 171.4727,0 H 158.1936 L 143.1825,26 128.1714,0 h -26.5581 l 56.003,97 z M 90.9323,62.5 H 64.3742 l -14.4338,25 H 6.639 L 0,99 6.639,110.5 h 30.0224 l -15.0111,26 13.279,22.9999 z m 87.1799,124 -15.0111,-26 h 30.0222 l 13.279,-23 H 94.3964 l 13.27907,23 H 136.543 l 21.6506,37.5 h 13.2791 z"
     fill="#7caedc"
     id="path13" />
</svg>
