<?xml version="1.0" standalone="no"?>
<!DOCTYPE svg PUBLIC "-//W3C//DTD SVG 1.1//EN" "http://www.w3.org/Graphics/SVG/1.1/DTD/svg11.dtd">
<svg width="0mm" height="0mm" xmlns="http://www.w3.org/2000/svg" version="1.1">
<title>nix</title>
<path d="
M 6.63953,-61.5 L -22.228,-61.5 L -43.8786,-99 L -57.1577,-99 L -63.7972,-87.5 L -48.7861,-61.5
 L -78.8083,-61.5 L -92.0873,-38.5 L 19.9186,-38.5 z
M 64.3746,11.5 L 107.676,11.5 L 114.315,-0 L 107.676,-11.5 L 77.6536,-11.5 L 92.6647,-37.5
 L 79.3857,-60.4999 L 23.3827,36.5 L 49.9408,36.5 z
M -28.8675,73 L -13.8564,99 L 12.7017,99 L -43.3013,2 L -56.5803,25 L -42.1466,50
 L -63.7972,87.5 L -57.1577,99 L -43.8786,99 z
"  fill="#5277c3" />
<path d="
M 56.5803,-25 L 42.1466,-50 L 63.7972,-87.5 L 57.1577,-99 L 43.8786,-99 L 28.8675,-73
 L 13.8564,-99 L -12.7017,-99 L 43.3013,-2 z
M -23.3827,-36.5 L -49.9408,-36.5 L -64.3746,-11.5 L -107.676,-11.5 L -114.315,-0 L -107.676,11.5
 L -77.6536,11.5 L -92.6647,37.5 L -79.3857,60.4999 z
M 63.7972,87.5 L 48.7861,61.5 L 78.8083,61.5 L 92.0873,38.5 L -19.9186,38.5 L -6.63953,61.5
 L 22.228,61.5 L 43.8786,99 L 57.1577,99 z
"  fill="#7caedc" />

</svg>
