<?xml version="1.0" encoding="UTF-8"?>
<svg width="1920" height="1080" version="1.1" viewBox="0 0 508 285.75" xmlns="http://www.w3.org/2000/svg">
  <g transform="translate(0 -11.25)">
    <g>
      <rect id="background-color" fill="#000" y="11.25" width="508" height="285.75"/>
      <g transform="scale(1.0125) translate(-156.34 868)">
        <g opacity="0.05">
          <g id="nixos-logo">
            <g id="dark-blue-lambdas" fill="#5277c3">
              <path d="m309.4-710.25 122.2 211.68-56.157 0.5268-32.624-56.869-32.856 56.565-27.902-0.011-14.291-24.69 46.81-80.49-33.229-57.826z"/>
              <path d="m451.34-803.53-244.41-0.012 27.622-48.897 65.562 0.18175-32.559-56.737 13.961-24.159 28.527-0.0315 46.301 80.784 66.693 0.13524z"/>
              <path d="m460.87-633.84 122.22-211.66 28.535 48.37-32.938 56.688 65.415 0.1718 13.941 24.17-14.236 24.721-93.112-0.294-33.464 57.69z"/>
            </g>
            <g id="light-blue-lambdas" fill="#7ebae4">
              <path d="m353.51-797.44-122.22 211.66-28.535-48.37 32.938-56.688-65.415-0.1719-13.941-24.17 14.236-24.721 93.112 0.2939 33.464-57.69z"/>
              <path d="m362.89-628.24 244.41 0.012-27.622 48.897-65.562-0.1817 32.559 56.737-13.961 24.158-28.527 0.032-46.301-80.784-66.693-0.1353z"/>
              <path d="m505.14-720.99-122.2-211.68 56.157-0.5268 32.624 56.869 32.856-56.565 27.902 0.011 14.291 24.69-46.81 80.49 33.229 57.826z"/>
            </g>
          </g>
        </g>
      </g>
    </g>
  </g>
</svg>
