<?xml version="1.0" encoding="UTF-8" standalone="no"?>
<!-- Created with Inkscape (http://www.inkscape.org/) -->

<svg
   width="1600"
   height="900"
   viewBox="0 0 423.33332 238.125"
   version="1.1"
   id="svg1"
   inkscape:version="1.3.2 (091e20ef0f, 2023-11-25)"
   sodipodi:docname="post-docs.svg"
   inkscape:export-filename="post-docs.png"
   inkscape:export-xdpi="96"
   inkscape:export-ydpi="96"
   xml:space="preserve"
   xmlns:inkscape="http://www.inkscape.org/namespaces/inkscape"
   xmlns:sodipodi="http://sodipodi.sourceforge.net/DTD/sodipodi-0.dtd"
   xmlns:xlink="http://www.w3.org/1999/xlink"
   xmlns="http://www.w3.org/2000/svg"
   xmlns:svg="http://www.w3.org/2000/svg"><sodipodi:namedview
     id="namedview1"
     pagecolor="#ffffff"
     bordercolor="#666666"
     borderopacity="1.0"
     inkscape:showpageshadow="2"
     inkscape:pageopacity="0.0"
     inkscape:pagecheckerboard="0"
     inkscape:deskcolor="#d1d1d1"
     inkscape:document-units="mm"
     showgrid="false"
     inkscape:zoom="0.5641026"
     inkscape:cx="850.90904"
     inkscape:cy="93.068176"
     inkscape:window-width="1974"
     inkscape:window-height="2066"
     inkscape:window-x="0"
     inkscape:window-y="0"
     inkscape:window-maximized="0"
     inkscape:current-layer="layer1"
     inkscape:export-bgcolor="#ffffff00" /><defs
     id="defs1"><linearGradient
       id="linearGradient2"
       inkscape:collect="always"><stop
         style="stop-color:#5277c3;stop-opacity:1;"
         offset="0"
         id="stop2" /><stop
         style="stop-color:#5277c3;stop-opacity:0;"
         offset="1"
         id="stop3" /></linearGradient><clipPath
       clipPathUnits="userSpaceOnUse"
       id="clipPath12"><rect
         style="font-variation-settings:'wght' 650;fill:#000000;fill-opacity:1;stroke:#000000;stroke-width:0;stroke-linecap:round;stroke-linejoin:round;paint-order:fill markers stroke"
         id="rect13"
         width="144.08966"
         height="109.30997"
         x="208.86131"
         y="125.72802"
         ry="16.304609" /></clipPath><linearGradient
       inkscape:collect="always"
       xlink:href="#linearGradient2"
       id="linearGradient3"
       x1="2.8424757"
       y1="-45.008232"
       x2="427.51044"
       y2="-45.008232"
       gradientUnits="userSpaceOnUse"
       gradientTransform="matrix(1,0,0,1.1160145,0,13.028039)" /><linearGradient
       y2="460.51822"
       x2="389.57562"
       y1="351.41116"
       x1="200.59668"
       gradientTransform="translate(210.82018,-765.27605)"
       gradientUnits="userSpaceOnUse"
       id="linearGradient1713"
       xlink:href="#main"
       inkscape:collect="always" /><linearGradient
       inkscape:collect="always"
       id="main"><stop
         style="stop-color:#ffffff;stop-opacity:0"
         offset="0"
         id="stop915" /><stop
         id="stop917"
         offset="0.23168644"
         style="stop-color:#ffffff;stop-opacity:1" /><stop
         style="stop-color:#ffffff;stop-opacity:1"
         offset="1"
         id="stop919" /></linearGradient><linearGradient
       y2="880.37714"
       x2="-414.38654"
       y1="782.33563"
       x1="-584.19934"
       gradientTransform="translate(864.69589,-1491.3405)"
       gradientUnits="userSpaceOnUse"
       id="linearGradient1299"
       xlink:href="#main"
       inkscape:collect="always" /><clipPath
       clipPathUnits="userSpaceOnUse"
       id="clipPath5"><circle
         style="font-variation-settings:'wght' 650;fill:none;fill-opacity:1;stroke:#7ebae4;stroke-width:4.99999;stroke-linecap:round;stroke-linejoin:round;stroke-dasharray:none;stroke-opacity:1;paint-order:fill markers stroke"
         id="circle5"
         cx="90.901253"
         cy="19.73628"
         r="44.691433" /></clipPath><clipPath
       clipPathUnits="userSpaceOnUse"
       id="clipPath8"><circle
         style="font-variation-settings:'wght' 650;display:inline;fill:none;fill-opacity:1;stroke:#7ebae4;stroke-width:4.99999;stroke-linecap:round;stroke-linejoin:round;stroke-dasharray:none;stroke-opacity:1;paint-order:fill markers stroke"
         id="circle8"
         cx="329.27744"
         cy="2.9051292"
         r="44.691433" /></clipPath></defs><g
     inkscape:label="Layer 1"
     inkscape:groupmode="layer"
     id="layer1"
     style="display:inline"
     transform="translate(-3.3243772,112.21739)"><rect
       style="font-variation-settings:'wght' 650;fill:#ffffff;fill-opacity:1;stroke:#5277c3;stroke-width:0;stroke-linecap:round;stroke-linejoin:round;stroke-opacity:1;paint-order:fill markers stroke"
       id="rect5"
       width="426.91272"
       height="241.8105"
       x="1.9195538"
       y="-114.41135"
       ry="0" /><rect
       style="font-variation-settings:'wght' 650;fill:#5177c3;fill-opacity:1;stroke:url(#linearGradient3);stroke-width:0;stroke-linecap:round;stroke-linejoin:round;stroke-opacity:1;paint-order:fill markers stroke"
       id="rect2"
       width="424.66797"
       height="150.18976"
       x="2.8424757"
       y="-112.29668"
       ry="0" /><text
       xml:space="preserve"
       style="font-style:normal;font-variant:normal;font-weight:normal;font-stretch:normal;font-size:45.8611px;line-height:1.25;font-family:Overpass;-inkscape-font-specification:'Overpass, @wght=650';font-variant-ligatures:normal;font-variant-caps:normal;font-variant-numeric:normal;font-variant-east-asian:normal;font-variation-settings:'wght' 650;letter-spacing:0px;word-spacing:0px;writing-mode:lr-tb;fill:#ffffff;stroke-width:0.264583"
       x="29.331676"
       y="31.462332"
       id="text3"><tspan
         sodipodi:role="line"
         id="tspan3"
         style="font-style:normal;font-variant:normal;font-weight:normal;font-stretch:normal;font-size:45.8611px;font-family:Overpass;-inkscape-font-specification:'Overpass, @wght=650';font-variant-ligatures:normal;font-variant-caps:normal;font-variant-numeric:normal;font-variant-east-asian:normal;font-variation-settings:'wght' 650;fill:#ffffff;stroke-width:0.264583"
         x="29.331676"
         y="31.462332">Nix</tspan></text><g
       style="display:inline;stroke-width:11.0512"
       transform="matrix(0.01201902,0,0,0.01201902,342.32569,-87.097063)"
       id="g955"><g
         transform="matrix(11.047619,0,0,11.047619,-1572.2888,9377.7107)"
         id="g869"><g
           transform="rotate(-60,226.35754,-449.37199)"
           id="g932"
           style="stroke-width:11.0512"><path
             sodipodi:nodetypes="cccccccccc"
             inkscape:connector-curvature="0"
             id="path3336-6"
             d="m 449.71876,-420.51322 122.19683,211.67512 -56.15706,0.5268 -32.6236,-56.8692 -32.85645,56.5653 -27.90237,-0.011 -14.29086,-24.6896 46.81047,-80.4901 -33.22946,-57.8257 z"
             style="opacity:1;fill:url(#linearGradient1713);fill-opacity:1;fill-rule:evenodd;stroke:none;stroke-width:33.1535;stroke-linecap:butt;stroke-linejoin:round;stroke-miterlimit:4;stroke-dasharray:none;stroke-opacity:1" /></g><path
           sodipodi:nodetypes="cccccccccc"
           inkscape:connector-curvature="0"
           id="path4260-0"
           d="m 309.54892,-710.38827 122.19683,211.67512 -56.15706,0.5268 -32.6236,-56.8692 -32.85645,56.5653 -27.90237,-0.011 -14.29086,-24.6896 46.81047,-80.4901 -33.22946,-57.8256 z"
           style="color:#000000;clip-rule:nonzero;display:inline;overflow:visible;visibility:visible;opacity:1;isolation:auto;mix-blend-mode:normal;color-interpolation:sRGB;color-interpolation-filters:linearRGB;solid-color:#000000;solid-opacity:1;fill:url(#linearGradient1299);fill-opacity:1;fill-rule:evenodd;stroke:none;stroke-width:33.1535;stroke-linecap:butt;stroke-linejoin:round;stroke-miterlimit:4;stroke-dasharray:none;stroke-dashoffset:0;stroke-opacity:1;color-rendering:auto;image-rendering:auto;shape-rendering:auto;text-rendering:auto;enable-background:accumulate" /><use
           x="0"
           y="0"
           xlink:href="#path3336-6"
           inkscape:transform-center-x="124.43045"
           inkscape:transform-center-y="151.59082"
           id="use3439-6"
           transform="rotate(60,728.23563,-692.24036)"
           width="100%"
           height="100%"
           style="stroke-width:11.0512" /><use
           x="0"
           y="0"
           xlink:href="#path3336-6"
           inkscape:transform-center-x="59.669705"
           inkscape:transform-center-y="-139.94592"
           id="use3449-5"
           transform="rotate(180,477.5036,-570.81898)"
           width="100%"
           height="100%"
           style="stroke-width:11.0512" /><use
           style="display:inline;stroke-width:11.0512"
           x="0"
           y="0"
           xlink:href="#path4260-0"
           id="use4354-5"
           transform="rotate(120,407.33916,-716.08356)"
           width="100%"
           height="100%" /><use
           style="display:inline;stroke-width:11.0512"
           x="0"
           y="0"
           xlink:href="#path4260-0"
           id="use4362-2"
           transform="rotate(-120,407.28823,-715.86995)"
           width="100%"
           height="100%" /></g></g><text
       xml:space="preserve"
       style="font-size:45.861px;line-height:1.25;font-family:Overpass;-inkscape-font-specification:'Overpass, @wght=650';font-variation-settings:'wght' 650;letter-spacing:0px;word-spacing:0px;writing-mode:lr-tb;stroke-width:0.264583"
       x="64.864067"
       y="71.682983"
       id="text1"><tspan
         sodipodi:role="line"
         style="font-style:normal;font-variant:normal;font-weight:normal;font-stretch:normal;font-size:35.2778px;font-family:Overpass;-inkscape-font-specification:'Overpass, @wght=650';font-variant-ligatures:normal;font-variant-caps:normal;font-variant-numeric:normal;font-variant-east-asian:normal;font-variation-settings:'wght' 650;stroke-width:0.264583"
         x="64.864067"
         y="71.682983"
         id="tspan2">Documentation Team</tspan></text><g
       transform="matrix(0.01161702,0,0,-0.01161702,189.89717,20.999446)"
       fill="#000000"
       stroke="none"
       id="g2"><path
         d="M 6150,7671 C 6059,7633 5760,7512 5485,7400 5210,7289 4832,7136 4645,7060 4248,6898 1631,5838 680,5453 320,5307 21,5184 16,5179 c -5,-4 444,-233 1039,-529 577,-286 1051,-522 1053,-524 2,-2 13,-188 25,-413 l 21,-409 -34,-47 c -28,-40 -35,-59 -38,-112 -4,-57 -1,-70 25,-117 l 30,-53 -28,-220 c -37,-286 -104,-868 -123,-1065 -9,-85 -18,-182 -21,-214 l -6,-59 61,-58 c 70,-67 195,-134 279,-149 70,-13 160,-13 257,1 84,11 128,29 138,54 3,8 -6,104 -19,213 -49,395 -75,814 -75,1233 0,217 1,227 21,245 65,59 81,167 36,254 -15,28 -27,68 -27,88 0,45 41,536 45,540 1,2 830,-411 1842,-917 l 1839,-919 600,302 c 329,166 1544,776 2699,1355 3075,1542 3137,1573 3128,1582 -4,4 -395,157 -868,339 -473,183 -1125,435 -1450,560 -878,340 -2739,1058 -3235,1250 -239,92 -541,209 -670,259 -129,50 -237,91 -240,90 -3,0 -79,-31 -170,-68 z"
         id="path1" /><path
         d="m 3266,3367 c -3,-12 -16,-130 -30,-262 -45,-431 -146,-1374 -176,-1653 -17,-151 -30,-275 -30,-277 0,-9 455,-305 600,-390 C 3979,581 4426,375 4780,256 5561,-6 6349,-66 7130,76 c 776,141 1536,466 2337,997 l 153,101 -5,36 c -3,19 -26,249 -51,510 -122,1257 -160,1640 -166,1646 -4,3 -690,-337 -1525,-756 L 6355,1848 4812,2619 c -1438,719 -1542,769 -1546,748 z"
         id="path2" /></g></g></svg>
