<?xml version="1.0" encoding="UTF-8" standalone="no"?>
<!-- Created with Inkscape (http://www.inkscape.org/) -->

<svg
   width="1600"
   height="900"
   viewBox="0 0 423.33332 238.125"
   version="1.1"
   id="svg1"
   inkscape:version="1.3.2 (091e20ef0f, 2023-11-25)"
   sodipodi:docname="post-brunix.svg"
   inkscape:export-filename="post-brunix.png"
   inkscape:export-xdpi="96"
   inkscape:export-ydpi="96"
   xmlns:inkscape="http://www.inkscape.org/namespaces/inkscape"
   xmlns:sodipodi="http://sodipodi.sourceforge.net/DTD/sodipodi-0.dtd"
   xmlns:xlink="http://www.w3.org/1999/xlink"
   xmlns="http://www.w3.org/2000/svg"
   xmlns:svg="http://www.w3.org/2000/svg">
  <sodipodi:namedview
     id="namedview1"
     pagecolor="#ffffff"
     bordercolor="#666666"
     borderopacity="1.0"
     inkscape:showpageshadow="2"
     inkscape:pageopacity="0.0"
     inkscape:pagecheckerboard="0"
     inkscape:deskcolor="#d1d1d1"
     inkscape:document-units="mm"
     showgrid="false"
     inkscape:zoom="0.83428381"
     inkscape:cx="889.98491"
     inkscape:cy="677.82689"
     inkscape:window-width="2475"
     inkscape:window-height="2066"
     inkscape:window-x="0"
     inkscape:window-y="0"
     inkscape:window-maximized="0"
     inkscape:current-layer="layer1"
     inkscape:export-bgcolor="#ffffff00" />
  <defs
     id="defs1">
    <linearGradient
       id="linearGradient2"
       inkscape:collect="always">
      <stop
         style="stop-color:#5277c3;stop-opacity:1;"
         offset="0"
         id="stop2" />
      <stop
         style="stop-color:#5277c3;stop-opacity:0;"
         offset="1"
         id="stop3" />
    </linearGradient>
    <clipPath
       clipPathUnits="userSpaceOnUse"
       id="clipPath12">
      <rect
         style="font-variation-settings:'wght' 650;fill:#000000;fill-opacity:1;stroke:#000000;stroke-width:0;stroke-linecap:round;stroke-linejoin:round;paint-order:fill markers stroke"
         id="rect13"
         width="144.08966"
         height="109.30997"
         x="208.86131"
         y="125.72802"
         ry="16.304609" />
    </clipPath>
    <linearGradient
       inkscape:collect="always"
       xlink:href="#linearGradient2"
       id="linearGradient3"
       x1="2.8424757"
       y1="-45.008232"
       x2="427.51044"
       y2="-45.008232"
       gradientUnits="userSpaceOnUse"
       gradientTransform="matrix(1,0,0,1.1160145,0,13.028039)" />
    <linearGradient
       y2="460.51822"
       x2="389.57562"
       y1="351.41116"
       x1="200.59668"
       gradientTransform="translate(210.82018,-765.27605)"
       gradientUnits="userSpaceOnUse"
       id="linearGradient1713"
       xlink:href="#main"
       inkscape:collect="always" />
    <linearGradient
       inkscape:collect="always"
       id="main">
      <stop
         style="stop-color:#ffffff;stop-opacity:0"
         offset="0"
         id="stop915" />
      <stop
         id="stop917"
         offset="0.23168644"
         style="stop-color:#ffffff;stop-opacity:1" />
      <stop
         style="stop-color:#ffffff;stop-opacity:1"
         offset="1"
         id="stop919" />
    </linearGradient>
    <linearGradient
       y2="880.37714"
       x2="-414.38654"
       y1="782.33563"
       x1="-584.19934"
       gradientTransform="translate(864.69589,-1491.3405)"
       gradientUnits="userSpaceOnUse"
       id="linearGradient1299"
       xlink:href="#main"
       inkscape:collect="always" />
  </defs>
  <g
     inkscape:label="Layer 1"
     inkscape:groupmode="layer"
     id="layer1"
     style="display:inline"
     transform="translate(-3.3243772,112.21739)">
    <rect
       style="font-variation-settings:'wght' 650;fill:#ffffff;fill-opacity:1;stroke:#5277c3;stroke-width:0;stroke-linecap:round;stroke-linejoin:round;stroke-opacity:1;paint-order:fill markers stroke"
       id="rect5"
       width="426.91272"
       height="241.8105"
       x="1.9195538"
       y="-114.41135"
       ry="0" />
    <rect
       style="font-variation-settings:'wght' 650;fill:#5177c3;fill-opacity:1;stroke:url(#linearGradient3);stroke-width:0;stroke-linecap:round;stroke-linejoin:round;stroke-opacity:1;paint-order:fill markers stroke"
       id="rect2"
       width="424.66797"
       height="150.18976"
       x="2.8424757"
       y="-112.29668"
       ry="0" />
    <path
       style="opacity:1;fill:#000000;fill-opacity:0.998883;stroke:none;stroke-opacity:1"
       d="m 235.26006,228.81573 c -0.0731,-0.19037 -0.0991,-1.76795 -0.0578,-3.50573 l 0.075,-3.15959 0.7276,-0.0837 c 0.70903,-0.0816 0.72761,-0.0495 0.72761,1.25677 0,1.84456 0.72778,1.91663 0.84539,0.0837 0.0733,-1.14266 0.1407,-1.25677 0.74211,-1.25677 h 0.66145 l 0.0738,3.50573 0.0738,3.50573 h -0.80142 c -0.78533,0 -0.80143,-0.0266 -0.80143,-1.32292 0,-0.99954 -0.097,-1.32292 -0.39688,-1.32292 -0.29986,0 -0.39687,0.32338 -0.39687,1.32292 0,1.33044 -1.06541,2.03726 -1.47235,0.97678 z m 4.64735,-3.22574 v -3.57187 h 1.85208 1.85208 v 3.58945 3.58944 l -0.7276,-0.0837 c -0.66632,-0.0767 -0.7344,-0.18957 -0.80825,-1.34049 -0.11685,-1.82102 -0.8454,-1.76402 -0.8454,0.0661 0,1.23472 -0.0441,1.32292 -0.66146,1.32292 h -0.66145 z m 2.11666,-1.32291 c 0,-0.21829 -0.17859,-0.39688 -0.39687,-0.39688 -0.21828,0 -0.39688,0.17859 -0.39688,0.39688 0,0.21828 0.1786,0.39687 0.39688,0.39687 0.21828,0 0.39687,-0.17859 0.39687,-0.39687 z m 2.38125,1.32291 v -3.57187 h 1.85208 1.85209 v 0.92604 c 0,0.90399 -0.0252,0.92604 -1.05834,0.92604 h -1.05833 v 1.71979 1.71979 h 1.05833 c 1.03314,0 1.05834,0.0221 1.05834,0.92604 v 0.92605 h -1.85209 -1.85208 z m 4.55638,0.0661 0.0738,-3.50573 0.7276,-0.0837 c 0.71102,-0.0818 0.72761,-0.0524 0.72761,1.28917 0,1.19034 0.0528,1.32909 0.39687,1.04351 0.23002,-0.1909 0.39688,-0.7681 0.39688,-1.37289 0,-0.98228 0.0427,-1.0386 0.7276,-0.95979 0.89306,0.10276 1.18211,1.85953 0.48181,2.92833 -0.36666,0.55958 -0.3666,0.67958 6.2e-4,1.20385 0.70859,1.01165 0.41063,2.81167 -0.48243,2.91442 -0.66296,0.0763 -0.72835,0.006 -0.73602,-0.79375 -0.005,-0.4826 -0.18322,-1.10858 -0.39687,-1.39106 -0.35763,-0.47282 -0.38846,-0.40457 -0.38846,0.8599 0,1.35263 -0.0122,1.37349 -0.80143,1.37349 h -0.80143 z m 4.70403,-0.0782 v -3.58396 l 1.78594,0.0782 1.78594,0.0782 0.0829,0.85989 c 0.0826,0.85663 0.0783,0.8599 -1.12448,0.8599 -0.89685,0 -1.20739,0.10208 -1.20739,0.39688 0,0.26458 0.26458,0.39687 0.79375,0.39687 0.73075,0 0.79375,0.0735 0.79375,0.92604 0,0.85255 -0.063,0.92604 -0.79375,0.92604 -0.52917,0 -0.79375,0.13229 -0.79375,0.39688 0,0.29398 0.30868,0.39687 1.19063,0.39687 1.18432,0 1.19062,0.005 1.19062,0.92604 v 0.92605 h -1.85208 -1.85209 z m 4.49792,0.0121 v -3.57187 h 1.85208 1.85209 v 1.42281 c 0,0.9524 -0.13343,1.53354 -0.40355,1.75773 -0.36168,0.30016 -0.36168,0.38118 0,0.78083 0.79044,0.87343 0.54635,3.23395 -0.32406,3.1338 -0.62833,-0.0723 -0.74565,-0.22529 -0.85989,-1.12137 -0.19472,-1.52725 -0.79375,-1.5595 -0.79375,-0.0427 0,1.11713 -0.0521,1.21268 -0.66146,1.21268 h -0.66146 z m 1.98437,-1.45521 c 0.0899,-0.14552 -0.0221,-0.26458 -0.24896,-0.26458 -0.22687,0 -0.41249,0.11906 -0.41249,0.26458 0,0.14552 0.11203,0.26459 0.24896,0.26459 0.13694,0 0.32256,-0.11907 0.41249,-0.26459 z m 2.51355,4.11263 c 0,-0.93487 0.003,-0.93763 1.19062,-0.93763 0.88194,0 1.19062,-0.10289 1.19062,-0.39687 0,-0.29451 -0.30986,-0.39688 -1.20132,-0.39688 h -1.20133 l 0.0768,-2.18281 0.0769,-2.18281 h 1.85208 1.85208 l 0.0829,0.85989 c 0.0826,0.85663 0.0783,0.8599 -1.12448,0.8599 -1.64327,0 -1.71459,0.72663 -0.0829,0.84468 l 1.12448,0.0814 v 2.11667 2.11666 l -1.91823,0.0777 -1.91822,0.0777 z m 4.76249,-2.66951 v -3.58396 l 1.78594,0.0782 1.78594,0.0782 0.0811,1.26743 c 0.0755,1.18004 -0.002,1.3599 -1.12448,2.6083 -0.93052,1.03497 -1.20556,1.54561 -1.20556,2.2383 0,0.78086 -0.0859,0.89743 -0.66146,0.89743 h -0.66146 z m 1.85209,-1.31082 c 0.26976,-0.32505 0.25168,-0.39688 -0.0999,-0.39688 -0.2361,0 -0.42927,0.17859 -0.42927,0.39688 0,0.21828 0.045,0.39687 0.0999,0.39687 0.055,0 0.24812,-0.17859 0.42928,-0.39687 z m 2.64583,1.32291 v -3.57187 h 1.85208 1.85208 v 3.58945 3.58944 l -0.7276,-0.0837 c -0.66632,-0.0767 -0.7344,-0.18957 -0.80825,-1.34049 -0.11684,-1.82102 -0.84539,-1.76402 -0.84539,0.0661 0,1.23472 -0.0441,1.32292 -0.66146,1.32292 h -0.66146 z m 2.11667,-1.32291 c 0,-0.21829 -0.1786,-0.39688 -0.39688,-0.39688 -0.21828,0 -0.39687,0.17859 -0.39687,0.39688 0,0.21828 0.17859,0.39687 0.39687,0.39687 0.21828,0 0.39688,-0.17859 0.39688,-0.39687 z m 2.38124,1.32291 v -3.57187 h 1.85209 1.85208 v 0.92604 c 0,0.90399 -0.0252,0.92604 -1.05833,0.92604 h -1.05834 v 1.71979 1.71979 h 1.05834 c 1.03313,0 1.05833,0.0221 1.05833,0.92604 v 0.92605 h -1.85208 -1.85209 z m 4.61774,3.23791 c -0.0756,-0.19706 -0.10375,-1.78012 -0.0625,-3.5179 l 0.075,-3.15959 h 1.85208 1.85209 l 0.0829,0.85989 c 0.0826,0.85663 0.0783,0.8599 -1.12448,0.8599 -0.89685,0 -1.20739,0.10208 -1.20739,0.39688 0,0.26458 0.26458,0.39687 0.79375,0.39687 0.73075,0 0.79375,0.0735 0.79375,0.92604 0,0.85255 -0.063,0.92604 -0.79375,0.92604 -0.52917,0 -0.79375,0.13229 -0.79375,0.39688 0,0.2948 0.31054,0.39687 1.20739,0.39687 1.2028,0 1.20707,0.003 1.12448,0.8599 l -0.0829,0.85989 -1.78957,0.0783 c -1.31754,0.0577 -1.82584,-0.0162 -1.92707,-0.27999 z m 6.55315,-3.16002 0.0739,-3.51747 h 1.85209 1.85208 l 0.0813,1.1242 c 0.0508,0.70203 -0.0718,1.34287 -0.32652,1.70651 -0.36721,0.52427 -0.36727,0.64426 -6.2e-4,1.20385 0.24878,0.37967 0.37584,1.05407 0.32652,1.73307 l -0.0807,1.11153 -1.92599,0.0779 -1.92599,0.0779 z m 1.88937,1.24503 c -0.0838,-0.21828 -0.19908,-0.39688 -0.25627,-0.39688 -0.0572,0 -0.10399,0.1786 -0.10399,0.39688 0,0.21828 0.11533,0.39687 0.25628,0.39687 0.14095,0 0.18775,-0.17859 0.10398,-0.39687 z m 0.16891,-2.79374 c 0,-0.13693 -0.11907,-0.24897 -0.26459,-0.24897 -0.14552,0 -0.26458,0.18562 -0.26458,0.41249 0,0.22687 0.11906,0.33891 0.26458,0.24897 0.14552,-0.0899 0.26459,-0.27556 0.26459,-0.41249 z m 2.64583,1.45873 v -3.58396 l 1.78594,0.0782 1.78593,0.0782 0.0818,1.2848 c 0.0548,0.8604 -0.0478,1.42848 -0.31053,1.71979 -0.34046,0.37749 -0.34253,0.50289 -0.0156,0.94858 0.76945,1.04912 0.49545,3.05829 -0.41707,3.05829 -0.74548,0 -0.79375,-0.0624 -0.79375,-1.02594 0,-0.58917 -0.16897,-1.16616 -0.39688,-1.35531 -0.34399,-0.28549 -0.39687,-0.14879 -0.39687,1.02593 0,1.26928 -0.042,1.35532 -0.66146,1.35532 h -0.66146 z m 1.85208,-1.31082 c 0.26976,-0.32505 0.25168,-0.39688 -0.0999,-0.39688 -0.2361,0 -0.42927,0.17859 -0.42927,0.39688 0,0.21828 0.045,0.39687 0.0999,0.39687 0.0549,0 0.24812,-0.17859 0.42927,-0.39687 z m 2.64584,1.32291 v -3.57187 h 0.66145 0.66146 v 2.64583 c 0,3.83501 0.738,3.89241 0.85032,0.0661 l 0.0757,-2.57969 0.72761,-0.0837 0.7276,-0.0837 v 3.58945 3.58945 h -1.85208 -1.85208 z m 4.49791,2.64583 c 0,-0.92114 0.006,-0.92604 1.19063,-0.92604 0.88194,0 1.19062,-0.10289 1.19062,-0.39687 0,-0.29398 -0.30868,-0.39688 -1.19062,-0.39688 h -1.19063 v -2.24895 -2.24896 h 1.85208 1.85209 v 0.92604 c 0,0.90399 -0.0252,0.92604 -1.05834,0.92604 -0.76435,0 -1.05833,0.11024 -1.05833,0.39688 0,0.28663 0.29398,0.39687 1.05833,0.39687 h 1.05834 v 2.24896 2.24896 h -1.85209 -1.85208 z m 4.68514,0.76049 c -0.734,-0.734 -0.1673,-1.68653 1.0034,-1.68653 0.88194,0 1.19063,-0.10289 1.19063,-0.39687 0,-0.29451 -0.30987,-0.39688 -1.20133,-0.39688 h -1.20132 l 0.0768,-2.18281 0.0768,-2.18281 h 1.85208 1.85208 l 0.0829,0.85989 c 0.0826,0.85663 0.0783,0.8599 -1.12448,0.8599 -1.64327,0 -1.71459,0.72663 -0.0829,0.84468 l 1.12448,0.0814 v 2.11667 2.11666 l -1.731,0.077 c -0.95205,0.0423 -1.81525,-0.007 -1.91823,-0.11025 z m 4.57527,-3.41841 v -3.58396 l 1.78594,0.0782 1.78594,0.0782 0.0829,0.85989 c 0.0826,0.85663 0.0783,0.8599 -1.12448,0.8599 -0.89685,0 -1.20739,0.10208 -1.20739,0.39688 0,0.26458 0.26458,0.39687 0.79375,0.39687 0.73075,0 0.79375,0.0735 0.79375,0.92604 0,0.85255 -0.063,0.92604 -0.79375,0.92604 -0.52917,0 -0.79375,0.13229 -0.79375,0.39688 0,0.29398 0.30868,0.39687 1.19063,0.39687 1.18432,0 1.19062,0.005 1.19062,0.92604 v 0.92605 h -1.85208 -1.85209 z m 4.49792,-0.005 v -3.58945 l 0.7276,0.0837 0.72761,0.0837 0.0757,2.57969 0.0757,2.57968 h 1.04875 c 1.02219,0 1.04876,0.0235 1.04876,0.92604 v 0.92605 h -1.85209 -1.85208 z m 4.49792,2.6634 c 0,-0.92114 0.006,-0.92604 1.19062,-0.92604 0.88194,0 1.19062,-0.10289 1.19062,-0.39687 0,-0.29451 -0.30986,-0.39688 -1.20132,-0.39688 h -1.20133 l 0.0768,-2.18281 0.0768,-2.18281 1.78593,-0.0782 1.78594,-0.0782 v 0.93813 c 0,0.9181 -0.0226,0.93813 -1.05833,0.93813 -0.76435,0 -1.05833,0.11024 -1.05833,0.39688 0,0.28663 0.29398,0.39687 1.05833,0.39687 h 1.05833 v 2.24896 2.24896 h -1.85208 -1.85208 z m -99.74789,-23.15103 v -23.81249 h 5.95312 5.95312 v -0.74425 c 0,-0.48156 -0.28015,-1.01266 -0.79375,-1.50471 l -0.79375,-0.76046 v -3.1187 -3.11871 l -0.75807,-0.39201 c -1.82774,-0.94517 -1.98892,-3.7066 -0.28966,-4.96291 0.65721,-0.4859 0.78315,-0.76248 0.78315,-1.71988 v -1.14087 h -1.71979 -1.71979 v -3.0427 -3.04271 h 1.71979 1.71979 v -1.01586 c 0,-0.80852 -0.12646,-1.07349 -0.61956,-1.29816 -1.79024,-0.81569 -1.78169,-3.83045 0.0141,-4.95777 l 0.8497,-0.53342 0.0102,-4.82864 c 0.01,-4.65565 -0.009,-4.82864 -0.51897,-4.82864 -0.38806,0 -0.52917,0.17639 -0.52917,0.66145 v 0.66146 h -4.63021 -4.6302 v -2.50535 -2.50488 l 2.97656,-0.0748 2.97656,-0.0748 0.08,-1.38906 0.08,-1.38906 h -3.05654 -3.05653 v -2.64583 -2.64583 h 1.19062 1.19063 v -2.64531 -2.64528 l 7.17983,-10.94435 7.17984,-10.94435 15.22225,-6.320256 15.22225,-6.320253 2.00572,-2.591471 c 2.55843,-3.305594 2.55016,-3.279936 1.9358,-6.007485 l -0.50657,-2.248957 -0.90238,0.0411 c -0.82665,0.03765 -6.58622,-7.892554 -6.42771,-8.85015 0.017,-0.102729 0.24397,-1.228576 0.50437,-2.501883 l 0.47346,-2.315103 h 1.01192 1.01191 l -0.12741,-1.124479 c -0.0701,-0.618464 -0.2463,-2.424151 -0.39161,-4.012638 -0.29426,-3.216956 -0.29097,-3.207236 -0.96955,-2.85757 -1.65972,0.855241 -1.43742,-0.422912 0.48213,-2.772047 l 1.62926,-1.993887 -1.16624,0.192769 -1.16624,0.192769 0.54609,-0.625477 c 3.19805,-3.662942 3.55495,-4.157449 3.55495,-4.925673 0,-3.763737 12.39955,-8.028886 18.97385,-6.526555 4.50242,1.028871 6.61637,2.178966 7.25591,3.947559 0.25208,0.697134 0.58179,0.989075 1.52294,1.348504 1.75742,0.671163 3.48102,2.669487 4.79725,5.56186 l 1.09782,2.412423 1.58356,0.479465 c 1.95594,0.592211 2.32147,1.198538 3.05737,5.071538 l 0.51358,2.702933 -1.01146,0.987669 c -1.2076,1.179185 -1.38287,1.631428 -1.01118,2.609052 0.19924,0.524041 0.18717,2.873128 -0.0416,8.099704 l -0.32225,7.361595 -0.87768,0.850684 -0.87769,0.850684 v -0.925027 c 0,-0.508765 0.11576,-1.040786 0.25724,-1.182268 0.28086,-0.280854 0.96896,-13.846169 0.73348,-14.45982 -0.0797,-0.207602 -1.0793,-0.653262 -2.22142,-0.990356 -1.14212,-0.337094 -2.24495,-0.675809 -2.45072,-0.752701 -0.26313,-0.09833 -0.30759,-0.03214 -0.14986,0.223083 0.12336,0.199588 0.19672,0.830005 0.16303,1.400929 -0.0566,0.959213 0.0804,1.184084 1.8035,2.961168 1.02562,1.057719 1.86475,2.048962 1.86475,2.202761 0,0.412343 -0.79562,0.785066 -1.36049,0.637348 -0.27038,-0.0707 -0.49159,-0.05513 -0.49159,0.0346 0,0.376044 1.09877,1.221483 1.5875,1.221483 0.38806,0 0.52917,0.176389 0.52917,0.661458 0,0.363802 -0.12757,0.661458 -0.28349,0.661458 -0.3663,0 -1.03943,-0.673124 -1.03943,-1.039434 0,-0.155915 -0.17859,-0.283482 -0.39687,-0.283482 -0.21829,0 -0.39688,-0.178594 -0.39688,-0.396875 0,-0.218281 -0.12757,-0.396875 -0.28348,-0.396875 -0.36631,0 -1.03944,-0.673124 -1.03944,-1.039434 0,-0.155915 -0.17859,-0.283482 -0.39687,-0.283482 -0.24694,0 -0.39688,-0.249884 -0.39688,-0.661458 0,-0.363802 0.12757,-0.661458 0.28349,-0.661458 0.5049,0 1.03943,0.738623 1.03943,1.436309 0,0.802909 0.6666,0.930578 0.86655,0.165965 0.14742,-0.563754 -2.59477,-3.189773 -3.33089,-3.189773 -0.54671,0 -0.81888,-0.852423 -0.37793,-1.183645 0.92192,-0.692514 0.76945,-1.240634 -1.1546,-4.15056 -2.41877,-3.658131 -2.59445,-3.684356 -4.21113,-0.628613 -1.3203,2.495548 -1.52047,2.606665 -5.36777,2.979719 -1.8066,0.175177 -3.23721,-0.886077 -4.04469,-3.000422 -0.48044,-1.25803 -0.074,-1.209683 -4.25101,-0.505626 -1.87542,0.316109 -1.89665,0.313139 -2.01028,-0.281268 -0.12829,-0.67111 0.0522,-0.749426 2.45051,-1.06345 0.80036,-0.104795 1.32638,-0.233767 1.16894,-0.286605 -0.57981,-0.194575 -8.86932,0.977335 -9.6053,1.357926 -1.41266,0.730513 -3.18555,3.369531 -2.67673,3.984419 0.6578,0.79493 1.8637,4.460141 1.53586,4.668084 -0.68191,0.432521 -0.91755,0.200344 -1.51538,-1.493085 -0.51813,-1.467656 -0.69986,-1.719791 -1.23956,-1.719791 -0.34782,0 -0.63241,-0.119062 -0.63241,-0.264583 0,-0.935598 -1.03371,-0.147215 -1.30842,0.997895 -0.49635,2.06901 -0.46473,2.161212 2.08281,6.073462 l 2.45104,3.764066 0.78647,-0.4067 c 0.43256,-0.223685 0.92723,-0.358263 1.09926,-0.299063 0.17204,0.0592 0.63528,0.01663 1.02943,-0.09461 0.5882,-0.165997 0.74738,-0.105359 0.88821,0.33834 0.18518,0.583466 -0.2282,0.992797 -1.00953,0.999634 -0.25466,0.0022 -0.46088,0.15288 -0.45826,0.334781 0.006,0.42621 1.25208,5.783441 1.36496,5.868983 0.047,0.03563 3.32994,1.942049 7.29538,4.236493 6.26794,3.626694 7.20989,4.254486 7.20989,4.805253 0,0.567332 0.11751,0.634613 1.12448,0.643837 0.78534,0.0072 1.56336,0.271942 2.57969,0.877833 l 1.4552,0.867533 0.0753,2.5304 0.0754,2.530399 1.47088,0.976611 c 0.80899,0.53714 1.50459,0.9382 1.54578,0.89124 0.0412,-0.0469 0.31404,-0.56161 0.60634,-1.14369 l 0.53145,-1.058337 -1.69517,-2.362863 -1.69516,-2.362863 0.85127,-0.878282 c 0.6481,-0.668678 1.07461,-0.878282 1.78714,-0.878282 h 0.93587 l -0.95938,0.959383 -0.95938,0.959382 1.58481,2.215617 c 1.84027,2.572756 1.57782,2.481782 3.6311,1.258651 1.75711,-1.046708 1.78704,-1.101366 1.21188,-2.213599 -0.37213,-0.719617 -0.35555,-0.809424 0.29139,-1.578268 0.37729,-0.448377 0.61811,-0.992067 0.53518,-1.208199 -0.0912,-0.237635 0.003,-0.392967 0.23777,-0.392967 0.21372,0 0.39663,-0.208359 0.40648,-0.46302 0.0149,-0.384696 0.0638,-0.368237 0.2894,0.0973 0.18502,0.381852 2.51787,1.628619 7.32428,3.914391 l 7.05278,3.354073 2.44736,5.213733 2.44736,5.21373 -0.15846,2.11667 -0.15846,2.11666 3.85553,5.42396 3.85552,5.42395 0.007,3.37344 0.007,3.37343 h 0.79375 0.79375 v 6.48229 6.48229 h -0.79375 -0.79375 v 3.26258 c 0,3.19327 0.0138,3.26997 0.64948,3.61018 1.89886,1.01624 1.74232,4.17268 -0.252,5.08135 l -0.66207,0.30166 v 3.92628 3.92628 h -8.46666 -8.46667 v 6.86159 6.86159 l 0.72761,0.0837 c 0.65106,0.0749 0.73616,0.20201 0.80896,1.2082 l 0.0814,1.12448 h 1.3077 1.30771 v -1.19063 c 0,-0.88194 0.10289,-1.19062 0.39687,-1.19062 0.33885,0 0.39688,-0.73495 0.39688,-5.02708 v -5.02708 h 8.46666 c 5.26457,0 8.46666,-0.0966 8.46666,-0.25538 0,-0.42084 1.61354,-2.12587 2.01179,-2.12587 0.30213,0 0.36946,-0.84254 0.36946,-4.62342 v -4.62341 l -0.78927,-0.40815 c -3.11011,-1.6083 -1.08186,-6.5632 2.21001,-5.39894 2.55128,0.90233 2.85278,4.31314 0.47674,5.39322 -0.55797,0.25364 -0.57451,0.39494 -0.57289,4.89479 l 0.002,4.63361 0.80307,0.45703 c 2.28891,1.30261 1.61199,4.90275 -1.01449,5.39548 -1.14573,0.21494 -2.59659,-0.43612 -3.01415,-1.35258 l -0.3023,-0.66347 h -7.89503 -7.89503 v 4.34965 4.34966 l 0.99219,0.0821 c 0.96309,0.0797 0.99457,0.11509 1.07355,1.2066 l 0.0813,1.12448 h 8.58375 8.58374 v 23.81249 23.81249 h -6.74687 -6.74688 v -3.29938 -3.29939 l 3.37344,-0.074 3.37344,-0.074 0.0681,-17.00013 0.0681,-17.00012 -52.72016,0.0668 -52.72016,0.0668 v 16.93333 16.93333 l 3.37344,0.074 3.37343,0.074 v 3.29939 3.29938 h -6.74687 -6.74687 z m 23.01874,-24.60624 v -0.79375 h 1.98438 c 4.45158,0 2.6815,-1.03111 -1.91823,-1.11741 l -3.90261,-0.0732 -0.0704,-7.05888 -0.0704,-7.05889 8.33866,-7.9959 8.33866,-7.99589 v -6.70719 -6.70719 h -0.66146 -0.66146 v -4.49841 -4.49791 h 1.98438 1.98437 v 4.47951 c 0,4.44398 -0.005,4.48018 -0.59531,4.56406 l -0.59531,0.0846 -0.1323,7.03297 -0.13229,7.03297 -8.27295,7.91247 -8.27295,7.91247 0.0709,6.08893 0.0709,6.08893 3.9026,0.0732 3.90261,0.0732 v 1.18355 1.18355 h 1.71979 1.71979 v 0.79375 c 0,1.28816 2.3061,1.22541 2.43063,-0.0661 0.0635,-0.65906 0.22195,-0.87964 0.67822,-0.94444 0.5943,-0.0844 0.59531,-0.0934 0.59531,-5.28503 v -5.20047 l -1.77884,-1.79258 c -1.70759,-1.72078 -1.83002,-1.79258 -3.05682,-1.79258 -2.94485,0 -6.79253,4.93704 -4.43165,5.68635 2.41502,0.7665 1.95161,4.92798 -0.62066,5.57357 -3.34387,0.83926 -5.07673,-3.98979 -2.00221,-5.57968 0.72224,-0.37349 0.77797,-0.51015 0.78164,-1.91672 l 0.004,-1.51456 2.21614,-1.78594 2.21615,-1.78593 h 1.94123 1.94124 l 2.05638,2.04431 2.05637,2.04431 v 5.6286 5.62861 h 0.79375 c 0.73075,0 0.79375,0.0735 0.79375,0.92604 v 0.92604 h 2.47758 2.47758 l 0.16825,-1.22756 c 0.0925,-0.67515 0.16826,-3.14889 0.16826,-5.49719 v -4.26965 l -1.85209,-1.83789 -1.85208,-1.83789 v -8.34544 -8.34544 l 3.27625,-3.26838 3.27624,-3.26838 -0.02,-1.32588 c -0.0472,-3.12849 4.08133,-4.27723 5.50157,-1.53078 1.30581,2.52516 -0.98111,4.99968 -3.83505,4.14963 -0.59172,-0.17624 -1.00481,0.13456 -3.77031,2.83668 l -3.10578,3.0346 v 7.63435 7.63434 l 1.98437,1.97113 1.98437,1.97113 v 4.96756 4.96756 h 1.05834 c 0.99953,0 1.05833,0.0441 1.05833,0.79375 v 0.79375 h 2.91042 2.91041 v -0.66146 c 0,-0.52917 0.13229,-0.66146 0.66146,-0.66146 h 0.66146 v -3.81688 -3.81688 l -3.83646,-3.6518 -3.83646,-3.6518 v -3.24014 -3.24015 l -0.78927,-0.40815 c -3.18415,-1.64659 -0.8269,-6.70489 2.48058,-5.32293 2.33886,0.97723 2.58032,4.00556 0.42108,5.28105 l -0.78947,0.46636 v 2.83273 2.83273 l 3.83646,3.82962 3.83645,3.82961 v 4.03831 4.03832 h 0.66146 c 0.52917,0 0.66146,0.13229 0.66146,0.66146 0,0.65656 0.0176,0.66146 2.38125,0.66146 h 2.38125 v -0.92609 c 0,-0.81139 0.0819,-0.92604 0.66146,-0.92604 h 0.66146 v -5.49311 -5.49311 l 4.36562,-4.35961 c 4.4852,-4.47902 5.36847,-5.82083 3.83167,-5.82083 -0.52256,0 -0.53244,-0.13418 -0.46302,-6.28386 l 0.0709,-6.28385 2.05052,-0.0773 2.05052,-0.0773 v 6.36113 6.36113 h -0.92604 c -0.8942,0 -0.92604,0.0342 -0.92604,0.99519 0,0.93418 -0.26765,1.26247 -4.36562,5.3548 l -4.36563,4.35961 v 5.22853 5.22853 h 0.79375 c 0.73076,0 0.79375,0.0735 0.79375,0.92604 v 0.92604 h 2.38125 2.38125 v -0.90764 c 0,-0.73982 0.11007,-0.92327 0.59531,-0.99219 0.5943,-0.0844 0.59544,-0.0945 0.66637,-5.9155 l 0.0711,-5.83094 2.50863,-2.4982 2.50863,-2.4982 v -11.05158 -11.05157 h -4.57234 -4.57235 l -1.51307,1.52902 c -1.86165,1.88128 -2.19411,3.49806 -0.71932,3.49806 h 0.79375 v 6.35 6.35 h -2.11667 -2.11666 v -6.35 c 0,-6.17361 0.0147,-6.35 0.52916,-6.35 0.44573,0 0.52917,-0.17639 0.52917,-1.11863 0,-1.04116 0.14156,-1.26102 2.04431,-3.17499 l 2.04432,-2.05638 h 5.75409 5.7541 l 0.39202,-0.75807 c 1.16886,-2.26033 4.55504,-1.90106 5.36956,0.5697 0.46233,1.40245 -0.57625,3.62795 -1.69307,3.62795 -0.24877,0 -0.35075,0.42312 -0.35075,1.45521 0,1.44051 0.008,1.45521 0.79375,1.45521 h 0.79375 v 6.35 6.35 h -2.11667 -2.11667 v -6.35 -6.35 h 0.66146 c 1.09362,0 0.99011,-2.46229 -0.12781,-3.04039 -0.4341,-0.22448 -0.97294,-0.76332 -1.19742,-1.19742 -0.8572,-1.65765 -0.92373,-0.88999 -0.92373,10.65918 v 11.44845 l -2.51354,2.50309 -2.51354,2.50309 v 5.49533 5.49533 h 0.79375 c 0.73076,0 0.79375,0.0735 0.79375,0.92604 v 0.92604 h 2.51354 2.51354 v -0.92604 c 0,-0.85255 0.063,-0.92604 0.79375,-0.92604 h 0.79375 v -1.9232 -1.92319 l 2.64584,-2.6359 2.64583,-2.63591 v -16.83907 c 0,-9.26149 -0.0744,-17.21115 -0.16537,-17.6659 l -0.16536,-0.82682 h -8.495 -8.49501 l -2.58442,-2.57473 -2.58442,-2.57472 v -2.18565 -2.18566 l -4.43177,-4.58014 c -2.91495,-3.01255 -5.05726,-5.4993 -6.25932,-7.26568 l -1.82756,-2.68554 1.90452,-2.53378 c 2.2625,-3.01006 2.38718,-2.65714 -1.49188,-4.22281 l -3.13441,-1.26511 -1.0155,-6.254228 c -0.55852,-3.439826 -1.09597,-6.345284 -1.19432,-6.456574 -0.0983,-0.11129 -2.67142,0.858137 -5.71793,2.154282 -3.04651,1.296145 -8.39661,3.563294 -11.88911,5.03811 -3.4925,1.474815 -7.67581,3.24382 -9.29624,3.93113 l -2.94624,1.24965 -6.77719,10.27938 -6.7772,10.27938 v 2.6098 2.6098 l 2.71198,0.0754 2.71198,0.0754 0.0757,2.57968 0.0757,2.57969 h -0.93562 -0.93562 v 1.4552 1.45521 h 0.92604 c 0.92114,0 0.92604,0.006 0.92604,1.19063 v 1.19062 h 1.19063 1.19062 v 5.53842 c 0,5.14751 0.0344,5.54933 0.48732,5.69308 2.34161,0.7432 2.35715,4.66977 0.0217,5.48391 -0.69327,0.24168 -0.79154,0.39261 -0.72191,1.10873 l 0.0806,0.82898 2.18281,0.0768 2.18281,0.0768 v 3.02131 3.0213 l -2.18281,0.0769 -2.18281,0.0768 -0.0813,0.97758 c -0.07,0.84294 0.0211,1.03053 0.66209,1.36197 2.36103,1.22094 2.49255,4.59893 0.21279,5.4657 -0.64657,0.24582 -0.66134,0.31255 -0.66134,2.98849 v 2.73704 l 0.94666,1.10596 c 0.91344,1.06715 1.00164,1.10596 2.51354,1.10596 1.56459,0 1.56688,10e-4 1.56688,0.79375 v 0.79375 h 3.175 3.175 z m 63.8155,-0.33073 0.0814,-1.12448 2.44739,-0.0761 2.4474,-0.0761 v -7.66298 -7.66299 h 8.46666 8.46667 v -3.175 c 0,-1.76438 -0.10854,-3.175 -0.24429,-3.175 -2.24147,0 -2.68732,-4.31843 -0.55945,-5.41879 l 0.80374,-0.41563 v -3.1682 c 0,-2.6398 -0.0662,-3.16821 -0.39688,-3.16821 -0.34198,0 -0.39687,-0.89664 -0.39687,-6.48228 0,-6.3059 0.0144,-6.48229 0.52916,-6.48229 0.50105,0 0.52917,-0.17639 0.52917,-3.31903 v -3.31903 l -3.84829,-5.21378 -3.8483,-5.21378 0.17107,-2.24895 0.17107,-2.24896 -2.16727,-4.63021 c -1.192,-2.54661 -2.27641,-4.76234 -2.4098,-4.92384 -0.235,-0.28451 -12.92549,-6.453238 -13.2758,-6.453238 -0.98782,0 -0.66895,1.193659 1.53649,5.751728 l 2.27377,4.69931 -0.53075,6.35 -0.53076,6.35 0.91054,3.69115 0.91054,3.69116 v 23.03671 23.03671 l -2.64584,2.63591 -2.64583,2.6359 v 1.52632 c 0,1.45168 0.0323,1.52632 0.66146,1.52632 0.57956,0 0.66146,0.11465 0.66146,0.92604 0,0.91936 0.008,0.92604 1.17541,0.92604 h 1.17541 z m -61.05627,-5.64129 c 0.79667,-0.79668 0.17285,-1.96548 -1.04903,-1.96548 -0.58497,0 -1.18103,0.64935 -1.18103,1.28662 0,0.43465 0.79762,1.09463 1.32291,1.09463 0.27026,0 0.67847,-0.1871 0.90715,-0.41577 z m -13.65978,-5.32385 c 0.0987,-0.97653 -0.49042,-1.52441 -1.39511,-1.29735 -0.95522,0.23975 -1.20373,1.41578 -0.43133,2.04123 0.81971,0.66376 1.72123,0.29658 1.82644,-0.74388 z m 106.95739,0.82902 c 0.24446,-0.29455 0.27114,-0.61644 0.0932,-1.12448 -0.44104,-1.25936 -2.223,-0.99803 -2.223,0.32602 0,1.13391 1.41204,1.66329 2.12978,0.79846 z M 268.1649,156.34904 c 0.17462,-0.17463 0.3175,-0.56753 0.3175,-0.87313 0,-0.30559 -0.14288,-0.6985 -0.3175,-0.87312 -0.74216,-0.74216 -2.06375,-0.18302 -2.06375,0.87312 0,0.70921 0.48142,1.19063 1.19062,1.19063 0.3056,0 0.6985,-0.14288 0.87313,-0.3175 z m 61.91248,-1.05834 c 0.17462,-0.17462 0.3175,-0.56753 0.3175,-0.87312 0,-0.3056 -0.14288,-0.6985 -0.3175,-0.87313 -0.17463,-0.17462 -0.56753,-0.3175 -0.87313,-0.3175 -0.30559,0 -0.6985,0.14288 -0.87312,0.3175 -0.17463,0.17463 -0.3175,0.56753 -0.3175,0.87313 0,0.30559 0.14287,0.6985 0.3175,0.87312 0.17462,0.17463 0.56753,0.3175 0.87312,0.3175 0.3056,0 0.6985,-0.14287 0.87313,-0.3175 z m 8.78131,-0.34052 c 0.82942,-0.99938 -0.72099,-2.54979 -1.72037,-1.72037 -0.47379,0.3932 -0.51456,1.35769 -0.0759,1.79631 0.43861,0.43862 1.40311,0.39784 1.79631,-0.0759 z m -107.40056,-0.93879 c 0.70646,-0.37808 0.68894,-1.72934 -0.0274,-2.1127 -1.33074,-0.71219 -2.49163,0.95618 -1.3235,1.90207 0.70044,0.56718 0.68823,0.56528 1.35088,0.21063 z m 38.55885,-11.1561 c 0.17462,-0.17462 0.3175,-0.56753 0.3175,-0.87312 0,-0.3056 -0.14288,-0.6985 -0.3175,-0.87313 -0.17463,-0.17462 -0.56753,-0.3175 -0.87312,-0.3175 -0.3056,0 -0.6985,0.14288 -0.87313,0.3175 -0.17462,0.17463 -0.3175,0.56753 -0.3175,0.87313 0,0.30559 0.14288,0.6985 0.3175,0.87312 0.17463,0.17463 0.56753,0.3175 0.87313,0.3175 0.30559,0 0.69849,-0.14287 0.87312,-0.3175 z m 32.87436,-2.21185 c 0.24445,-0.29454 0.27114,-0.61644 0.0932,-1.12447 -0.44105,-1.25937 -2.22301,-0.99804 -2.22301,0.32601 0,1.13391 1.41205,1.66329 2.12979,0.79846 z m -5.64261,-8.78822 -1.77884,-1.79257 7.3e-4,-2.11003 c 10e-4,-3.66704 -0.54361,-7.78571 -1.64424,-12.42877 l -1.06622,-4.49792 -3.10746,-4.36562 c -1.70911,-2.40109 -4.03356,-5.73484 -5.16544,-7.40833 -1.99054,-2.943002 -12.46202,-14.039649 -13.22438,-14.013893 -0.41917,0.01416 -3.04507,3.736207 -3.04507,4.316196 0,0.459989 1.67244,10.552287 1.98312,11.967087 0.0939,0.42744 0.9192,0.86464 3.71363,1.96718 4.37833,1.72746 4.18074,1.20332 1.69668,4.50065 -2.72316,3.61471 -2.54817,4.00029 5.6373,12.42114 l 4.43177,4.55921 v 2.15079 2.15078 l 2.17697,2.18834 2.17697,2.18834 h 4.49666 4.49666 z m 9.32257,-3.03606 c -0.01,-4.30038 -0.0908,-5.176 -0.73978,-8.00365 l -0.72869,-3.17499 0.52129,-6.24289 0.52129,-6.24288 -1.61857,-3.34826 c -0.89021,-1.841543 -1.67769,-3.34826 -1.74996,-3.34826 -0.0723,0 -1.11412,0.590748 -2.31524,1.312773 -1.47547,0.886947 -2.28262,1.230797 -2.48836,1.060057 -0.2136,-0.17728 -0.51915,0.14167 -1.02358,1.06848 -0.85819,1.57676 -0.72492,1.56368 -2.53814,0.24907 -1.44749,-1.04944 -1.45564,-1.05165 -1.53633,-0.4153 l -0.0811,0.63975 -1.63867,-0.38286 c -3.2784,-0.76597 -3.62305,-0.82659 -3.62305,-0.63721 0,0.10597 1.4299,2.19822 3.17756,4.64945 1.74765,2.45122 3.28646,4.88194 3.41958,5.40159 0.13311,0.51965 0.61864,2.37357 1.07895,4.11982 0.88833,3.36999 1.57731,8.49633 1.58168,11.76843 l 0.003,1.97884 2.17697,2.18834 2.17697,2.18834 h 2.71782 2.71782 z M 291.50114,98.121279 v -2.717721 l -9.30931,-5.418214 c -5.12012,-2.980018 -9.41925,-5.462198 -9.55364,-5.515957 -0.13438,-0.05376 2.1064,2.208428 4.97953,5.027082 3.9794,3.903957 5.62484,5.722866 6.90706,7.635219 l 1.68319,2.510394 2.58044,0.571238 c 1.41924,0.31418 2.6102,0.58348 2.64658,0.59846 0.0364,0.015 0.0661,-1.195755 0.0661,-2.690501 z m 14.01153,-39.562006 c -0.73603,-3.763498 -1.18384,-4.239044 -3.82507,-4.061998 -2.47701,0.166036 -6.67811,2.778309 -5.31151,3.302724 0.53164,0.204006 0.54245,0.904641 0.0157,1.01701 -0.30378,0.0648 -0.10781,0.521803 0.8082,1.884725 0.8862,1.318564 1.32904,1.762129 1.65778,1.660486 0.24671,-0.07628 1.34153,0.141524 2.43294,0.48401 l 1.98438,0.622703 1.34394,-1.303555 1.34395,-1.303554 z m -16.28717,4.092268 c 1.33891,-0.404126 4.08629,-4.93961 2.99219,-4.93961 -0.18799,0 -0.8635,-0.531586 -1.50115,-1.181302 -2.14662,-2.187249 -6.09466,-1.821621 -7.72252,0.715183 -0.46199,0.719943 -1.08836,1.417472 -1.39195,1.550065 -0.39594,0.172931 -0.24499,0.19865 0.53399,0.09098 l 1.08595,-0.150094 0.60069,1.606214 c 0.94678,2.531671 2.48543,3.189119 5.4028,2.308559 z m -18.53271,-3.591173 c 0.72605,-0.228458 3.33873,-0.588112 8.98738,-1.237178 1.50561,-0.173005 1.56184,-0.209194 2.48476,-1.599207 0.77304,-1.164282 1.14143,-1.473275 2.03139,-1.703853 0.59791,-0.154911 1.50109,-0.390961 2.00706,-0.524556 1.90994,-0.504294 3.7122,-0.04933 5.09393,1.285927 1.68233,1.625747 3.38823,1.653456 5.09385,0.08274 0.58471,-0.538464 1.80724,-1.257062 2.71675,-1.596885 0.9095,-0.339823 1.65364,-0.652324 1.65364,-0.694446 0,-2.336211 -3.31935,-6.447525 -5.99276,-7.422572 -1.06396,-0.388048 -1.87846,-0.796162 -1.81001,-0.90692 0.11948,-0.193318 -0.56443,-0.326923 -3.44201,-0.672415 -1.21416,-0.145776 -1.43045,-0.08183 -2.63084,0.777866 -0.98378,0.704556 -1.39361,0.865591 -1.65365,0.649777 -0.55724,-0.462469 -0.42586,-0.675402 1.1225,-1.81924 l 1.46822,-1.084637 2.40273,0.292144 c 3.58727,0.43617 3.25345,-0.246055 -0.70896,-1.448886 -7.27833,-2.20941 -19.71146,1.036522 -19.71146,5.146094 0,0.439945 -0.37347,1.15013 -0.97341,1.851031 l -0.97342,1.137218 1.144,-0.193277 1.144,-0.193277 -1.8979,2.253784 -1.89789,2.253784 0.27916,3.133752 c 0.15354,1.723564 0.34089,3.626958 0.41634,4.229765 l 0.13718,1.096013 1.33855,-1.415326 c 0.73621,-0.77843 1.7131,-1.533179 2.17087,-1.67722 z M 230.02963,218.66673 c -0.097,-0.097 -0.17639,-6.22873 -0.17639,-13.62604 v -13.44965 h 3.43958 3.43959 v 5.172 5.172 l 1.65364,-0.0788 1.65365,-0.0788 0.0719,-5.09323 0.0719,-5.09323 h 3.43628 3.43627 l -0.0686,13.5599 -0.0685,13.55989 -3.37344,0.074 -3.37343,0.074 v -5.16728 -5.16728 h -1.71979 -1.71979 v 5.15938 5.15937 h -3.2632 c -1.79475,0 -3.34257,-0.0794 -3.43958,-0.17639 z m 20.37656,0.004 c -0.099,-0.099 -0.18004,-1.64848 -0.18004,-3.44323 v -3.2632 h 5.15938 5.15937 v -1.71979 -1.71979 h -5.15937 -5.15938 v -8.46666 -8.46667 h 8.60686 8.60686 l -0.074,3.37344 -0.074,3.37344 -5.09323,0.0719 -5.09322,0.0719 v 1.71408 1.71408 h 5.16309 5.16309 l -0.0699,8.40052 -0.0699,8.40052 -8.35277,0.0698 c -4.59402,0.0384 -8.43378,-0.0112 -8.53281,-0.11024 z m 20.37291,0 c -0.099,-0.099 -0.18004,-6.23238 -0.18004,-13.62969 v -13.45 h 8.59896 8.59895 v 5.05281 5.05281 l -1.71311,1.77447 -1.71311,1.77448 1.7186,1.70332 1.7186,1.70333 -0.0716,5.02928 -0.0716,5.02929 -8.35277,0.0698 c -4.59402,0.0384 -8.43378,-0.0112 -8.53281,-0.11024 z m 8.6835,-8.29393 c -0.86401,-0.87312 -1.66396,-1.58749 -1.77765,-1.58749 -0.1137,0 -0.20672,0.71437 -0.20672,1.58749 v 1.5875 h 1.77765 1.77766 z m -0.26458,-10.31874 1.57093,-1.5875 h -1.64536 -1.64536 v 1.5875 c 0,0.87312 0.0335,1.5875 0.0744,1.5875 0.0409,0 0.78134,-0.71438 1.64536,-1.5875 z m 12.03854,13.56701 v -5.2184 l 1.646,-1.66077 1.646,-1.66076 -1.646,-1.66076 -1.646,-1.66077 v -5.08611 -5.08611 h 3.30729 3.30729 v 3.38768 3.38768 l 0.87334,0.84648 0.87334,0.84647 0.84645,-0.87331 0.84645,-0.87332 v -3.36084 -3.36084 h 3.43958 3.43959 v 5.10088 5.10087 l -1.7203,1.705 -1.72029,1.705 1.72633,1.73966 1.72632,1.73966 -0.0722,5.01436 -0.0722,5.01436 -3.37343,0.074 -3.37344,0.074 v -3.53028 -3.53028 l -0.79499,-0.76165 -0.795,-0.76166 -0.9248,0.89635 -0.92479,0.89635 v 3.38768 3.38768 h -3.30729 -3.30729 z m 20.37291,-8.40764 v -13.62639 h 3.30729 3.30729 v 10.18646 10.18645 h 5.15937 5.15938 v 3.43959 3.43958 h -8.46667 -8.46666 z M 288.06156,90.387961 v -1.984374 h 1.98437 1.98438 v 1.984374 1.984375 h -1.98438 -1.98437 z m 3.43958,0 v -1.455207 h -1.45521 -1.45521 v 1.455207 1.455208 h 1.45521 1.45521 z m -2.38125,-0.01676 c 0,-0.904296 0.0351,-0.939419 0.8599,-0.859896 1.38802,0.133831 1.46478,1.802701 0.0829,1.802701 -0.9043,0 -0.94281,-0.03851 -0.94281,-0.942805 z m 3.43958,0.731138 c 0,-0.6985 0.14883,-1.427757 0.33073,-1.620572 0.26459,-0.280458 0.26459,-0.374826 0,-0.47184 -0.39399,-0.144464 -0.44929,-2.089328 -0.0661,-2.326128 0.44007,-0.271982 0.29726,-0.661458 -0.24254,-0.661458 -0.27891,0 -0.56027,-0.148828 -0.62523,-0.330729 -0.0687,-0.192371 -0.21629,-0.23256 -0.35278,-0.09607 -0.13649,0.136491 -0.0963,0.284074 0.0961,0.352778 0.66599,0.237854 0.30543,0.603186 -0.59531,0.603186 -0.66547,0 -0.92605,-0.116992 -0.92605,-0.415773 0,-0.400978 -0.5967,-1.171726 -0.90714,-1.171726 -0.0831,0 -0.15119,0.238125 -0.15119,0.529166 0,0.291042 -0.11906,0.529167 -0.26458,0.529167 -0.14552,0 -0.26459,0.416718 -0.26459,0.926041 0,0.509323 -0.11906,0.926042 -0.26458,0.926042 -0.14552,0 -0.26458,-0.535782 -0.26458,-1.190625 0,-0.654844 0.11906,-1.190625 0.26458,-1.190625 0.14552,0 0.26458,-0.238125 0.26458,-0.529166 0,-0.411574 0.17639,-0.529167 0.79375,-0.529167 0.61737,0 0.79375,0.117593 0.79375,0.529167 0,0.293981 0.17639,0.529166 0.39688,0.529166 0.21828,0 0.39687,-0.119062 0.39687,-0.264583 0,-0.145521 0.23813,-0.264583 0.52917,-0.264583 0.29104,0 0.52917,-0.119063 0.52917,-0.264583 0,-0.145521 -0.23813,-0.264584 -0.52917,-0.264584 -0.38806,0 -0.52917,-0.176388 -0.52917,-0.661458 0,-0.724009 -1.12813,-0.984348 -1.43316,-0.330729 -0.12347,0.264583 -0.1852,0.264583 -0.30868,0 -0.0849,-0.181901 -0.38254,-0.330729 -0.66145,-0.330729 -0.27892,0 -0.50712,-0.119062 -0.50712,-0.264583 0,-0.556611 2.6854,-0.299924 3.21179,0.307002 0.27265,0.314372 0.58427,0.476666 0.69249,0.360652 0.10822,-0.116013 0.0479,-0.264086 -0.13397,-0.329051 -0.6232,-0.222569 -0.33102,-0.603186 0.46302,-0.603186 0.43656,0 0.79375,0.119062 0.79375,0.264583 0,0.145521 0.17859,0.264583 0.39687,0.264583 0.21829,0 0.39702,0.0893 0.3972,0.198438 1.8e-4,0.10914 0.28192,0.525859 0.6261,0.926041 1.26025,1.465332 4.39908,0.616043 4.40034,-1.190625 1.8e-4,-0.254661 0.17892,-0.46302 0.3972,-0.46302 0.22048,0 0.39687,0.235185 0.39687,0.529166 0,0.293982 -0.17639,0.529167 -0.39687,0.529167 -0.27719,0 -0.39688,0.279282 -0.39688,0.926041 0,0.680211 -0.11468,0.926041 -0.43198,0.926041 -0.2376,0 -0.65507,0.257214 -0.92772,0.571586 -0.27266,0.314372 -0.58428,0.476665 -0.6925,0.360652 -0.10821,-0.116013 -0.0479,-0.264086 0.13397,-0.329051 0.73984,-0.264227 0.25662,-0.603187 -0.85989,-0.603187 -0.65485,0 -1.19063,0.119063 -1.19063,0.264584 0,0.14552 -0.11906,0.264583 -0.26458,0.264583 -0.14552,0 -0.26458,-0.238125 -0.26458,-0.529167 0,-0.291041 -0.11907,-0.529166 -0.26459,-0.529166 -0.14552,0 -0.26458,0.119062 -0.26458,0.264583 0,0.381685 -0.72764,0.326221 -0.86777,-0.06615 -0.065,-0.181901 -0.21318,-0.242044 -0.32937,-0.133652 -0.11619,0.108392 0.1354,0.4952 0.55909,0.859572 0.62655,0.538835 0.6798,0.662556 0.28527,0.662819 -0.26948,1.8e-4 -0.43681,0.147315 -0.3765,0.331052 0.13911,0.423748 1.78761,0.604775 1.78761,0.196303 0,-0.420075 0.78101,-1.157136 0.99713,-0.941018 0.098,0.098 0.0175,0.277453 -0.17879,0.398791 -0.19633,0.121339 -0.27515,0.35299 -0.17516,0.514781 0.23051,0.37298 2.26724,0.38875 2.26724,0.01755 0,-0.801349 1.67378,-1.863061 1.96232,-1.244744 0.12348,0.264584 0.18521,0.264584 0.30868,0 0.23973,-0.513697 0.63941,-0.389657 0.63941,0.198438 0,0.291041 -0.11906,0.529166 -0.26458,0.529166 -0.14552,0 -0.26458,0.297656 -0.26458,0.661458 0,0.688289 0.39762,0.906307 0.60318,0.33073 0.065,-0.181901 0.21304,-0.242188 0.32906,-0.13397 0.11601,0.108217 -0.0722,0.442342 -0.41832,0.742499 -0.53184,0.461263 -0.56912,0.587509 -0.24085,0.815571 0.2941,0.204329 0.3081,0.302408 0.0577,0.404028 -0.39272,0.159348 -0.44694,0.88385 -0.0661,0.88385 0.14552,0 0.26458,-0.178594 0.26458,-0.396875 0,-0.218281 0.11907,-0.396875 0.26459,-0.396875 0.14552,0 0.26458,0.416719 0.26458,0.926041 0,0.509323 -0.11906,0.926042 -0.26458,0.926042 -0.14552,0 -0.26459,0.119062 -0.26459,0.264583 0,0.145521 0.23813,0.264583 0.52917,0.264583 0.35278,0 0.52917,-0.176389 0.52917,-0.529166 0,-0.291042 0.11906,-0.529167 0.26458,-0.529167 0.14552,0 0.26458,0.357188 0.26458,0.79375 v 0.79375 h -1.71979 c -1.5434,0 -1.71979,-0.05427 -1.71979,-0.529167 0,-0.388055 0.17639,-0.529166 0.66146,-0.529166 0.7979,0 0.8176,-0.119111 0.13997,-0.846462 -0.46427,-0.498339 -0.53995,-0.51164 -0.68977,-0.121228 -0.20986,0.546893 -1.16999,0.581072 -1.16999,0.04165 0,-0.220486 -0.23519,-0.396874 -0.52917,-0.396874 -0.29104,0 -0.52916,-0.119063 -0.52916,-0.264584 0,-0.145521 -0.1786,-0.264583 -0.39688,-0.264583 -0.22049,0 -0.39687,-0.235185 -0.39687,-0.529166 0,-0.293982 0.17638,-0.529167 0.39687,-0.529167 0.22049,0 0.39688,0.235185 0.39688,0.529167 0,0.291041 0.11906,0.529166 0.26458,0.529166 0.14552,0 0.26458,-0.357187 0.26458,-0.79375 0,-0.764351 -0.0441,-0.793749 -1.19062,-0.793749 -0.65485,0 -1.19063,0.119062 -1.19063,0.264583 0,0.145521 -0.41672,0.264583 -0.92604,0.264583 -0.50932,0 -0.92604,0.119063 -0.92604,0.264583 0,0.145521 0.29766,0.264584 0.66146,0.264584 0.52916,0 0.66146,0.132291 0.66146,0.661458 0,0.363802 0.11906,0.661458 0.26458,0.661458 0.14552,0 0.26458,0.119062 0.26458,0.264583 0,0.145521 -0.23812,0.264583 -0.52916,0.264583 -0.29105,0 -0.52917,0.119063 -0.52917,0.264583 0,0.145521 -0.17859,0.264584 -0.39688,0.264584 -0.21828,0 -0.39687,0.119062 -0.39687,0.264583 0,0.379699 0.72054,0.326976 0.90399,-0.06615 0.12347,-0.264583 0.18521,-0.264583 0.30868,0 0.0849,0.181901 0.38255,0.330729 0.66146,0.330729 0.27892,0 0.50712,0.119063 0.50712,0.264583 0,0.145521 -0.65484,0.264584 -1.45521,0.264584 h -1.45521 z m 1.0858,-1.454203 c -0.33959,-0.339588 -0.68396,-0.07713 -0.43255,0.329666 0.0974,0.157577 0.29828,0.211591 0.44642,0.120032 0.18071,-0.111686 0.17615,-0.259679 -0.0139,-0.449698 z m 6.05795,-0.979963 c 0,-0.730753 -0.0735,-0.793749 -0.92604,-0.793749 -0.85255,0 -0.92604,0.063 -0.92604,0.793749 0,0.730754 0.0735,0.79375 0.92604,0.79375 0.85255,0 0.92604,-0.063 0.92604,-0.79375 z m -1.32292,0 c 0,-0.14552 0.11907,-0.264583 0.26459,-0.264583 0.14552,0 0.26458,0.119063 0.26458,0.264583 0,0.145521 -0.11906,0.264584 -0.26458,0.264584 -0.14552,0 -0.26459,-0.119063 -0.26459,-0.264584 z m 0.52917,-1.719791 c 0,-0.218281 -0.11906,-0.396875 -0.26458,-0.396875 -0.14552,0 -0.26459,0.178594 -0.26459,0.396875 0,0.218281 0.11907,0.396875 0.26459,0.396875 0.14552,0 0.26458,-0.178594 0.26458,-0.396875 z m -2.91041,4.89479 c 0,-0.291041 -0.11907,-0.529166 -0.26459,-0.529166 -0.14552,0 -0.26458,-0.297656 -0.26458,-0.661458 0,-0.363802 -0.11906,-0.661458 -0.26458,-0.661458 -0.14552,0 -0.26459,-0.238125 -0.26459,-0.529167 0,-0.291042 0.068,-0.529166 0.15119,-0.529166 0.28915,0 0.90715,0.758191 0.90715,1.112924 0,0.403061 0.91746,1.268325 1.34484,1.268325 0.42064,0 1.12904,0.791408 0.89939,1.004786 -0.11001,0.102211 -0.25317,0.03701 -0.31813,-0.144891 -0.13988,-0.391657 -1.13235,-0.449632 -1.13235,-0.06615 0,0.145521 -0.1786,0.264584 -0.39688,0.264584 -0.22049,0 -0.39687,-0.235185 -0.39687,-0.529167 z m 5.82083,-2.381249 c 0,-0.352778 -0.17639,-0.529166 -0.52917,-0.529166 -0.29104,0 -0.52917,-0.119063 -0.52917,-0.264584 0,-0.14552 0.35719,-0.264583 0.79375,-0.264583 0.70556,0 0.79375,0.08819 0.79375,0.79375 0,0.436562 -0.11906,0.79375 -0.26458,0.79375 -0.14552,0 -0.26458,-0.238125 -0.26458,-0.529167 z M 289.64906,87.60984 c 0,-0.14552 0.30468,-0.264583 0.67707,-0.264583 0.38401,0 0.60629,0.114523 0.51355,0.264583 -0.0899,0.145521 -0.39462,0.264584 -0.67707,0.264584 -0.28245,0 -0.51355,-0.119063 -0.51355,-0.264584 z m 1.85208,0 c 0,-0.14552 0.11906,-0.264583 0.26458,-0.264583 0.14552,0 0.26459,0.119063 0.26459,0.264583 0,0.145521 -0.11907,0.264584 -0.26459,0.264584 -0.14552,0 -0.26458,-0.119063 -0.26458,-0.264584 z m 10.2526,-0.784072 c -0.25466,-0.299691 -0.46302,-0.722125 -0.46302,-0.938743 0,-0.216618 -0.11906,-0.393851 -0.26458,-0.393851 -0.14552,0 -0.26459,-0.119062 -0.26459,-0.264583 0,-0.145521 0.23813,-0.264583 0.52917,-0.264583 0.55803,0 0.712,-0.384937 0.26458,-0.661458 -0.14552,-0.08994 -0.26458,-0.513682 -0.26458,-0.941656 0,-0.427975 0.11906,-0.778135 0.26458,-0.778135 0.14552,0 0.26459,0.238125 0.26459,0.529166 0,0.291042 0.11906,0.529167 0.26458,0.529167 0.38546,0 0.32471,1.783588 -0.0661,1.942182 -0.25839,0.104847 -0.25333,0.188548 0.0231,0.3827 0.19464,0.136676 0.3137,0.508643 0.26459,0.826594 l -0.0893,0.578092 z m -2.05052,-1.86176 c 0,-0.291042 0.11906,-0.529167 0.26458,-0.529167 0.14553,0 0.26459,-0.178593 0.26459,-0.396874 0,-0.218282 0.11906,-0.396875 0.26458,-0.396875 0.14552,0 0.26458,0.112035 0.26458,0.248968 0,0.136933 -0.11906,0.322553 -0.26458,0.41249 -0.14552,0.08994 -0.26458,0.394619 -0.26458,0.677073 0,0.282453 -0.11906,0.513551 -0.26459,0.513551 -0.14552,0 -0.26458,-0.238125 -0.26458,-0.529166 z m -4.7625,-0.926041 c 0,-0.218282 0.11907,-0.396875 0.26459,-0.396875 0.14552,0 0.26458,-0.238125 0.26458,-0.529167 0,-0.291041 0.11152,-0.529166 0.24782,-0.529166 0.1363,0 0.28513,-0.386953 0.33073,-0.859896 0.0635,-0.659062 0.22195,-0.879642 0.67822,-0.944443 0.88858,-0.126199 0.71879,-0.576911 -0.21734,-0.576911 -0.88267,0 -1.5686,-0.512381 -1.5686,-1.171725 0,-0.228676 -0.11906,-0.415774 -0.26458,-0.415774 -0.14552,0 -0.26458,-0.178594 -0.26458,-0.396875 0,-0.218281 0.11906,-0.396875 0.26458,-0.396875 0.14552,0 0.26458,0.178594 0.26458,0.396875 0,0.220486 0.23519,0.396875 0.52917,0.396875 0.58361,0 0.72069,0.416668 0.19844,0.603187 -0.19237,0.0687 -0.23256,0.216286 -0.0961,0.352777 0.13649,0.136492 0.28407,0.0963 0.35278,-0.09607 0.065,-0.181901 0.23576,-0.330729 0.37955,-0.330729 0.34836,0 1.01738,-0.683524 1.01738,-1.039435 0,-0.155915 0.11906,-0.283482 0.26459,-0.283482 0.14552,0 0.26458,0.297656 0.26458,0.661458 0,0.363802 -0.11906,0.661459 -0.26458,0.661459 -0.38192,0 -0.32614,0.985513 0.0661,1.168576 0.26458,0.123472 0.26458,0.185208 0,0.30868 -0.1819,0.08489 -0.33073,0.31309 -0.33073,0.507118 0,0.194028 0.14883,0.40593 0.33073,0.470895 0.1819,0.06497 0.23496,0.220267 0.11791,0.345115 -0.11706,0.124849 -0.31894,0.0553 -0.44864,-0.154552 -0.12969,-0.209853 -0.31599,-0.301371 -0.41398,-0.203374 -0.24664,0.246635 0.54857,0.997124 1.05654,0.997124 0.22868,0 0.41577,0.119062 0.41577,0.264583 0,0.145521 -0.11906,0.264583 -0.26458,0.264583 -0.14552,0 -0.26458,0.297656 -0.26458,0.661458 0,0.625379 -0.0794,0.661458 -1.45521,0.661458 -1.11713,0 -1.45521,-0.0922 -1.45521,-0.396874 z m 2.38125,-0.548066 c 0,-0.259639 -0.74193,-0.907142 -1.03943,-0.907142 -0.15592,0 -0.28348,0.238125 -0.28348,0.529166 0,0.388056 0.17638,0.529167 0.66145,0.529167 0.36381,0 0.66146,-0.06804 0.66146,-0.151191 z m -3.43958,-0.642559 c 0,-0.145521 -0.12757,-0.264583 -0.28348,-0.264583 -0.82214,0 -1.30123,-1.219876 -0.71092,-1.810184 0.26163,-0.261634 0.24817,-0.380141 -0.0661,-0.582083 -0.34956,-0.224588 -0.3493,-0.283803 0.002,-0.518149 0.32797,-0.218649 0.33484,-0.304599 0.0395,-0.495075 -0.29173,-0.188181 -0.27093,-0.331402 0.11334,-0.780196 0.53299,-0.622478 0.90545,-0.526815 0.90545,0.232553 0,0.282453 0.11906,0.513552 0.26458,0.513552 0.38335,0 0.32557,0.991874 -0.0661,1.135503 -0.26459,0.09701 -0.26459,0.191381 0,0.47184 0.1819,0.192815 0.33073,0.564885 0.33073,0.826822 0,0.542086 0.42494,0.644605 0.60318,0.145521 0.0687,-0.19237 0.21629,-0.23256 0.35278,-0.09607 0.13649,0.136492 0.0963,0.284074 -0.0961,0.352778 -0.1819,0.06497 -0.33073,0.34632 -0.33073,0.625235 0,0.330729 -0.18406,0.507118 -0.52916,0.507118 -0.29105,0 -0.52917,-0.119062 -0.52917,-0.264583 z m 0,-1.455208 c 0,-0.411574 -0.14993,-0.661458 -0.39688,-0.661458 -0.24694,0 -0.39687,0.249884 -0.39687,0.661458 0,0.411574 0.14993,0.661458 0.39687,0.661458 0.24695,0 0.39688,-0.249884 0.39688,-0.661458 z m 0,-1.455208 c 0,-0.145521 -0.17859,-0.264583 -0.39688,-0.264583 -0.21828,0 -0.39687,0.119062 -0.39687,0.264583 0,0.145521 0.17859,0.264583 0.39687,0.264583 0.21829,0 0.39688,-0.119062 0.39688,-0.264583 z m 6.35,2.910416 c 0,-0.145521 0.11906,-0.264583 0.26458,-0.264583 0.14552,0 0.26458,0.119062 0.26458,0.264583 0,0.145521 -0.11906,0.264583 -0.26458,0.264583 -0.14552,0 -0.26458,-0.119062 -0.26458,-0.264583 z M 288.06156,79.936926 V 77.82026 h 1.98437 1.98438 v 2.116666 2.116666 h -1.98438 -1.98437 z m 3.43958,0.132292 V 78.61401 h -1.45521 -1.45521 v 1.455208 1.455208 h 1.45521 1.45521 z m -2.38125,-0.132292 c 0,-0.730753 0.0735,-0.793749 0.92604,-0.793749 0.85255,0 0.92604,0.063 0.92604,0.793749 0,0.730754 -0.0735,0.79375 -0.92604,0.79375 -0.85254,0 -0.92604,-0.063 -0.92604,-0.79375 z m 9.31543,0.06615 0.0773,-2.05052 1.91823,-0.07774 1.91822,-0.07774 v 2.128257 2.128257 h -1.9955 -1.9955 z m 3.38457,0.06615 v -1.455208 h -1.45521 -1.45521 v 1.278819 c 0,1.578753 0.0528,1.631597 1.6316,1.631597 h 1.27882 z m -2.11667,-0.132292 c 0,-0.705555 0.0882,-0.793749 0.79375,-0.793749 0.70556,0 0.79375,0.08819 0.79375,0.793749 0,0.705556 -0.0882,0.79375 -0.79375,0.79375 -0.70555,0 -0.79375,-0.08819 -0.79375,-0.79375 z m -6.2719,-3.905484 c -4.62939,-0.592197 -4.7226,-1.045899 -0.52688,-2.56469 3.72627,-1.348854 6.9179,-1.213253 8.47496,0.36007 l 0.83736,0.846113 -0.86407,0.779913 c -0.72294,0.652526 -1.09027,0.780503 -2.24896,0.783526 -0.76168,0.002 -1.62301,0.04963 -1.91405,0.10588 -0.29104,0.05625 -1.9823,-0.08362 -3.75836,-0.310812 z m 6.78343,-1.284817 c 0.31957,-0.307113 -0.60504,-0.662273 -2.23499,-0.858501 -1.78587,-0.214999 -4.36195,0.253415 -4.36195,0.793143 0,0.407337 6.1774,0.468539 6.59694,0.06536 z m -15.32819,-0.762822 c 0,-0.218281 0.17859,-0.396875 0.39687,-0.396875 0.21973,0 0.39688,-0.234849 0.39688,-0.526142 0,-0.534521 0.7417,-1.590524 1.11713,-1.590524 0.11318,0 0.20578,0.178594 0.20578,0.396875 0,0.218281 0.1786,0.396875 0.39688,0.396875 0.21828,0 0.39687,-0.183813 0.39687,-0.408473 0,-0.224661 0.14883,-0.389147 0.33073,-0.365527 0.76556,0.09941 0.99219,-0.05619 0.99219,-0.681208 0,-0.411574 -0.14993,-0.661458 -0.39687,-0.661458 -0.21829,0 -0.39688,0.178594 -0.39688,0.396875 0,0.218281 -0.11906,0.396875 -0.26458,0.396875 -0.14552,0 -0.26459,-0.357187 -0.26459,-0.79375 0,-0.670277 0.1029,-0.79375 0.66146,-0.79375 0.41158,0 0.66146,0.149931 0.66146,0.396875 0,0.264584 0.26458,0.396875 0.79375,0.396875 0.43656,0 0.79375,-0.127567 0.79375,-0.283482 0,-0.366309 0.67313,-1.039434 1.03943,-1.039434 0.15592,0 0.28349,-0.178594 0.28349,-0.396875 0,-0.286632 0.29398,-0.396875 1.05833,-0.396875 0.76435,0 1.05833,-0.110243 1.05833,-0.396875 0,-0.246944 0.24989,-0.396874 0.66146,-0.396874 0.55857,0 0.66146,0.123472 0.66146,0.793749 0,0.436563 -0.11906,0.79375 -0.26458,0.79375 -0.14552,0 -0.26459,0.119062 -0.26459,0.264583 0,0.145521 0.29766,0.264583 0.66146,0.264583 0.41157,0 0.66146,0.149931 0.66146,0.396875 0,0.218282 0.17859,0.396875 0.39687,0.396875 0.21828,0 0.39688,-0.178593 0.39688,-0.396875 0,-0.246944 0.24988,-0.396875 0.66146,-0.396875 0.41157,0 0.66145,0.149931 0.66145,0.396875 0,0.246945 -0.24988,0.396875 -0.66145,0.396875 -0.52917,0 -0.66146,0.132292 -0.66146,0.661458 0,0.411574 -0.14993,0.661458 -0.39688,0.661458 -0.24694,0 -0.39687,-0.249884 -0.39687,-0.661458 0,-0.411574 -0.14993,-0.661458 -0.39688,-0.661458 -0.21828,0 -0.39687,0.127567 -0.39687,0.283482 0,0.36631 -0.67313,1.039434 -1.03944,1.039434 -0.15591,0 -0.28348,-0.297656 -0.28348,-0.661458 0,-0.411574 0.14993,-0.661458 0.39688,-0.661458 0.21828,0 0.39687,-0.178593 0.39687,-0.396875 0,-0.218281 -0.17859,-0.396875 -0.39687,-0.396875 -0.21828,0 -0.39688,0.178594 -0.39688,0.396875 0,0.242213 -0.24674,0.396875 -0.63315,0.396875 -0.34823,0 -0.70168,0.178594 -0.78544,0.396875 -0.26173,0.682039 -0.69807,0.433962 -0.69807,-0.396875 0,-0.529166 -0.13229,-0.79375 -0.39688,-0.79375 -0.26458,0 -0.39687,0.264584 -0.39687,0.79375 0,0.670278 -0.1029,0.79375 -0.66146,0.79375 -0.3638,0 -0.66146,0.119062 -0.66146,0.264583 0,0.145521 -0.17859,0.264583 -0.39687,0.264583 -0.21829,0 -0.39688,0.178594 -0.39688,0.396875 0,0.246945 -0.24988,0.396875 -0.66146,0.396875 -0.41157,0 -0.66146,0.149931 -0.66146,0.396875 0,0.218281 -0.17859,0.396875 -0.39687,0.396875 -0.21828,0 -0.39688,0.119062 -0.39688,0.264583 0,0.145521 -0.17859,0.264583 -0.39687,0.264583 -0.21828,0 -0.39687,0.178594 -0.39687,0.396875 0,0.246945 -0.24989,0.396875 -0.66146,0.396875 -0.41158,0 -0.66146,-0.14993 -0.66146,-0.396875 z m 2.11666,-1.322916 c 0,-0.218281 -0.17859,-0.396875 -0.39687,-0.396875 -0.21828,0 -0.39687,0.178594 -0.39687,0.396875 0,0.218281 0.17859,0.396875 0.39687,0.396875 0.21828,0 0.39687,-0.178594 0.39687,-0.396875 z m 7.14375,-3.571874 c 0,-0.145521 0.1786,-0.264583 0.39688,-0.264583 0.21828,0 0.39687,-0.178594 0.39687,-0.396875 0,-0.218281 -0.17859,-0.396875 -0.39687,-0.396875 -0.21828,0 -0.39688,0.183813 -0.39688,0.408474 0,0.22466 -0.14883,0.389147 -0.33073,0.365526 -0.63179,-0.08204 -0.99218,0.02124 -0.99218,0.284333 0,0.145521 0.29765,0.264583 0.66145,0.264583 0.36381,0 0.66146,-0.119062 0.66146,-0.264583 z m -3.43958,2.778124 c 0,-0.218281 0.11906,-0.396875 0.26458,-0.396875 0.14552,0 0.26459,0.178594 0.26459,0.396875 0,0.218281 -0.11907,0.396875 -0.26459,0.396875 -0.14552,0 -0.26458,-0.178594 -0.26458,-0.396875 z m 8.46666,0 c 0,-0.246944 -0.24988,-0.396875 -0.66145,-0.396875 -0.36381,0 -0.66146,-0.119062 -0.66146,-0.264583 0,-0.425688 1.0058,-0.304385 1.58447,0.191093 0.63186,0.541011 0.68276,0.86724 0.13532,0.86724 -0.21828,0 -0.39688,-0.178594 -0.39688,-0.396875 z m -14.74109,-0.162559 c -0.70223,-0.702231 4.37312,-6.90955 5.13352,-6.278469 0.57544,0.477568 0.4219,0.76496 -1.43878,2.693175 -1.05214,1.090329 -1.65004,1.896244 -1.4552,1.96146 0.1819,0.06088 0.33072,0.287395 0.33072,0.503355 0,0.259679 -0.1635,0.340762 -0.48279,0.239424 -0.33748,-0.107112 -0.58984,0.04679 -0.83846,0.511337 -0.38417,0.717838 -0.78287,0.835857 -1.24901,0.369718 z m 8.3911,-0.498899 c 0,-0.145521 0.11906,-0.264583 0.26458,-0.264583 0.14552,0 0.26458,0.119062 0.26458,0.264583 0,0.145521 -0.11906,0.264583 -0.26458,0.264583 -0.14552,0 -0.26458,-0.119062 -0.26458,-0.264583 z m -2.91042,-2.116666 c 0,-0.145521 0.11906,-0.264583 0.26458,-0.264583 0.14552,0 0.26459,0.119062 0.26459,0.264583 0,0.145521 -0.11907,0.264583 -0.26459,0.264583 -0.14552,0 -0.26458,-0.119062 -0.26458,-0.264583 z m 6.46909,-0.498271 c -0.30197,-0.301965 -0.0861,-1.353811 0.27778,-1.353811 0.21828,0 0.39688,0.178593 0.39688,0.396874 0,0.218282 0.11906,0.396875 0.26458,0.396875 0.14552,0 0.26459,0.171194 0.26459,0.380432 0,0.345575 -0.90313,0.480335 -1.20383,0.17963 z m -4.54274,-1.333217 c -0.50483,-0.808363 1.71362,-2.082074 2.26222,-1.29884 0.19983,0.285294 0.32141,0.549037 0.27019,0.586095 -0.18588,0.134476 -2.10918,1.221317 -2.16128,1.221317 -0.0294,0 -0.19645,-0.228857 -0.37113,-0.508572 z"
       id="path11"
       clip-path="url(#clipPath12)"
       transform="translate(-202.90293,-116.84773)" />
    <text
       xml:space="preserve"
       style="font-style:normal;font-variant:normal;font-weight:normal;font-stretch:normal;font-size:45.8611px;line-height:1.25;font-family:Overpass;-inkscape-font-specification:'Overpass, @wght=650';font-variant-ligatures:normal;font-variant-caps:normal;font-variant-numeric:normal;font-variant-east-asian:normal;font-variation-settings:'wght' 650;letter-spacing:0px;word-spacing:0px;writing-mode:lr-tb;fill:#ffffff;stroke-width:0.264583"
       x="16.873367"
       y="-58.280342"
       id="text3"><tspan
         sodipodi:role="line"
         id="tspan3"
         style="font-style:normal;font-variant:normal;font-weight:normal;font-stretch:normal;font-size:45.8611px;font-family:Overpass;-inkscape-font-specification:'Overpass, @wght=650';font-variant-ligatures:normal;font-variant-caps:normal;font-variant-numeric:normal;font-variant-east-asian:normal;font-variation-settings:'wght' 650;fill:#ffffff;stroke-width:0.264583"
         x="16.873367"
         y="-58.280342">BruNix Meetup</tspan></text>
    <text
       xml:space="preserve"
       style="font-size:45.861px;line-height:1.25;font-family:Overpass;-inkscape-font-specification:'Overpass, @wght=650';font-variation-settings:'wght' 650;letter-spacing:0px;word-spacing:0px;writing-mode:lr-tb;fill:#ffffff;stroke-width:0.264583"
       x="62.813816"
       y="-8.9219875"
       id="text4"><tspan
         sodipodi:role="line"
         id="tspan4"
         style="fill:#ffffff;stroke-width:0.264583"
         x="62.813816"
         y="-8.9219875">Brussels, HSBXL </tspan></text>
    <text
       xml:space="preserve"
       style="font-style:normal;font-variant:normal;font-weight:normal;font-stretch:normal;font-size:45.861px;line-height:1.25;font-family:'Roboto Condensed';-inkscape-font-specification:'Roboto Condensed, @wght=650';font-variant-ligatures:normal;font-variant-caps:normal;font-variant-numeric:normal;font-variant-east-asian:normal;font-variation-settings:'wght' 650;letter-spacing:0px;word-spacing:0px;writing-mode:lr-tb;stroke-width:0.264583"
       x="151.10834"
       y="95.121674"
       id="text5"><tspan
         sodipodi:role="line"
         id="tspan5"
         style="font-style:normal;font-variant:normal;font-weight:normal;font-stretch:normal;font-size:45.861px;font-family:'Roboto Condensed';-inkscape-font-specification:'Roboto Condensed, @wght=650';font-variant-ligatures:normal;font-variant-caps:normal;font-variant-numeric:normal;font-variant-east-asian:normal;font-variation-settings:'wght' 650;stroke-width:0.264583"
         x="151.10834"
         y="95.121674">Sept 9th, 2024</tspan></text>
    <g
       style="display:inline;stroke-width:11.0512"
       transform="matrix(0.01201902,0,0,0.01201902,340.43773,-93.573621)"
       id="g955">
      <g
         transform="matrix(11.047619,0,0,11.047619,-1572.2888,9377.7107)"
         id="g869">
        <g
           transform="rotate(-60,226.35754,-449.37199)"
           id="g932"
           style="stroke-width:11.0512">
          <path
             sodipodi:nodetypes="cccccccccc"
             inkscape:connector-curvature="0"
             id="path3336-6"
             d="m 449.71876,-420.51322 122.19683,211.67512 -56.15706,0.5268 -32.6236,-56.8692 -32.85645,56.5653 -27.90237,-0.011 -14.29086,-24.6896 46.81047,-80.4901 -33.22946,-57.8257 z"
             style="opacity:1;fill:url(#linearGradient1713);fill-opacity:1;fill-rule:evenodd;stroke:none;stroke-width:33.1535;stroke-linecap:butt;stroke-linejoin:round;stroke-miterlimit:4;stroke-dasharray:none;stroke-opacity:1" />
        </g>
        <path
           sodipodi:nodetypes="cccccccccc"
           inkscape:connector-curvature="0"
           id="path4260-0"
           d="m 309.54892,-710.38827 122.19683,211.67512 -56.15706,0.5268 -32.6236,-56.8692 -32.85645,56.5653 -27.90237,-0.011 -14.29086,-24.6896 46.81047,-80.4901 -33.22946,-57.8256 z"
           style="color:#000000;clip-rule:nonzero;display:inline;overflow:visible;visibility:visible;opacity:1;isolation:auto;mix-blend-mode:normal;color-interpolation:sRGB;color-interpolation-filters:linearRGB;solid-color:#000000;solid-opacity:1;fill:url(#linearGradient1299);fill-opacity:1;fill-rule:evenodd;stroke:none;stroke-width:33.1535;stroke-linecap:butt;stroke-linejoin:round;stroke-miterlimit:4;stroke-dasharray:none;stroke-dashoffset:0;stroke-opacity:1;color-rendering:auto;image-rendering:auto;shape-rendering:auto;text-rendering:auto;enable-background:accumulate" />
        <use
           x="0"
           y="0"
           xlink:href="#path3336-6"
           inkscape:transform-center-x="124.43045"
           inkscape:transform-center-y="151.59082"
           id="use3439-6"
           transform="rotate(60,728.23563,-692.24036)"
           width="100%"
           height="100%"
           style="stroke-width:11.0512" />
        <use
           x="0"
           y="0"
           xlink:href="#path3336-6"
           inkscape:transform-center-x="59.669705"
           inkscape:transform-center-y="-139.94592"
           id="use3449-5"
           transform="rotate(180,477.5036,-570.81898)"
           width="100%"
           height="100%"
           style="stroke-width:11.0512" />
        <use
           style="display:inline;stroke-width:11.0512"
           x="0"
           y="0"
           xlink:href="#path4260-0"
           id="use4354-5"
           transform="rotate(120,407.33916,-716.08356)"
           width="100%"
           height="100%" />
        <use
           style="display:inline;stroke-width:11.0512"
           x="0"
           y="0"
           xlink:href="#path4260-0"
           id="use4362-2"
           transform="rotate(-120,407.28823,-715.86995)"
           width="100%"
           height="100%" />
      </g>
    </g>
  </g>
</svg>
