<?xml version="1.0" encoding="UTF-8" standalone="no"?>
<!-- Created with Inkscape (http://www.inkscape.org/) -->

<svg
   width="1920"
   height="1080"
   viewBox="0 0 1920 1080"
   version="1.1"
   id="svg1"
   xml:space="preserve"
   inkscape:version="1.4.2 (1:1.4.2+202505120738+ebf0e940d0)"
   sodipodi:docname="NEW-nix-wallpaper-simple-dark-gray.svg"
   xmlns:inkscape="http://www.inkscape.org/namespaces/inkscape"
   xmlns:sodipodi="http://sodipodi.sourceforge.net/DTD/sodipodi-0.dtd"
   xmlns:xlink="http://www.w3.org/1999/xlink"
   xmlns="http://www.w3.org/2000/svg"
   xmlns:svg="http://www.w3.org/2000/svg"><sodipodi:namedview
     id="namedview1"
     pagecolor="#ffffff"
     bordercolor="#000000"
     borderopacity="0.25"
     inkscape:showpageshadow="2"
     inkscape:pageopacity="0.0"
     inkscape:pagecheckerboard="0"
     inkscape:deskcolor="#d1d1d1"
     inkscape:document-units="px"
     inkscape:zoom="0.53098482"
     inkscape:cx="489.65619"
     inkscape:cy="562.16297"
     inkscape:window-width="1920"
     inkscape:window-height="1016"
     inkscape:window-x="0"
     inkscape:window-y="27"
     inkscape:window-maximized="1"
     inkscape:current-layer="svg1" /><defs
     id="defs1"><linearGradient
       id="linearGradient5"
       inkscape:collect="always"><stop
         style="stop-color:#52504f;stop-opacity:1;"
         offset="0"
         id="stop5" /><stop
         style="stop-color:#424141;stop-opacity:1;"
         offset="0.41210768"
         id="stop2" /><stop
         style="stop-color:#323333;stop-opacity:1;"
         offset="1"
         id="stop1" /></linearGradient><radialGradient
       inkscape:collect="always"
       xlink:href="#linearGradient5"
       id="radialGradient6"
       cx="960"
       cy="540"
       fx="960"
       fy="540"
       r="369.12543"
       gradientUnits="userSpaceOnUse"
       gradientTransform="matrix(1.4398294,0,0,1.4398294,-422.23626,-237.50789)"
       spreadMethod="pad" /></defs><rect
     style="display:inline;fill:#323333;fill-opacity:1;stroke-width:1.68613"
     id="rect1"
     width="1920"
     height="1080"
     x="0"
     y="0"
     inkscape:label="bg" /><circle
     style="display:inline;fill:url(#radialGradient6);fill-opacity:1;stroke:none;stroke-width:16.9669;stroke-dasharray:none;stroke-opacity:1;opacity:1"
     id="path4"
     cx="960"
     cy="540"
     r="531.4776"
     inkscape:label="gradient" /><path
     id="path10"
     style="display:inline;fill:#ffffff;stroke-width:11.784"
     d="m 967.0801,491.83189 -12.4336,0.11523 27.0547,46.86328 6.2089,-10.82031 -7.3554,-12.80273 10.3613,-17.82031 -3.1641,-5.4668 -6.1757,-0.002 -7.2754,12.52343 z m -28.6172,0.01 -6.3164,0.008 -3.0879,5.34961 7.209,12.56054 -14.5176,-0.041 -6.1153,10.82617 54.1114,0.002 -6.2657,-10.78906 -14.7675,-0.0293 z m 60.4668,19.40429 -27.0567,46.86133 12.4785,-0.0312 7.4063,-12.77344 20.6152,0.0664 3.1524,-5.47461 -3.0879,-5.34961 -14.4824,-0.0391 7.2929,-12.55078 z m -50.8028,10.63867 -12.4765,0.0332 -7.4082,12.77148 -20.6153,-0.0644 -3.1523,5.47265 3.0879,5.35157 14.4844,0.0371 -7.295,12.55078 6.3203,10.70898 z m -9.7636,19.30469 -6.209,10.82031 7.3554,12.80274 -10.3632,17.82031 3.1621,5.4668 6.1797,0.002 7.2753,-12.52344 7.2208,12.58985 12.4335,-0.11524 z m 11.8418,18.15625 6.2656,10.78906 14.7676,0.0293 10.25,17.88477 6.3164,-0.006 3.0879,-5.34961 -7.2071,-12.56055 14.5137,0.041 6.1172,-10.82618 z"
     inkscape:label="flake" /></svg>
