<?xml version="1.0" encoding="UTF-8" standalone="no"?>
<!-- Created with Inkscape (http://www.inkscape.org/) -->

<svg
   width="1920"
   height="1080"
   viewBox="0 0 1920 1080"
   version="1.1"
   id="svg1"
   xml:space="preserve"
   inkscape:version="1.4.2 (1:1.4.2+202505120738+ebf0e940d0)"
   sodipodi:docname="NEW-nix-wallpaper-simple-blue.svg"
   xmlns:inkscape="http://www.inkscape.org/namespaces/inkscape"
   xmlns:sodipodi="http://sodipodi.sourceforge.net/DTD/sodipodi-0.dtd"
   xmlns:xlink="http://www.w3.org/1999/xlink"
   xmlns="http://www.w3.org/2000/svg"
   xmlns:svg="http://www.w3.org/2000/svg"><sodipodi:namedview
     id="namedview1"
     pagecolor="#ffffff"
     bordercolor="#000000"
     borderopacity="0.25"
     inkscape:showpageshadow="2"
     inkscape:pageopacity="0.0"
     inkscape:pagecheckerboard="0"
     inkscape:deskcolor="#d1d1d1"
     inkscape:document-units="px"
     inkscape:zoom="0.37546297"
     inkscape:cx="965.4747"
     inkscape:cy="683.15658"
     inkscape:window-width="1920"
     inkscape:window-height="1016"
     inkscape:window-x="0"
     inkscape:window-y="27"
     inkscape:window-maximized="1"
     inkscape:current-layer="svg1" /><defs
     id="defs1"><linearGradient
       id="linearGradient5"
       inkscape:collect="always"><stop
         style="stop-color:#ffffff;stop-opacity:0.0993117;"
         offset="0.32067984"
         id="stop18" /><stop
         style="stop-color:#ffffff;stop-opacity:0;"
         offset="1"
         id="stop6" /></linearGradient><radialGradient
       inkscape:collect="always"
       xlink:href="#linearGradient5"
       id="radialGradient6"
       cx="960"
       cy="540"
       fx="960"
       fy="540"
       r="369.12543"
       gradientUnits="userSpaceOnUse"
       gradientTransform="matrix(1.4037525,0,0,1.4037525,-387.60246,-218.02638)"
       spreadMethod="pad" /></defs><rect
     style="display:inline;fill:#3a4ba0;fill-opacity:1;stroke-width:1.68613"
     id="rect1"
     width="1920"
     height="1080"
     x="0"
     y="0"
     inkscape:label="bg" /><circle
     style="display:inline;fill:url(#radialGradient6);fill-opacity:1;stroke:none;stroke-width:16.5418;stroke-dasharray:none;stroke-opacity:1"
     id="path4"
     cx="960"
     cy="540"
     r="518.16071"
     inkscape:label="gradient" /><path
     id="path1"
     style="display:inline;fill:#ffffff;stroke-width:1.07252"
     inkscape:label="flake"
     d="M 960,473.84961 A 66.150665,66.150665 0 0 0 893.8496,540 66.150665,66.150665 0 0 0 960,606.15039 66.150665,66.150665 0 0 0 1026.1504,540 66.150665,66.150665 0 0 0 960,473.84961 Z m 7.07812,17.98242 7.22266,12.58985 7.27344,-12.52344 6.17773,0.002 3.16407,5.4668 -10.36329,17.82031 7.35743,12.80273 -6.21094,10.82032 -27.05469,-46.86328 z m -28.61523,0.01 10.25,17.88672 14.76563,0.0293 6.26756,10.78907 -54.11131,-0.002 6.11523,-10.82617 14.51562,0.041 -7.20898,-12.56055 3.08983,-5.34961 z m 60.4668,19.40429 6.31831,10.70899 -7.29292,12.55078 14.48242,0.0391 3.0879,5.34961 -3.1524,5.47461 -20.61519,-0.0664 -7.4082,12.77344 -12.47656,0.0312 z m -50.80274,10.63868 -27.05664,46.86132 -6.31836,-10.70898 7.29297,-12.55078 -14.48242,-0.0371 -3.0879,-5.35156 3.15234,-5.47266 20.61524,0.0644 7.4082,-12.77148 z m -9.76367,19.30468 27.05274,46.86328 -12.43165,0.11524 -7.22266,-12.58985 -7.27539,12.52344 -6.17774,-0.002 -3.16405,-5.4668 10.36524,-17.82031 -7.35744,-12.80273 z m 11.83984,18.15625 54.11328,0.002 -6.11718,10.82617 -14.51367,-0.041 7.20703,12.56055 -3.08985,5.34961 -6.3164,0.006 -10.25,-17.88477 -14.76563,-0.0293 z" /></svg>
