<svg width="1920" height="1080" viewBox="0 0 1920 1080" fill="none" xmlns="http://www.w3.org/2000/svg">
<rect width="1920" height="1080" fill="#03071E"/>
<g clip-path="url(#clip0)">
<path fill-rule="evenodd" clip-rule="evenodd" d="M932.198 541.918L966.685 601.658L950.836 601.806L941.629 585.756L932.356 601.72L924.481 601.717L920.448 594.749L933.659 572.033L924.281 555.714L932.198 541.918Z" fill="white"/>
<path fill-rule="evenodd" clip-rule="evenodd" d="M944.646 517.311L910.153 577.047L902.1 563.396L911.396 547.397L892.935 547.349L889 540.527L893.018 533.551L919.296 533.634L928.74 517.352L944.646 517.311Z" fill="white"/>
<path fill-rule="evenodd" clip-rule="evenodd" d="M947.292 565.063L1016.27 565.066L1008.48 578.866L989.972 578.815L999.161 594.827L995.221 601.645L987.17 601.654L974.103 578.855L955.281 578.817L947.292 565.063Z" fill="white"/>
<path fill-rule="evenodd" clip-rule="evenodd" d="M987.44 538.888L952.954 479.149L968.802 479L978.009 495.05L987.282 479.086L995.157 479.089L999.19 486.057L985.979 508.773L995.357 525.093L987.44 538.888Z" fill="white"/>
<path fill-rule="evenodd" clip-rule="evenodd" d="M932.198 541.918L966.685 601.658L950.836 601.806L941.629 585.756L932.356 601.72L924.481 601.717L920.448 594.749L933.659 572.033L924.281 555.714L932.198 541.918Z" fill="white"/>
<path fill-rule="evenodd" clip-rule="evenodd" d="M972.255 515.592L903.276 515.589L911.072 501.789L929.575 501.84L920.386 485.828L924.326 479.01L932.377 479.001L945.444 501.8L964.266 501.838L972.255 515.592Z" fill="white"/>
<path fill-rule="evenodd" clip-rule="evenodd" d="M974.946 563.483L1009.44 503.747L1017.49 517.398L1008.2 533.396L1026.66 533.445L1030.59 540.266L1026.57 547.243L1000.3 547.16L990.851 563.441L974.946 563.483Z" fill="white"/>
</g>
<defs>
<clipPath id="clip0">
<rect width="141.592" height="122.806" fill="white" transform="translate(889 479)"/>
</clipPath>
</defs>
</svg>
